<svg width="434" height="285" viewBox="0 0 434 285" fill="none" xmlns="http://www.w3.org/2000/svg">
<path d="M145.553 279.988C222.552 278.973 283.725 214.884 283.725 137.915V3.4479C283.725 1.52114 282.203 0 280.275 0H193.842C191.914 0 190.393 1.52114 190.393 3.4479V13.0817H100.51C98.5826 13.0817 97.061 14.6027 97.061 16.5295V139.943H7.17824C5.25074 139.943 3.62767 141.566 3.72912 143.492C5.55518 219.853 68.4528 281.002 145.553 279.988Z" fill="#FFF0F3"/>
<g opacity="0.8" filter="url(#filter0_d_366_5750)">
<rect x="27.7246" y="24" width="330.957" height="201" rx="5.19828" fill="white" shape-rendering="crispEdges"/>
<path d="M38.5518 38.1129V36.5752H45.7967V38.1129H43.096V45.3966H41.2525V38.1129H38.5518ZM48.9851 45.5258C48.3161 45.5258 47.7375 45.3836 47.2493 45.0994C46.764 44.8122 46.3893 44.4131 46.1251 43.9019C45.8609 43.3879 45.7288 42.7921 45.7288 42.1144C45.7288 41.431 45.8609 40.8337 46.1251 40.3226C46.3893 39.8086 46.764 39.4094 47.2493 39.1251C47.7375 38.838 48.3161 38.6944 48.9851 38.6944C49.6542 38.6944 50.2314 38.838 50.7167 39.1251C51.2048 39.4094 51.581 39.8086 51.8452 40.3226C52.1094 40.8337 52.2414 41.431 52.2414 42.1144C52.2414 42.7921 52.1094 43.3879 51.8452 43.9019C51.581 44.4131 51.2048 44.8122 50.7167 45.0994C50.2314 45.3836 49.6542 45.5258 48.9851 45.5258ZM48.9938 44.1044C49.2981 44.1044 49.5523 44.0182 49.7561 43.8459C49.96 43.6708 50.1136 43.4324 50.217 43.1309C50.3233 42.8294 50.3764 42.4863 50.3764 42.1015C50.3764 41.7167 50.3233 41.3736 50.217 41.072C50.1136 40.7705 49.96 40.5322 49.7561 40.357C49.5523 40.1819 49.2981 40.0943 48.9938 40.0943C48.6865 40.0943 48.4281 40.1819 48.2184 40.357C48.0117 40.5322 47.8552 40.7705 47.7489 41.072C47.6456 41.3736 47.5939 41.7167 47.5939 42.1015C47.5939 42.4863 47.6456 42.8294 47.7489 43.1309C47.8552 43.4324 48.0117 43.6708 48.2184 43.8459C48.4281 44.0182 48.6865 44.1044 48.9938 44.1044ZM56.9536 38.7806V40.1589H52.9694V38.7806H56.9536ZM53.8739 37.1955H55.7088V43.3635C55.7088 43.5329 55.7347 43.665 55.7863 43.7598C55.838 43.8517 55.9098 43.9163 56.0017 43.9536C56.0965 43.9909 56.2056 44.0096 56.3291 44.0096C56.4152 44.0096 56.5013 44.0024 56.5875 43.9881C56.6736 43.9708 56.7397 43.9579 56.7856 43.9493L57.0742 45.3147C56.9823 45.3434 56.8531 45.3765 56.6866 45.4138C56.52 45.454 56.3176 45.4784 56.0792 45.487C55.637 45.5042 55.2494 45.4454 54.9163 45.3104C54.586 45.1754 54.329 44.9658 54.1453 44.6815C53.9615 44.3973 53.871 44.0383 53.8739 43.6047V37.1955ZM60.0355 45.5215C59.6134 45.5215 59.2372 45.4482 58.907 45.3018C58.5767 45.1525 58.3154 44.9328 58.123 44.6428C57.9335 44.3499 57.8388 43.9852 57.8388 43.5487C57.8388 43.1812 57.9062 42.8725 58.0412 42.6227C58.1762 42.3728 58.3599 42.1718 58.5925 42.0196C58.8251 41.8675 59.0893 41.7526 59.3851 41.6751C59.6837 41.5975 59.9967 41.543 60.3241 41.5114C60.7088 41.4712 61.019 41.4339 61.2544 41.3994C61.4899 41.3621 61.6608 41.3075 61.767 41.2357C61.8732 41.1639 61.9264 41.0577 61.9264 40.917V40.8911C61.9264 40.6183 61.8402 40.4073 61.6679 40.258C61.4985 40.1086 61.2573 40.034 60.9443 40.034C60.6141 40.034 60.3513 40.1072 60.1561 40.2537C59.9608 40.3972 59.8316 40.5781 59.7684 40.7964L58.0714 40.6585C58.1575 40.2565 58.3269 39.9091 58.5796 39.6162C58.8323 39.3204 59.1582 39.0936 59.5574 38.9356C59.9594 38.7748 60.4246 38.6944 60.9529 38.6944C61.3205 38.6944 61.6722 38.7375 62.0082 38.8236C62.3471 38.9098 62.6471 39.0433 62.9084 39.2242C63.1726 39.4051 63.3808 39.6377 63.533 39.922C63.6852 40.2034 63.7613 40.5408 63.7613 40.9342V45.3966H62.0211V44.4791H61.9694C61.8632 44.6859 61.7211 44.8682 61.543 45.0261C61.365 45.1812 61.1511 45.3032 60.9012 45.3922C60.6514 45.4784 60.3628 45.5215 60.0355 45.5215ZM60.561 44.2551C60.8309 44.2551 61.0692 44.202 61.276 44.0958C61.4827 43.9866 61.645 43.8402 61.7627 43.6564C61.8804 43.4726 61.9393 43.2644 61.9393 43.0319V42.3298C61.8819 42.3671 61.8029 42.4016 61.7024 42.4331C61.6048 42.4619 61.4942 42.4891 61.3707 42.515C61.2473 42.538 61.1238 42.5595 61.0003 42.5796C60.8768 42.5968 60.7648 42.6126 60.6643 42.627C60.449 42.6586 60.2609 42.7088 60.1001 42.7777C59.9393 42.8466 59.8144 42.94 59.7254 43.0577C59.6363 43.1726 59.5918 43.3161 59.5918 43.4884C59.5918 43.7382 59.6823 43.9292 59.8632 44.0613C60.047 44.1905 60.2796 44.2551 60.561 44.2551ZM67.0197 36.5752V45.3966H65.1848V36.5752H67.0197ZM71.3313 45.3966V36.5752H74.8633C75.5123 36.5752 76.0535 36.6714 76.4871 36.8638C76.9207 37.0562 77.2467 37.3233 77.4649 37.665C77.6831 38.0038 77.7923 38.3943 77.7923 38.8366C77.7923 39.1811 77.7233 39.4841 77.5855 39.7454C77.4477 40.0038 77.2582 40.2163 77.0169 40.3829C76.7786 40.5466 76.5058 40.6628 76.1986 40.7318V40.8179C76.5345 40.8323 76.849 40.927 77.1419 41.1022C77.4376 41.2774 77.6774 41.5229 77.8612 41.8387C78.0449 42.1517 78.1368 42.525 78.1368 42.9586C78.1368 43.4267 78.0205 43.8445 77.7879 44.2121C77.5582 44.5767 77.2179 44.8653 76.7671 45.0778C76.3163 45.2903 75.7607 45.3966 75.1002 45.3966H71.3313ZM73.1964 43.8718H74.7169C75.2366 43.8718 75.6156 43.7727 75.854 43.5746C76.0923 43.3736 76.2115 43.1065 76.2115 42.7734C76.2115 42.5293 76.1526 42.314 76.0349 42.1273C75.9172 41.9407 75.7492 41.7942 75.5309 41.688C75.3156 41.5817 75.0586 41.5286 74.7599 41.5286H73.1964V43.8718ZM73.1964 40.2666H74.579C74.8346 40.2666 75.0614 40.2221 75.2596 40.1331C75.4606 40.0412 75.6185 39.9119 75.7334 39.7454C75.8511 39.5788 75.91 39.3793 75.91 39.1467C75.91 38.8279 75.7965 38.5709 75.5697 38.3757C75.3457 38.1804 75.027 38.0828 74.6135 38.0828H73.1964V40.2666ZM81.2025 45.5215C80.7804 45.5215 80.4043 45.4482 80.074 45.3018C79.7438 45.1525 79.4825 44.9328 79.2901 44.6428C79.1006 44.3499 79.0058 43.9852 79.0058 43.5487C79.0058 43.1812 79.0733 42.8725 79.2083 42.6227C79.3432 42.3728 79.527 42.1718 79.7596 42.0196C79.9922 41.8675 80.2564 41.7526 80.5521 41.6751C80.8508 41.5975 81.1638 41.543 81.4911 41.5114C81.8759 41.4712 82.186 41.4339 82.4215 41.3994C82.657 41.3621 82.8278 41.3075 82.9341 41.2357C83.0403 41.1639 83.0934 41.0577 83.0934 40.917V40.8911C83.0934 40.6183 83.0073 40.4073 82.835 40.258C82.6656 40.1086 82.4244 40.034 82.1114 40.034C81.7812 40.034 81.5184 40.1072 81.3231 40.2537C81.1279 40.3972 80.9987 40.5781 80.9355 40.7964L79.2384 40.6585C79.3246 40.2565 79.494 39.9091 79.7467 39.6162C79.9994 39.3204 80.3253 39.0936 80.7244 38.9356C81.1265 38.7748 81.5916 38.6944 82.12 38.6944C82.4876 38.6944 82.8393 38.7375 83.1753 38.8236C83.5141 38.9098 83.8142 39.0433 84.0755 39.2242C84.3397 39.4051 84.5479 39.6377 84.7001 39.922C84.8523 40.2034 84.9283 40.5408 84.9283 40.9342V45.3966H83.1882V44.4791H83.1365C83.0303 44.6859 82.8881 44.8682 82.7101 45.0261C82.5321 45.1812 82.3181 45.3032 82.0683 45.3922C81.8185 45.4784 81.5299 45.5215 81.2025 45.5215ZM81.728 44.2551C81.998 44.2551 82.2363 44.202 82.443 44.0958C82.6498 43.9866 82.812 43.8402 82.9298 43.6564C83.0475 43.4726 83.1064 43.2644 83.1064 43.0319V42.3298C83.0489 42.3671 82.97 42.4016 82.8695 42.4331C82.7718 42.4619 82.6613 42.4891 82.5378 42.515C82.4143 42.538 82.2909 42.5595 82.1674 42.5796C82.0439 42.5968 81.9319 42.6126 81.8314 42.627C81.616 42.6586 81.428 42.7088 81.2672 42.7777C81.1063 42.8466 80.9814 42.94 80.8924 43.0577C80.8034 43.1726 80.7589 43.3161 80.7589 43.4884C80.7589 43.7382 80.8493 43.9292 81.0303 44.0613C81.214 44.1905 81.4466 44.2551 81.728 44.2551ZM89.3412 45.5258C88.6635 45.5258 88.0806 45.3822 87.5924 45.095C87.1071 44.805 86.7338 44.403 86.4725 43.889C86.2141 43.375 86.0848 42.7835 86.0848 42.1144C86.0848 41.4367 86.2155 40.8423 86.4768 40.3312C86.741 39.8172 87.1157 39.4166 87.601 39.1295C88.0863 38.8394 88.6635 38.6944 89.3325 38.6944C89.9097 38.6944 90.4151 38.7992 90.8487 39.0089C91.2823 39.2185 91.6255 39.5128 91.8781 39.8918C92.1308 40.2709 92.2701 40.716 92.296 41.2271H90.5644C90.5156 40.8969 90.3864 40.6313 90.1768 40.4303C89.97 40.2264 89.6987 40.1244 89.3627 40.1244C89.0784 40.1244 88.83 40.202 88.6175 40.357C88.4079 40.5092 88.2442 40.7318 88.1265 41.0247C88.0088 41.3176 87.9499 41.6722 87.9499 42.0886C87.9499 42.5107 88.0073 42.8696 88.1222 43.1654C88.2399 43.4611 88.405 43.6866 88.6175 43.8416C88.83 43.9967 89.0784 44.0742 89.3627 44.0742C89.5723 44.0742 89.7604 44.0311 89.9269 43.945C90.0964 43.8589 90.2356 43.7339 90.3448 43.5703C90.4567 43.4037 90.53 43.2041 90.5644 42.9716H92.296C92.2672 43.4769 92.1294 43.922 91.8825 44.3068C91.6384 44.6887 91.301 44.9874 90.8702 45.2027C90.4395 45.4181 89.9298 45.5258 89.3412 45.5258ZM95.1334 43.4927L95.1377 41.2917H95.4047L97.5239 38.7806H99.6302L96.7831 42.1058H96.348L95.1334 43.4927ZM93.4708 45.3966V36.5752H95.3057V45.3966H93.4708ZM97.6058 45.3966L95.6589 42.515L96.8821 41.2185L99.7551 45.3966H97.6058ZM102.365 36.5752V45.3966H100.53V36.5752H102.365ZM103.835 45.3966V38.7806H105.67V45.3966H103.835ZM104.757 37.9277C104.484 37.9277 104.25 37.8373 104.055 37.6564C103.862 37.4726 103.766 37.2529 103.766 36.9973C103.766 36.7447 103.862 36.5279 104.055 36.347C104.25 36.1632 104.484 36.0713 104.757 36.0713C105.03 36.0713 105.262 36.1632 105.455 36.347C105.65 36.5279 105.748 36.7447 105.748 36.9973C105.748 37.2529 105.65 37.4726 105.455 37.6564C105.262 37.8373 105.03 37.9277 104.757 37.9277ZM108.975 41.5717V45.3966H107.14V38.7806H108.889V39.9478H108.966C109.113 39.5631 109.358 39.2587 109.703 39.0347C110.047 38.8078 110.465 38.6944 110.956 38.6944C111.416 38.6944 111.816 38.7949 112.158 38.9959C112.5 39.1969 112.765 39.4841 112.955 39.8574C113.144 40.2278 113.239 40.67 113.239 41.184V45.3966H111.404V41.5114C111.407 41.1065 111.304 40.7906 111.094 40.5638C110.884 40.3341 110.596 40.2192 110.228 40.2192C109.981 40.2192 109.763 40.2723 109.574 40.3786C109.387 40.4848 109.24 40.6399 109.134 40.8438C109.031 41.0448 108.978 41.2874 108.975 41.5717ZM116.348 43.4927L116.352 41.2917H116.619L118.738 38.7806H120.845L117.998 42.1058H117.562L116.348 43.4927ZM114.685 45.3966V36.5752H116.52V45.3966H114.685ZM118.82 45.3966L116.873 42.515L118.097 41.2185L120.97 45.3966H118.82ZM127.25 40.6672L125.57 40.7705C125.541 40.627 125.479 40.4977 125.385 40.3829C125.29 40.2651 125.165 40.1718 125.01 40.1029C124.858 40.0311 124.675 39.9952 124.463 39.9952C124.178 39.9952 123.939 40.0555 123.743 40.1761C123.548 40.2939 123.451 40.4518 123.451 40.6499C123.451 40.8079 123.514 40.9414 123.64 41.0505C123.766 41.1596 123.983 41.2472 124.29 41.3132L125.488 41.5545C126.131 41.6865 126.611 41.899 126.927 42.1919C127.242 42.4848 127.4 42.8696 127.4 43.3463C127.4 43.7799 127.273 44.1604 127.017 44.4877C126.764 44.8151 126.417 45.0706 125.975 45.2544C125.535 45.4353 125.028 45.5258 124.454 45.5258C123.578 45.5258 122.881 45.3434 122.361 44.9787C121.844 44.6112 121.541 44.1115 121.452 43.4798L123.257 43.3851C123.311 43.6521 123.443 43.856 123.653 43.9967C123.863 44.1345 124.131 44.2034 124.458 44.2034C124.78 44.2034 125.038 44.1417 125.234 44.0182C125.432 43.8919 125.532 43.7296 125.535 43.5315C125.532 43.365 125.462 43.2286 125.324 43.1223C125.186 43.0132 124.974 42.9299 124.687 42.8725L123.541 42.6442C122.895 42.515 122.414 42.291 122.098 41.9723C121.785 41.6535 121.629 41.2472 121.629 40.7533C121.629 40.3283 121.743 39.9622 121.973 39.6549C122.206 39.3477 122.532 39.1108 122.951 38.9442C123.373 38.7777 123.867 38.6944 124.433 38.6944C125.268 38.6944 125.926 38.871 126.405 39.2242C126.888 39.5774 127.169 40.0584 127.25 40.6672Z" fill="#6A6C6A"/>
<rect x="38.1211" y="58.7933" width="306.698" height="0.866379" fill="#DDDEDE"/>
<rect x="38.1211" y="83.9183" width="306.698" height="0.866379" fill="#DDDEDE"/>
<rect x="38.1211" y="109.043" width="306.698" height="0.866379" fill="#C3C4C4"/>
<g clip-path="url(#clip0_366_5750)">
<path opacity="0.2" d="M334.888 90.7396C339.136 90.7396 345.121 93.2319 345.121 93.2319V109.91H38.1211V78.7767C38.1211 78.7767 44.437 78.243 48.3544 78.7767C52.639 79.3605 54.217 81.8387 58.5878 81.8387C62.9586 81.8387 64.4503 78.7767 68.8211 78.7767C73.1919 78.7767 74.937 80.8479 79.0544 81.8387C82.962 82.779 85.2757 83.0497 89.2877 83.7613C93.2695 84.4675 95.4337 85.1391 99.5211 85.4703C103.489 85.7918 105.849 84.8986 109.754 85.4703C114.094 86.1054 115.648 88.1819 119.988 88.817C123.894 89.3887 126.225 88.817 130.221 88.817C134.217 88.817 136.549 89.3887 140.454 88.817C144.794 88.1819 146.348 86.1054 150.688 85.4703C154.593 84.8986 156.953 85.7918 160.921 85.4703C165.008 85.1391 167.038 83.7613 171.154 83.7613C175.271 83.7613 177.3 85.1391 181.388 85.4703C185.356 85.7918 187.625 85.4703 191.621 85.4703C195.617 85.4703 197.887 85.7918 201.854 85.4703C205.942 85.1391 207.993 83.4748 212.088 83.7613C216.578 84.0754 217.825 87.1204 222.321 87.3929C226.453 87.6432 228.443 85.8421 232.554 85.4703C236.515 85.112 238.791 85.4703 242.788 85.4703C246.784 85.4703 249.188 84.7056 253.021 85.4703C257.84 86.4317 258.239 90.5284 263.254 90.7396C267.686 90.9262 269.048 87.3929 273.488 87.3929C277.928 87.3929 279.281 90.7396 283.721 90.7396C288.161 90.7396 289.615 88.028 293.954 87.3929C297.86 86.8212 300.282 86.8212 304.188 87.3929C308.527 88.028 310.327 89.5791 314.421 90.7396C318.338 91.85 320.406 93.2319 324.654 93.2319C328.903 93.2319 330.64 90.7396 334.888 90.7396Z" fill="#94A5F5"/>
<path d="M345.121 93.2319C345.121 93.2319 339.136 90.7396 334.888 90.7396C330.64 90.7396 328.903 93.2319 324.654 93.2319C320.406 93.2319 318.338 91.85 314.421 90.7396C310.327 89.5791 308.527 88.028 304.188 87.3929C300.282 86.8212 297.86 86.8212 293.954 87.3929C289.615 88.028 288.161 90.7396 283.721 90.7396C279.281 90.7396 277.928 87.3929 273.488 87.3929C269.048 87.3929 267.686 90.9262 263.254 90.7396C258.239 90.5284 257.84 86.4317 253.021 85.4703C249.188 84.7056 246.784 85.4703 242.788 85.4703C238.791 85.4703 236.515 85.112 232.554 85.4703C228.443 85.8421 226.453 87.6432 222.321 87.3929C217.825 87.1204 216.578 84.0754 212.088 83.7613C207.993 83.4748 205.942 85.1391 201.854 85.4703C197.886 85.7918 195.617 85.4703 191.621 85.4703C187.625 85.4703 185.356 85.7918 181.388 85.4703C177.3 85.1391 175.271 83.7613 171.154 83.7613C167.038 83.7613 165.008 85.1391 160.921 85.4703C156.953 85.7918 154.593 84.8986 150.688 85.4703C146.348 86.1054 144.794 88.1819 140.454 88.817C136.549 89.3887 134.217 88.817 130.221 88.817C126.225 88.817 123.893 89.3887 119.988 88.817C115.648 88.1819 114.094 86.1054 109.754 85.4703C105.849 84.8986 103.489 85.7918 99.5211 85.4703C95.4337 85.1391 93.2695 84.4675 89.2877 83.7613C85.2757 83.0497 82.962 82.779 79.0544 81.8387C74.937 80.8479 73.1919 78.7767 68.8211 78.7767C64.4503 78.7767 62.9586 81.8387 58.5878 81.8387C54.217 81.8387 52.639 79.3605 48.3544 78.7767C44.4369 78.243 38.1211 78.7767 38.1211 78.7767" stroke="#B0C1FE" stroke-width="2.59914" stroke-linecap="round"/>
</g>
<path d="M46.2662 131.011V139.832H44.6552L40.8175 134.28H40.7528V139.832H38.8878V131.011H40.5246L44.3322 136.558H44.4097V131.011H46.2662ZM50.7877 139.961C50.1072 139.961 49.5214 139.823 49.0304 139.548C48.5422 139.269 48.166 138.876 47.9019 138.367C47.6377 137.856 47.5056 137.252 47.5056 136.554C47.5056 135.874 47.6377 135.276 47.9019 134.762C48.166 134.248 48.5379 133.848 49.0174 133.56C49.4999 133.273 50.0656 133.13 50.7145 133.13C51.151 133.13 51.5573 133.2 51.9335 133.341C52.3125 133.479 52.6427 133.687 52.9242 133.965C53.2084 134.244 53.4295 134.594 53.5875 135.016C53.7454 135.436 53.8244 135.927 53.8244 136.489V136.993H48.2378V135.856H52.0972C52.0972 135.592 52.0397 135.358 51.9249 135.154C51.81 134.95 51.6506 134.791 51.4468 134.676C51.2457 134.558 51.0117 134.499 50.7447 134.499C50.4661 134.499 50.2192 134.564 50.0038 134.693C49.7913 134.82 49.6248 134.991 49.5042 135.206C49.3836 135.418 49.3218 135.655 49.319 135.917V136.998C49.319 137.325 49.3793 137.608 49.4999 137.846C49.6233 138.085 49.7971 138.268 50.021 138.398C50.245 138.527 50.5106 138.591 50.8179 138.591C51.0218 138.591 51.2084 138.563 51.3778 138.505C51.5473 138.448 51.6923 138.362 51.8129 138.247C51.9335 138.132 52.0254 137.991 52.0885 137.825L53.7856 137.937C53.6995 138.344 53.5229 138.701 53.2558 139.005C52.9916 139.306 52.6499 139.542 52.2307 139.711C51.8143 139.878 51.3333 139.961 50.7877 139.961ZM56.2795 139.832L54.4791 133.216H56.3355L57.3607 137.661H57.421L58.4892 133.216H60.3111L61.3966 137.635H61.4526L62.4605 133.216H64.3126L62.5165 139.832H60.5739L59.4368 135.671H59.3549L58.2178 139.832H56.2795ZM70.8037 139.961C70.1949 139.961 69.6694 139.852 69.2272 139.634C68.785 139.416 68.4447 139.12 68.2064 138.746C67.9709 138.37 67.8532 137.951 67.8532 137.489C67.8532 137.144 67.9221 136.838 68.0599 136.571C68.1978 136.304 68.3902 136.059 68.6371 135.835C68.8841 135.608 69.1712 135.382 69.4986 135.158L71.2086 134.034C71.4297 133.894 71.5919 133.746 71.6953 133.591C71.7987 133.433 71.8504 133.262 71.8504 133.078C71.8504 132.903 71.78 132.741 71.6393 132.591C71.4986 132.442 71.299 132.369 71.0406 132.372C70.8683 132.372 70.719 132.41 70.5926 132.488C70.4663 132.563 70.3672 132.662 70.2954 132.785C70.2265 132.906 70.1921 133.041 70.1921 133.19C70.1921 133.374 70.2437 133.56 70.3471 133.75C70.4505 133.94 70.5883 134.141 70.7606 134.353C70.9329 134.563 71.121 134.79 71.3249 135.034L75.5072 139.832H73.5948L70.1059 135.947C69.8762 135.685 69.6465 135.413 69.4167 135.128C69.1899 134.841 69.0004 134.537 68.8482 134.215C68.696 133.891 68.6199 133.539 68.6199 133.16C68.6199 132.732 68.719 132.347 68.9171 132.006C69.1181 131.664 69.3995 131.394 69.7613 131.196C70.1231 130.995 70.5452 130.894 71.0277 130.894C71.4986 130.894 71.9049 130.99 72.2466 131.183C72.5912 131.372 72.8554 131.625 73.0392 131.941C73.2258 132.254 73.3191 132.599 73.3191 132.975C73.3191 133.391 73.2158 133.769 73.009 134.108C72.8051 134.443 72.518 134.745 72.1476 135.012L70.3471 136.309C70.103 136.487 69.9221 136.669 69.8044 136.856C69.6895 137.039 69.6321 137.216 69.6321 137.385C69.6321 137.595 69.6838 137.783 69.7872 137.95C69.8905 138.116 70.037 138.248 70.2265 138.346C70.416 138.441 70.6386 138.488 70.8941 138.488C71.2043 138.488 71.5101 138.418 71.8116 138.277C72.116 138.133 72.3916 137.931 72.6386 137.67C72.8884 137.405 73.088 137.092 73.2373 136.731C73.3866 136.369 73.4613 135.968 73.4613 135.529H74.9818C74.9818 136.069 74.9229 136.555 74.8052 136.989C74.6874 137.42 74.5237 137.796 74.3141 138.118C74.1045 138.436 73.8647 138.698 73.5948 138.902C73.5087 138.956 73.4254 139.008 73.345 139.057C73.2646 139.105 73.1813 139.157 73.0952 139.212C72.7678 139.476 72.4017 139.667 71.9968 139.785C71.5948 139.902 71.1971 139.961 70.8037 139.961ZM79.1135 139.832V131.011H80.9786V138.294H84.7604V139.832H79.1135ZM88.9503 139.961C88.2812 139.961 87.7026 139.819 87.2144 139.535C86.7291 139.248 86.3544 138.848 86.0902 138.337C85.8261 137.823 85.694 137.227 85.694 136.55C85.694 135.866 85.8261 135.269 86.0902 134.758C86.3544 134.244 86.7291 133.845 87.2144 133.56C87.7026 133.273 88.2812 133.13 88.9503 133.13C89.6193 133.13 90.1965 133.273 90.6818 133.56C91.17 133.845 91.5461 134.244 91.8103 134.758C92.0745 135.269 92.2066 135.866 92.2066 136.55C92.2066 137.227 92.0745 137.823 91.8103 138.337C91.5461 138.848 91.17 139.248 90.6818 139.535C90.1965 139.819 89.6193 139.961 88.9503 139.961ZM88.9589 138.54C89.2633 138.54 89.5174 138.454 89.7213 138.281C89.9252 138.106 90.0788 137.868 90.1822 137.566C90.2884 137.265 90.3415 136.922 90.3415 136.537C90.3415 136.152 90.2884 135.809 90.1822 135.507C90.0788 135.206 89.9252 134.968 89.7213 134.792C89.5174 134.617 89.2633 134.53 88.9589 134.53C88.6516 134.53 88.3932 134.617 88.1836 134.792C87.9768 134.968 87.8203 135.206 87.7141 135.507C87.6107 135.809 87.559 136.152 87.559 136.537C87.559 136.922 87.6107 137.265 87.7141 137.566C87.8203 137.868 87.9768 138.106 88.1836 138.281C88.3932 138.454 88.6516 138.54 88.9589 138.54ZM98.9044 135.102L97.2246 135.206C97.1958 135.062 97.1341 134.933 97.0394 134.818C96.9446 134.7 96.8197 134.607 96.6646 134.538C96.5124 134.466 96.3301 134.431 96.1176 134.431C95.8333 134.431 95.5935 134.491 95.3983 134.611C95.203 134.729 95.1054 134.887 95.1054 135.085C95.1054 135.243 95.1686 135.377 95.2949 135.486C95.4212 135.595 95.638 135.683 95.9453 135.749L97.1427 135.99C97.7859 136.122 98.2655 136.334 98.5814 136.627C98.8972 136.92 99.0552 137.305 99.0552 137.782C99.0552 138.215 98.9274 138.596 98.6718 138.923C98.4191 139.25 98.0717 139.506 97.6294 139.69C97.1901 139.871 96.6833 139.961 96.109 139.961C95.2332 139.961 94.5354 139.779 94.0156 139.414C93.4988 139.047 93.1958 138.547 93.1068 137.915L94.9116 137.82C94.9661 138.087 95.0982 138.291 95.3078 138.432C95.5174 138.57 95.7859 138.639 96.1133 138.639C96.4349 138.639 96.6933 138.577 96.8886 138.454C97.0867 138.327 97.1872 138.165 97.1901 137.967C97.1872 137.8 97.1169 137.664 96.979 137.558C96.8412 137.449 96.6287 137.365 96.3416 137.308L95.1958 137.08C94.5497 136.95 94.0688 136.726 93.7529 136.408C93.4399 136.089 93.2834 135.683 93.2834 135.189C93.2834 134.764 93.3983 134.398 93.628 134.09C93.8606 133.783 94.1865 133.546 94.6057 133.38C95.0278 133.213 95.5218 133.13 96.0874 133.13C96.9231 133.13 97.5806 133.306 98.0602 133.66C98.5426 134.013 98.824 134.494 98.9044 135.102ZM103.73 133.216V134.594H99.7454V133.216H103.73ZM100.65 131.631H102.485V137.799C102.485 137.968 102.511 138.1 102.562 138.195C102.614 138.287 102.686 138.352 102.778 138.389C102.872 138.426 102.982 138.445 103.105 138.445C103.191 138.445 103.277 138.438 103.364 138.423C103.45 138.406 103.516 138.393 103.562 138.385L103.85 139.75C103.758 139.779 103.629 139.812 103.463 139.849C103.296 139.889 103.094 139.914 102.855 139.922C102.413 139.94 102.025 139.881 101.692 139.746C101.362 139.611 101.105 139.401 100.921 139.117C100.738 138.833 100.647 138.474 100.65 138.04V131.631ZM107.767 139.832V131.011H111.299C111.948 131.011 112.489 131.107 112.922 131.299C113.356 131.492 113.682 131.759 113.9 132.1C114.118 132.439 114.228 132.83 114.228 133.272C114.228 133.616 114.159 133.919 114.021 134.181C113.883 134.439 113.693 134.652 113.452 134.818C113.214 134.982 112.941 135.098 112.634 135.167V135.253C112.97 135.268 113.284 135.362 113.577 135.538C113.873 135.713 114.113 135.958 114.296 136.274C114.48 136.587 114.572 136.96 114.572 137.394C114.572 137.862 114.456 138.28 114.223 138.647C113.994 139.012 113.653 139.301 113.202 139.513C112.752 139.726 112.196 139.832 111.536 139.832H107.767ZM109.632 138.307H111.152C111.672 138.307 112.051 138.208 112.289 138.01C112.528 137.809 112.647 137.542 112.647 137.209C112.647 136.965 112.588 136.749 112.47 136.563C112.352 136.376 112.184 136.23 111.966 136.123C111.751 136.017 111.494 135.964 111.195 135.964H109.632V138.307ZM109.632 134.702H111.014C111.27 134.702 111.497 134.657 111.695 134.568C111.896 134.477 112.054 134.347 112.169 134.181C112.286 134.014 112.345 133.815 112.345 133.582C112.345 133.263 112.232 133.006 112.005 132.811C111.781 132.616 111.462 132.518 111.049 132.518H109.632V134.702ZM117.638 139.957C117.216 139.957 116.84 139.884 116.509 139.737C116.179 139.588 115.918 139.368 115.725 139.078C115.536 138.785 115.441 138.421 115.441 137.984C115.441 137.617 115.509 137.308 115.644 137.058C115.779 136.808 115.962 136.607 116.195 136.455C116.428 136.303 116.692 136.188 116.987 136.11C117.286 136.033 117.599 135.978 117.926 135.947C118.311 135.907 118.621 135.869 118.857 135.835C119.092 135.797 119.263 135.743 119.369 135.671C119.476 135.599 119.529 135.493 119.529 135.352V135.326C119.529 135.054 119.443 134.843 119.27 134.693C119.101 134.544 118.86 134.469 118.547 134.469C118.216 134.469 117.954 134.543 117.758 134.689C117.563 134.833 117.434 135.013 117.371 135.232L115.674 135.094C115.76 134.692 115.929 134.344 116.182 134.052C116.435 133.756 116.761 133.529 117.16 133.371C117.562 133.21 118.027 133.13 118.555 133.13C118.923 133.13 119.275 133.173 119.611 133.259C119.949 133.345 120.25 133.479 120.511 133.66C120.775 133.84 120.983 134.073 121.135 134.357C121.288 134.639 121.364 134.976 121.364 135.37V139.832H119.624V138.914H119.572C119.466 139.121 119.323 139.304 119.145 139.461C118.967 139.617 118.753 139.739 118.504 139.828C118.254 139.914 117.965 139.957 117.638 139.957ZM118.163 138.69C118.433 138.69 118.672 138.637 118.878 138.531C119.085 138.422 119.247 138.276 119.365 138.092C119.483 137.908 119.542 137.7 119.542 137.467V136.765C119.484 136.802 119.405 136.837 119.305 136.868C119.207 136.897 119.097 136.924 118.973 136.95C118.85 136.973 118.726 136.995 118.603 137.015C118.479 137.032 118.367 137.048 118.267 137.062C118.051 137.094 117.863 137.144 117.702 137.213C117.542 137.282 117.417 137.375 117.328 137.493C117.239 137.608 117.194 137.751 117.194 137.924C117.194 138.174 117.285 138.365 117.466 138.497C117.649 138.626 117.882 138.69 118.163 138.69ZM125.776 139.961C125.099 139.961 124.516 139.818 124.028 139.53C123.542 139.24 123.169 138.838 122.908 138.324C122.649 137.81 122.52 137.219 122.52 136.55C122.52 135.872 122.651 135.278 122.912 134.767C123.176 134.253 123.551 133.852 124.036 133.565C124.522 133.275 125.099 133.13 125.768 133.13C126.345 133.13 126.85 133.235 127.284 133.444C127.718 133.654 128.061 133.948 128.313 134.327C128.566 134.706 128.705 135.151 128.731 135.662H127C126.951 135.332 126.822 135.067 126.612 134.866C126.405 134.662 126.134 134.56 125.798 134.56C125.514 134.56 125.265 134.637 125.053 134.792C124.843 134.945 124.68 135.167 124.562 135.46C124.444 135.753 124.385 136.108 124.385 136.524C124.385 136.946 124.443 137.305 124.558 137.601C124.675 137.896 124.84 138.122 125.053 138.277C125.265 138.432 125.514 138.51 125.798 138.51C126.008 138.51 126.196 138.466 126.362 138.38C126.532 138.294 126.671 138.169 126.78 138.006C126.892 137.839 126.965 137.639 127 137.407H128.731C128.703 137.912 128.565 138.357 128.318 138.742C128.074 139.124 127.736 139.423 127.306 139.638C126.875 139.853 126.365 139.961 125.776 139.961ZM131.569 137.928L131.573 135.727H131.84L133.959 133.216H136.065L133.218 136.541H132.783L131.569 137.928ZM129.906 139.832V131.011H131.741V139.832H129.906ZM134.041 139.832L132.094 136.95L133.317 135.654L136.19 139.832H134.041ZM138.801 131.011V139.832H136.966V131.011H138.801ZM140.27 139.832V133.216H142.105V139.832H140.27ZM141.192 132.363C140.919 132.363 140.685 132.273 140.49 132.092C140.298 131.908 140.202 131.688 140.202 131.433C140.202 131.18 140.298 130.963 140.49 130.782C140.685 130.599 140.919 130.507 141.192 130.507C141.465 130.507 141.698 130.599 141.89 130.782C142.085 130.963 142.183 131.18 142.183 131.433C142.183 131.688 142.085 131.908 141.89 132.092C141.698 132.273 141.465 132.363 141.192 132.363ZM145.41 136.007V139.832H143.575V133.216H145.324V134.383H145.402C145.548 133.998 145.793 133.694 146.138 133.47C146.483 133.243 146.9 133.13 147.391 133.13C147.851 133.13 148.252 133.23 148.593 133.431C148.935 133.632 149.201 133.919 149.39 134.293C149.58 134.663 149.674 135.105 149.674 135.619V139.832H147.839V135.947C147.842 135.542 147.739 135.226 147.529 134.999C147.32 134.769 147.031 134.655 146.664 134.655C146.417 134.655 146.198 134.708 146.009 134.814C145.822 134.92 145.676 135.075 145.57 135.279C145.466 135.48 145.413 135.723 145.41 136.007ZM152.783 137.928L152.787 135.727H153.054L155.174 133.216H157.28L154.433 136.541H153.998L152.783 137.928ZM151.121 139.832V131.011H152.955V139.832H151.121ZM155.256 139.832L153.309 136.95L154.532 135.654L157.405 139.832H155.256ZM163.685 135.102L162.005 135.206C161.976 135.062 161.915 134.933 161.82 134.818C161.725 134.7 161.6 134.607 161.445 134.538C161.293 134.466 161.111 134.431 160.898 134.431C160.614 134.431 160.374 134.491 160.179 134.611C159.983 134.729 159.886 134.887 159.886 135.085C159.886 135.243 159.949 135.377 160.075 135.486C160.202 135.595 160.419 135.683 160.726 135.749L161.923 135.99C162.566 136.122 163.046 136.334 163.362 136.627C163.678 136.92 163.836 137.305 163.836 137.782C163.836 138.215 163.708 138.596 163.452 138.923C163.2 139.25 162.852 139.506 162.41 139.69C161.971 139.871 161.464 139.961 160.889 139.961C160.014 139.961 159.316 139.779 158.796 139.414C158.279 139.047 157.976 138.547 157.887 137.915L159.692 137.82C159.747 138.087 159.879 138.291 160.088 138.432C160.298 138.57 160.566 138.639 160.894 138.639C161.215 138.639 161.474 138.577 161.669 138.454C161.867 138.327 161.968 138.165 161.971 137.967C161.968 137.8 161.897 137.664 161.76 137.558C161.622 137.449 161.409 137.365 161.122 137.308L159.976 137.08C159.33 136.95 158.849 136.726 158.533 136.408C158.22 136.089 158.064 135.683 158.064 135.189C158.064 134.764 158.179 134.398 158.408 134.09C158.641 133.783 158.967 133.546 159.386 133.38C159.808 133.213 160.302 133.13 160.868 133.13C161.704 133.13 162.361 133.306 162.841 133.66C163.323 134.013 163.604 134.494 163.685 135.102Z" fill="#6A6C6A"/>
<rect x="175.009" y="130.634" width="10.3966" height="10.3966" rx="3.46552" fill="#94A5F5"/>
<rect x="189.737" y="132.366" width="34.6552" height="6.93103" rx="3.46552" fill="#DDDEDE"/>
<rect x="234.789" y="130.634" width="10.3966" height="10.3966" rx="3.46552" fill="#FFB400"/>
<rect x="249.518" y="132.366" width="34.6552" height="6.93103" rx="3.46552" fill="#DDDEDE"/>
<rect x="38.1211" y="153.228" width="306.698" height="0.866379" fill="#DDDEDE"/>
<rect x="38.1211" y="180.953" width="306.698" height="0.866379" fill="#DDDEDE"/>
<rect x="38.1211" y="208.677" width="306.698" height="0.866379" fill="#C3C4C4"/>
<g clip-path="url(#clip1_366_5750)">
<g clip-path="url(#clip2_366_5750)">
<path d="M45.0518 179.22C45.0518 178.263 45.8275 177.487 46.7845 177.487H53.7156C54.6725 177.487 55.4483 178.263 55.4483 179.22V201.746H45.0518V179.22Z" fill="#FDDB72"/>
<rect x="45.0518" y="201.746" width="10.3966" height="6.93103" fill="#B0C1FE"/>
</g>
<g clip-path="url(#clip3_366_5750)">
<path d="M76.4336 195.681C76.4336 194.724 77.2094 193.948 78.1664 193.948H85.0974C86.0544 193.948 86.8301 194.724 86.8301 195.681V218.207H76.4336V195.681Z" fill="#FDDB72"/>
</g>
<g clip-path="url(#clip4_366_5750)">
<path d="M107.816 182.685C107.816 181.728 108.592 180.953 109.549 180.953H116.48C117.437 180.953 118.213 181.728 118.213 182.685V205.211H107.816V182.685Z" fill="#FDDB72"/>
<rect x="107.816" y="205.211" width="10.3966" height="8.2306" fill="#B0C1FE"/>
</g>
<g clip-path="url(#clip5_366_5750)">
<path d="M139.198 176.621C139.198 175.664 139.974 174.888 140.931 174.888H147.862C148.819 174.888 149.595 175.664 149.595 176.621V199.147H139.198V176.621Z" fill="#FFB400"/>
<rect x="139.198" y="199.147" width="10.3966" height="9.53017" fill="#666BDB"/>
</g>
<g clip-path="url(#clip6_366_5750)">
<path d="M170.58 166.224C170.58 165.267 171.356 164.491 172.313 164.491H179.244C180.201 164.491 180.977 165.267 180.977 166.224V188.75H170.58V166.224Z" fill="#FFB400"/>
<rect x="170.58" y="188.75" width="10.3966" height="19.9267" fill="#666BDB"/>
</g>
<g clip-path="url(#clip7_366_5750)">
<path d="M201.963 179.22C201.963 178.263 202.739 177.487 203.696 177.487H210.627C211.584 177.487 212.359 178.263 212.359 179.22V201.746H201.963V179.22Z" fill="#FFB400"/>
<rect x="201.963" y="201.746" width="10.3966" height="6.93103" fill="#666BDB"/>
</g>
<g clip-path="url(#clip8_366_5750)">
<path d="M233.345 158.427C233.345 157.47 234.121 156.694 235.077 156.694H242.009C242.965 156.694 243.741 157.47 243.741 158.427V180.953H233.345V158.427Z" fill="#FFB400"/>
<rect x="233.345" y="180.953" width="10.3966" height="27.7241" fill="#666BDB"/>
</g>
<g clip-path="url(#clip9_366_5750)">
<path d="M264.728 171.422C264.728 170.465 265.503 169.69 266.46 169.69H273.391C274.348 169.69 275.124 170.465 275.124 171.422V193.948H264.728V171.422Z" fill="#FFB400"/>
<rect x="264.728" y="193.948" width="10.3966" height="14.7284" fill="#666BDB"/>
</g>
<g clip-path="url(#clip10_366_5750)">
<path d="M296.109 158.427C296.109 157.47 296.885 156.694 297.842 156.694H304.773C305.73 156.694 306.506 157.47 306.506 158.427V180.953H296.109V158.427Z" fill="#FFB400"/>
<rect x="296.109" y="180.953" width="10.3966" height="27.7241" fill="#666BDB"/>
</g>
<g clip-path="url(#clip11_366_5750)">
<path d="M327.491 176.621C327.491 175.664 328.267 174.888 329.224 174.888H336.155C337.112 174.888 337.888 175.664 337.888 176.621V199.147H327.491V176.621Z" fill="#FFB400"/>
<rect x="327.491" y="199.147" width="10.3966" height="9.53017" fill="#666BDB"/>
</g>
</g>
</g>
<g filter="url(#filter1_d_366_5750)">
<path d="M115.725 75.1983C115.725 72.3273 118.052 70 120.923 70H398.164C401.035 70 403.363 72.3273 403.363 75.1983V245.009C403.363 247.88 401.035 250.207 398.164 250.207H120.923C118.052 250.207 115.725 247.88 115.725 245.009V75.1983Z" fill="white" shape-rendering="crispEdges"/>
<mask id="path-47-inside-1_366_5750" fill="white">
<path d="M115.725 76C115.725 72.6863 118.411 70 121.725 70H397.363C400.676 70 403.363 72.6863 403.363 76V108.397H115.725V76Z"/>
</mask>
<path d="M115.725 76C115.725 72.6863 118.411 70 121.725 70H397.363C400.676 70 403.363 72.6863 403.363 76V108.397H115.725V76Z" fill="white"/>
<path d="M115.725 70H403.363H115.725M403.363 109.397H115.725V107.397H403.363V109.397ZM403.363 107.397M115.725 108.397V70V108.397M115.725 108.397M403.363 70V108.397V70" fill="#001510" fill-opacity="0.0705882" mask="url(#path-47-inside-1_366_5750)"/>
<path d="M131.874 86.1983H129.876L132.921 77.377H135.324L138.365 86.1983H136.367L134.157 79.3928H134.088L131.874 86.1983ZM131.749 82.7309H136.47V84.1868H131.749V82.7309ZM143.635 83.3813V79.5823H145.47V86.1983H143.708V84.9965H143.639C143.49 85.3842 143.242 85.6958 142.894 85.9312C142.55 86.1667 142.129 86.2844 141.632 86.2844C141.19 86.2844 140.801 86.1839 140.465 85.9829C140.129 85.7819 139.866 85.4962 139.677 85.1258C139.49 84.7553 139.395 84.3117 139.392 83.7948V79.5823H141.227V83.4675C141.23 83.858 141.335 84.1667 141.542 84.3935C141.749 84.6204 142.026 84.7338 142.373 84.7338C142.594 84.7338 142.801 84.6835 142.993 84.583C143.186 84.4797 143.341 84.3275 143.459 84.1265C143.579 83.9255 143.638 83.6771 143.635 83.3813ZM150.457 79.5823V80.9606H146.473V79.5823H150.457ZM147.377 77.9972H149.212V84.1652C149.212 84.3347 149.238 84.4667 149.29 84.5615C149.341 84.6534 149.413 84.718 149.505 84.7553C149.6 84.7927 149.709 84.8113 149.832 84.8113C149.918 84.8113 150.005 84.8042 150.091 84.7898C150.177 84.7726 150.243 84.7596 150.289 84.751L150.577 86.1164C150.485 86.1452 150.356 86.1782 150.19 86.2155C150.023 86.2557 149.821 86.2801 149.582 86.2887C149.14 86.306 148.753 86.2471 148.419 86.1121C148.089 85.9772 147.832 85.7675 147.648 85.4833C147.465 85.199 147.374 84.84 147.377 84.4064V77.9972ZM153.629 82.3734V86.1983H151.794V77.377H153.577V80.7496H153.655C153.804 80.359 154.045 80.0532 154.379 79.8321C154.712 79.6081 155.129 79.4961 155.632 79.4961C156.091 79.4961 156.492 79.5966 156.834 79.7977C157.178 79.9958 157.445 80.2815 157.635 80.6548C157.827 81.0252 157.922 81.4689 157.919 81.9858V86.1983H156.084V82.3131C156.087 81.9054 155.984 81.588 155.774 81.3612C155.567 81.1343 155.277 81.0209 154.904 81.0209C154.654 81.0209 154.433 81.074 154.241 81.1803C154.051 81.2865 153.902 81.4416 153.793 81.6455C153.687 81.8465 153.632 82.0891 153.629 82.3734ZM162.352 86.3275C161.683 86.3275 161.105 86.1854 160.617 85.9011C160.131 85.6139 159.757 85.2148 159.492 84.7036C159.228 84.1896 159.096 83.5938 159.096 82.9161C159.096 82.2327 159.228 81.6354 159.492 81.1243C159.757 80.6103 160.131 80.2112 160.617 79.9269C161.105 79.6397 161.683 79.4961 162.352 79.4961C163.021 79.4961 163.599 79.6397 164.084 79.9269C164.572 80.2112 164.948 80.6103 165.212 81.1243C165.477 81.6354 165.609 82.2327 165.609 82.9161C165.609 83.5938 165.477 84.1896 165.212 84.7036C164.948 85.2148 164.572 85.6139 164.084 85.9011C163.599 86.1854 163.021 86.3275 162.352 86.3275ZM162.361 84.9061C162.665 84.9061 162.92 84.8199 163.123 84.6477C163.327 84.4725 163.481 84.2342 163.584 83.9326C163.691 83.6311 163.744 83.288 163.744 82.9032C163.744 82.5184 163.691 82.1753 163.584 81.8738C163.481 81.5723 163.327 81.3339 163.123 81.1588C162.92 80.9836 162.665 80.896 162.361 80.896C162.054 80.896 161.795 80.9836 161.586 81.1588C161.379 81.3339 161.222 81.5723 161.116 81.8738C161.013 82.1753 160.961 82.5184 160.961 82.9032C160.961 83.288 161.013 83.6311 161.116 83.9326C161.222 84.2342 161.379 84.4725 161.586 84.6477C161.795 84.8199 162.054 84.9061 162.361 84.9061ZM166.802 86.1983V79.5823H168.581V80.7366H168.65C168.77 80.326 168.973 80.0159 169.257 79.8063C169.541 79.5938 169.869 79.4875 170.239 79.4875C170.331 79.4875 170.43 79.4933 170.536 79.5048C170.643 79.5162 170.736 79.532 170.816 79.5521V81.1803C170.73 81.1544 170.611 81.1315 170.459 81.1114C170.307 81.0913 170.167 81.0812 170.041 81.0812C169.771 81.0812 169.53 81.1401 169.317 81.2578C169.108 81.3727 168.941 81.5335 168.818 81.7402C168.697 81.947 168.637 82.1853 168.637 82.4552V86.1983H166.802ZM171.765 86.1983V79.5823H173.6V86.1983H171.765ZM172.687 78.7294C172.414 78.7294 172.18 78.639 171.985 78.4581C171.792 78.2743 171.696 78.0546 171.696 77.7991C171.696 77.5464 171.792 77.3296 171.985 77.1487C172.18 76.9649 172.414 76.873 172.687 76.873C172.959 76.873 173.192 76.9649 173.384 77.1487C173.58 77.3296 173.677 77.5464 173.677 77.7991C173.677 78.0546 173.58 78.2743 173.384 78.4581C173.192 78.639 172.959 78.7294 172.687 78.7294ZM178.589 79.5823V80.9606H174.604V79.5823H178.589ZM175.509 77.9972H177.344V84.1652C177.344 84.3347 177.37 84.4667 177.421 84.5615C177.473 84.6534 177.545 84.718 177.637 84.7553C177.732 84.7927 177.841 84.8113 177.964 84.8113C178.05 84.8113 178.136 84.8042 178.223 84.7898C178.309 84.7726 178.375 84.7596 178.421 84.751L178.709 86.1164C178.617 86.1452 178.488 86.1782 178.322 86.2155C178.155 86.2557 177.953 86.2801 177.714 86.2887C177.272 86.306 176.884 86.2471 176.551 86.1121C176.221 85.9772 175.964 85.7675 175.78 85.4833C175.597 85.199 175.506 84.84 175.509 84.4064V77.9972ZM180.917 88.6793C180.684 88.6793 180.466 88.6606 180.262 88.6233C180.061 88.5888 179.895 88.5443 179.762 88.4898L180.176 87.12C180.391 87.1861 180.585 87.222 180.757 87.2277C180.933 87.2335 181.083 87.1933 181.21 87.1071C181.339 87.021 181.444 86.8745 181.524 86.6678L181.632 86.3878L179.259 79.5823H181.188L182.558 84.4409H182.627L184.009 79.5823H185.952L183.381 86.9133C183.257 87.2694 183.089 87.5795 182.877 87.8437C182.667 88.1107 182.401 88.316 182.08 88.4596C181.758 88.606 181.371 88.6793 180.917 88.6793ZM194.518 79.9139C194.484 79.5665 194.336 79.2966 194.074 79.1042C193.813 78.9118 193.459 78.8156 193.011 78.8156C192.706 78.8156 192.449 78.8587 192.24 78.9448C192.03 79.0281 191.869 79.1444 191.757 79.2937C191.648 79.443 191.593 79.6124 191.593 79.802C191.588 79.9599 191.621 80.0977 191.693 80.2155C191.767 80.3332 191.869 80.4351 191.998 80.5213C192.128 80.6046 192.277 80.6778 192.446 80.7409C192.616 80.8013 192.797 80.8529 192.989 80.896L193.782 81.0855C194.166 81.1717 194.52 81.2865 194.841 81.4301C195.163 81.5737 195.441 81.7503 195.677 81.9599C195.912 82.1695 196.095 82.4165 196.224 82.7008C196.356 82.985 196.423 83.311 196.426 83.6785C196.423 84.2184 196.286 84.6864 196.013 85.0827C195.743 85.4761 195.352 85.7819 194.841 86.0001C194.333 86.2155 193.72 86.3232 193.002 86.3232C192.29 86.3232 191.67 86.2141 191.141 85.9958C190.616 85.7776 190.205 85.4546 189.909 85.0267C189.616 84.596 189.463 84.0633 189.448 83.4287H191.253C191.273 83.7245 191.358 83.9714 191.507 84.1695C191.66 84.3648 191.862 84.5127 192.115 84.6132C192.37 84.7108 192.659 84.7596 192.98 84.7596C193.296 84.7596 193.571 84.7137 193.803 84.6218C194.039 84.5299 194.221 84.4021 194.35 84.2385C194.479 84.0748 194.544 83.8867 194.544 83.6742C194.544 83.4761 194.485 83.3095 194.367 83.1746C194.253 83.0396 194.083 82.9247 193.859 82.83C193.638 82.7352 193.367 82.6491 193.045 82.5715L192.085 82.3303C191.341 82.1494 190.754 81.8666 190.323 81.4818C189.892 81.097 189.678 80.5787 189.681 79.9269C189.678 79.3928 189.82 78.9261 190.107 78.527C190.398 78.1279 190.795 77.8163 191.301 77.5923C191.806 77.3683 192.38 77.2564 193.024 77.2564C193.678 77.2564 194.25 77.3683 194.738 77.5923C195.229 77.8163 195.611 78.1279 195.884 78.527C196.156 78.9261 196.297 79.3885 196.306 79.9139H194.518ZM200.636 86.3275C199.958 86.3275 199.375 86.1839 198.887 85.8968C198.402 85.6067 198.028 85.2047 197.767 84.6907C197.508 84.1767 197.379 83.5852 197.379 82.9161C197.379 82.2384 197.51 81.644 197.771 81.1329C198.035 80.6189 198.41 80.2183 198.895 79.9312C199.381 79.6412 199.958 79.4961 200.627 79.4961C201.204 79.4961 201.71 79.601 202.143 79.8106C202.577 80.0202 202.92 80.3145 203.173 80.6936C203.425 81.0726 203.565 81.5177 203.59 82.0288H201.859C201.81 81.6986 201.681 81.433 201.471 81.232C201.264 81.0281 200.993 80.9262 200.657 80.9262C200.373 80.9262 200.124 81.0037 199.912 81.1588C199.702 81.3109 199.539 81.5335 199.421 81.8264C199.303 82.1193 199.244 82.4739 199.244 82.8903C199.244 83.3124 199.302 83.6713 199.417 83.9671C199.534 84.2629 199.699 84.4883 199.912 84.6433C200.124 84.7984 200.373 84.8759 200.657 84.8759C200.867 84.8759 201.055 84.8329 201.221 84.7467C201.391 84.6606 201.53 84.5357 201.639 84.372C201.751 84.2054 201.824 84.0059 201.859 83.7733H203.59C203.562 84.2787 203.424 84.7237 203.177 85.1085C202.933 85.4904 202.595 85.7891 202.165 86.0044C201.734 86.2198 201.224 86.3275 200.636 86.3275ZM207.754 86.3275C207.085 86.3275 206.507 86.1854 206.019 85.9011C205.533 85.6139 205.159 85.2148 204.894 84.7036C204.63 84.1896 204.498 83.5938 204.498 82.9161C204.498 82.2327 204.63 81.6354 204.894 81.1243C205.159 80.6103 205.533 80.2112 206.019 79.9269C206.507 79.6397 207.085 79.4961 207.754 79.4961C208.423 79.4961 209.001 79.6397 209.486 79.9269C209.974 80.2112 210.35 80.6103 210.614 81.1243C210.879 81.6354 211.011 82.2327 211.011 82.9161C211.011 83.5938 210.879 84.1896 210.614 84.7036C210.35 85.2148 209.974 85.6139 209.486 85.9011C209.001 86.1854 208.423 86.3275 207.754 86.3275ZM207.763 84.9061C208.067 84.9061 208.322 84.8199 208.525 84.6477C208.729 84.4725 208.883 84.2342 208.986 83.9326C209.093 83.6311 209.146 83.288 209.146 82.9032C209.146 82.5184 209.093 82.1753 208.986 81.8738C208.883 81.5723 208.729 81.3339 208.525 81.1588C208.322 80.9836 208.067 80.896 207.763 80.896C207.456 80.896 207.197 80.9836 206.988 81.1588C206.781 81.3339 206.624 81.5723 206.518 81.8738C206.415 82.1753 206.363 82.5184 206.363 82.9032C206.363 83.288 206.415 83.6311 206.518 83.9326C206.624 84.2342 206.781 84.4725 206.988 84.6477C207.197 84.8199 207.456 84.9061 207.763 84.9061ZM212.204 86.1983V79.5823H213.983V80.7366H214.052C214.172 80.326 214.375 80.0159 214.659 79.8063C214.943 79.5938 215.271 79.4875 215.641 79.4875C215.733 79.4875 215.832 79.4933 215.938 79.5048C216.045 79.5162 216.138 79.532 216.218 79.5521V81.1803C216.132 81.1544 216.013 81.1315 215.861 81.1114C215.709 81.0913 215.569 81.0812 215.443 81.0812C215.173 81.0812 214.932 81.1401 214.719 81.2578C214.51 81.3727 214.343 81.5335 214.22 81.7402C214.099 81.947 214.039 82.1853 214.039 82.4552V86.1983H212.204ZM219.874 86.3275C219.193 86.3275 218.608 86.1897 218.117 85.914C217.629 85.6355 217.252 85.2421 216.988 84.7338C216.724 84.2227 216.592 83.6182 216.592 82.9204C216.592 82.2399 216.724 81.6426 216.988 81.1286C217.252 80.6146 217.624 80.214 218.104 79.9269C218.586 79.6397 219.152 79.4961 219.801 79.4961C220.237 79.4961 220.644 79.5665 221.02 79.7072C221.399 79.845 221.729 80.0532 222.01 80.3318C222.295 80.6103 222.516 80.9606 222.674 81.3827C222.832 81.802 222.911 82.293 222.911 82.8558V83.3598H217.324V82.2227H221.183C221.183 81.9585 221.126 81.7244 221.011 81.5206C220.896 81.3167 220.737 81.1573 220.533 81.0425C220.332 80.9247 220.098 80.8659 219.831 80.8659C219.552 80.8659 219.305 80.9305 219.09 81.0597C218.878 81.186 218.711 81.3569 218.59 81.5723C218.47 81.7847 218.408 82.0216 218.405 82.283V83.3641C218.405 83.6914 218.466 83.9743 218.586 84.2126C218.71 84.451 218.883 84.6347 219.107 84.764C219.331 84.8932 219.597 84.9578 219.904 84.9578C220.108 84.9578 220.295 84.9291 220.464 84.8716C220.634 84.8142 220.779 84.7281 220.899 84.6132C221.02 84.4983 221.112 84.3576 221.175 84.1911L222.872 84.3031C222.786 84.7108 222.609 85.0669 222.342 85.3713C222.078 85.6728 221.736 85.9083 221.317 86.0777C220.901 86.2442 220.42 86.3275 219.874 86.3275Z" fill="#6A6C6A"/>
<path d="M136.105 94.5212H135.049C135.009 94.2956 134.933 94.097 134.822 93.9255C134.712 93.7541 134.576 93.6085 134.416 93.489C134.256 93.3694 134.077 93.2791 133.878 93.2182C133.682 93.1573 133.473 93.1268 133.252 93.1268C132.853 93.1268 132.495 93.2272 132.179 93.4281C131.866 93.6289 131.617 93.9233 131.435 94.3114C131.254 94.6994 131.164 95.1732 131.164 95.7328C131.164 96.2968 131.254 96.7729 131.435 97.1609C131.617 97.549 131.867 97.8423 132.183 98.0408C132.499 98.2394 132.854 98.3387 133.249 98.3387C133.468 98.3387 133.675 98.3093 133.871 98.2507C134.07 98.1898 134.249 98.1006 134.41 97.9833C134.57 97.866 134.705 97.7227 134.816 97.5535C134.928 97.382 135.006 97.1857 135.049 96.9646L136.105 96.968C136.049 97.3087 135.939 97.6223 135.777 97.9089C135.617 98.1931 135.41 98.4391 135.157 98.6466C134.907 98.8519 134.62 99.011 134.298 99.1238C133.975 99.2366 133.623 99.293 133.242 99.293C132.642 99.293 132.107 99.1509 131.638 98.8666C131.169 98.5801 130.798 98.1706 130.528 97.6381C130.259 97.1057 130.125 96.4705 130.125 95.7328C130.125 94.9927 130.26 94.3576 130.531 93.8274C130.802 93.2949 131.172 92.8866 131.641 92.6023C132.11 92.3157 132.644 92.1725 133.242 92.1725C133.61 92.1725 133.953 92.2255 134.271 92.3315C134.591 92.4353 134.879 92.5887 135.134 92.7918C135.389 92.9926 135.6 93.2385 135.767 93.5296C135.934 93.8184 136.046 94.1489 136.105 94.5212ZM138.287 96.1118V99.1983H137.275V92.2672H138.274V94.8461H138.338C138.46 94.5663 138.646 94.3441 138.896 94.1794C139.147 94.0147 139.474 93.9323 139.878 93.9323C140.234 93.9323 140.546 94.0056 140.812 94.1523C141.08 94.2989 141.288 94.5178 141.434 94.8088C141.583 95.0976 141.658 95.4586 141.658 95.8918V99.1983H140.646V96.0137C140.646 95.6324 140.548 95.3368 140.352 95.127C140.155 94.9149 139.882 94.8088 139.533 94.8088C139.293 94.8088 139.079 94.8596 138.889 94.9611C138.702 95.0627 138.554 95.2116 138.446 95.4079C138.34 95.6019 138.287 95.8365 138.287 96.1118ZM144.521 99.3133C144.192 99.3133 143.894 99.2524 143.628 99.1306C143.361 99.0065 143.15 98.8271 142.995 98.5925C142.841 98.3578 142.765 98.0702 142.765 97.7295C142.765 97.4362 142.821 97.1948 142.934 97.0053C143.047 96.8157 143.199 96.6657 143.391 96.5551C143.582 96.4446 143.797 96.3611 144.034 96.3047C144.271 96.2483 144.512 96.2054 144.758 96.1761C145.069 96.14 145.322 96.1107 145.516 96.0881C145.71 96.0633 145.851 96.0238 145.939 95.9697C146.027 95.9155 146.071 95.8275 146.071 95.7057V95.682C146.071 95.3864 145.987 95.1574 145.821 94.995C145.656 94.8325 145.41 94.7513 145.083 94.7513C144.742 94.7513 144.474 94.8269 144.277 94.9781C144.083 95.127 143.949 95.2928 143.875 95.4755L142.924 95.259C143.036 94.9431 143.201 94.6881 143.418 94.4941C143.637 94.2978 143.888 94.1557 144.172 94.0677C144.457 93.9774 144.756 93.9323 145.069 93.9323C145.277 93.9323 145.497 93.9571 145.729 94.0068C145.964 94.0541 146.183 94.1421 146.386 94.2707C146.591 94.3993 146.759 94.5832 146.89 94.8224C147.021 95.0593 147.086 95.3673 147.086 95.7463V99.1983H146.098V98.4876H146.057C145.992 98.6184 145.894 98.747 145.763 98.8734C145.632 98.9997 145.464 99.1046 145.259 99.1881C145.053 99.2716 144.807 99.3133 144.521 99.3133ZM144.741 98.5011C145.021 98.5011 145.26 98.4458 145.458 98.3353C145.659 98.2247 145.812 98.0803 145.915 97.9021C146.021 97.7216 146.074 97.5287 146.074 97.3234V96.6533C146.038 96.6894 145.968 96.7232 145.865 96.7548C145.763 96.7841 145.647 96.8101 145.516 96.8327C145.385 96.853 145.258 96.8721 145.134 96.8902C145.009 96.906 144.906 96.9195 144.822 96.9308C144.626 96.9556 144.447 96.9974 144.284 97.056C144.124 97.1147 143.995 97.1993 143.898 97.3098C143.803 97.4181 143.756 97.5625 143.756 97.743C143.756 97.9935 143.849 98.183 144.034 98.3116C144.219 98.4379 144.454 98.5011 144.741 98.5011ZM148.434 99.1983V94H149.412V94.8258H149.466C149.561 94.546 149.728 94.326 149.967 94.1658C150.209 94.0034 150.482 93.9222 150.786 93.9222C150.849 93.9222 150.924 93.9244 151.009 93.9289C151.097 93.9334 151.166 93.9391 151.216 93.9458V94.9138C151.175 94.9025 151.103 94.8901 150.999 94.8765C150.896 94.8607 150.792 94.8528 150.688 94.8528C150.449 94.8528 150.236 94.9036 150.048 95.0051C149.863 95.1044 149.717 95.2432 149.608 95.4214C149.5 95.5974 149.446 95.7982 149.446 96.0238V99.1983H148.434ZM154.825 94V94.8122H151.986V94H154.825ZM152.747 92.7546H153.759V97.672C153.759 97.8682 153.789 98.016 153.847 98.1153C153.906 98.2123 153.981 98.2789 154.074 98.315C154.169 98.3488 154.271 98.3657 154.382 98.3657C154.463 98.3657 154.534 98.3601 154.595 98.3488C154.656 98.3375 154.703 98.3285 154.737 98.3217L154.92 99.1577C154.861 99.1802 154.778 99.2028 154.67 99.2253C154.561 99.2502 154.426 99.2637 154.263 99.266C153.997 99.2705 153.749 99.2231 153.519 99.1238C153.289 99.0245 153.103 98.8711 152.961 98.6636C152.818 98.456 152.747 98.1954 152.747 97.8818V92.7546ZM162.328 94.088C162.292 93.7676 162.143 93.5194 161.882 93.3434C161.62 93.1652 161.29 93.0761 160.893 93.0761C160.609 93.0761 160.363 93.1212 160.156 93.2115C159.948 93.2994 159.787 93.4213 159.672 93.577C159.559 93.7304 159.502 93.9052 159.502 94.1015C159.502 94.2662 159.541 94.4084 159.617 94.5279C159.696 94.6475 159.799 94.7479 159.925 94.8291C160.054 94.9081 160.192 94.9747 160.338 95.0288C160.485 95.0807 160.626 95.1236 160.761 95.1574L161.438 95.3334C161.659 95.3876 161.886 95.4609 162.118 95.5534C162.351 95.6459 162.566 95.7677 162.765 95.9189C162.963 96.0701 163.124 96.2573 163.245 96.4807C163.37 96.704 163.432 96.9714 163.432 97.2828C163.432 97.6753 163.33 98.0239 163.127 98.3285C162.926 98.6331 162.634 98.8734 162.25 99.0494C161.869 99.2253 161.408 99.3133 160.866 99.3133C160.347 99.3133 159.898 99.231 159.519 99.0663C159.14 98.9016 158.844 98.6681 158.629 98.3657C158.415 98.0611 158.296 97.7002 158.274 97.2828H159.323C159.343 97.5332 159.425 97.7419 159.567 97.9089C159.711 98.0736 159.895 98.1965 160.118 98.2777C160.344 98.3567 160.591 98.3962 160.859 98.3962C161.155 98.3962 161.418 98.3499 161.648 98.2574C161.88 98.1627 162.063 98.0318 162.196 97.8649C162.329 97.6956 162.396 97.4982 162.396 97.2726C162.396 97.0673 162.337 96.8992 162.22 96.7683C162.105 96.6375 161.948 96.5292 161.75 96.4435C161.553 96.3577 161.331 96.2821 161.083 96.2167L160.264 95.9933C159.709 95.8422 159.269 95.6199 158.944 95.3266C158.621 95.0333 158.46 94.6453 158.46 94.1624C158.46 93.7631 158.568 93.4145 158.785 93.1167C159.002 92.8189 159.295 92.5876 159.665 92.4229C160.035 92.256 160.452 92.1725 160.917 92.1725C161.386 92.1725 161.8 92.2548 162.159 92.4195C162.52 92.5842 162.804 92.811 163.012 93.0998C163.219 93.3863 163.328 93.7157 163.337 94.088H162.328ZM166.79 99.3032C166.286 99.3032 165.853 99.1892 165.49 98.9614C165.129 98.7312 164.852 98.4142 164.658 98.0104C164.463 97.6065 164.366 97.144 164.366 96.6228C164.366 96.0949 164.466 95.629 164.664 95.2251C164.863 94.819 165.143 94.502 165.504 94.2741C165.865 94.0462 166.29 93.9323 166.779 93.9323C167.174 93.9323 167.526 94.0056 167.835 94.1523C168.144 94.2967 168.394 94.4997 168.583 94.7615C168.775 95.0232 168.889 95.3289 168.925 95.6786H167.94C167.886 95.4349 167.762 95.2251 167.568 95.0491C167.376 94.8731 167.119 94.7852 166.796 94.7852C166.514 94.7852 166.267 94.8596 166.055 95.0085C165.845 95.1552 165.682 95.365 165.564 95.638C165.447 95.9087 165.389 96.2291 165.389 96.5991C165.389 96.9782 165.446 97.3053 165.561 97.5806C165.676 97.8558 165.839 98.069 166.048 98.2202C166.261 98.3714 166.51 98.447 166.796 98.447C166.988 98.447 167.162 98.412 167.318 98.342C167.475 98.2698 167.607 98.1672 167.714 98.0341C167.822 97.901 167.897 97.7408 167.94 97.5535H168.925C168.889 97.8897 168.78 98.1898 168.597 98.4537C168.414 98.7177 168.169 98.9253 167.862 99.0764C167.558 99.2276 167.2 99.3032 166.79 99.3032ZM172.197 99.3032C171.71 99.3032 171.284 99.1915 170.921 98.9681C170.558 98.7448 170.276 98.4323 170.075 98.0307C169.874 97.6291 169.774 97.1598 169.774 96.6228C169.774 96.0836 169.874 95.612 170.075 95.2082C170.276 94.8043 170.558 94.4907 170.921 94.2674C171.284 94.044 171.71 93.9323 172.197 93.9323C172.684 93.9323 173.11 94.044 173.473 94.2674C173.836 94.4907 174.118 94.8043 174.319 95.2082C174.52 95.612 174.62 96.0836 174.62 96.6228C174.62 97.1598 174.52 97.6291 174.319 98.0307C174.118 98.4323 173.836 98.7448 173.473 98.9681C173.11 99.1915 172.684 99.3032 172.197 99.3032ZM172.2 98.4537C172.516 98.4537 172.778 98.3702 172.985 98.2033C173.193 98.0363 173.346 97.8141 173.446 97.5366C173.547 97.2591 173.598 96.9534 173.598 96.6194C173.598 96.2878 173.547 95.9832 173.446 95.7057C173.346 95.4259 173.193 95.2014 172.985 95.0322C172.778 94.863 172.516 94.7784 172.2 94.7784C171.882 94.7784 171.618 94.863 171.408 95.0322C171.201 95.2014 171.046 95.4259 170.945 95.7057C170.845 95.9832 170.796 96.2878 170.796 96.6194C170.796 96.9534 170.845 97.2591 170.945 97.5366C171.046 97.8141 171.201 98.0363 171.408 98.2033C171.618 98.3702 171.882 98.4537 172.2 98.4537ZM175.75 99.1983V94H176.728V94.8258H176.782C176.877 94.546 177.043 94.326 177.283 94.1658C177.524 94.0034 177.797 93.9222 178.102 93.9222C178.165 93.9222 178.239 93.9244 178.325 93.9289C178.413 93.9334 178.482 93.9391 178.531 93.9458V94.9138C178.491 94.9025 178.419 94.8901 178.315 94.8765C178.211 94.8607 178.107 94.8528 178.003 94.8528C177.764 94.8528 177.551 94.9036 177.364 95.0051C177.179 95.1044 177.032 95.2432 176.924 95.4214C176.816 95.5974 176.761 95.7982 176.761 96.0238V99.1983H175.75ZM181.461 99.3032C180.949 99.3032 180.508 99.1938 180.138 98.9749C179.77 98.7538 179.486 98.4436 179.285 98.0442C179.087 97.6426 178.987 97.1722 178.987 96.633C178.987 96.1005 179.087 95.6312 179.285 95.2251C179.486 94.819 179.766 94.502 180.125 94.2741C180.486 94.0462 180.907 93.9323 181.39 93.9323C181.684 93.9323 181.968 93.9808 182.243 94.0778C182.518 94.1749 182.765 94.3271 182.984 94.5347C183.203 94.7423 183.376 95.0119 183.502 95.3436C183.628 95.673 183.692 96.0734 183.692 96.545V96.9037H179.559V96.1456H182.7C182.7 95.8794 182.646 95.6436 182.538 95.4383C182.429 95.2308 182.277 95.0672 182.081 94.9476C181.887 94.828 181.659 94.7682 181.397 94.7682C181.113 94.7682 180.865 94.8382 180.653 94.9781C180.443 95.1157 180.28 95.2962 180.165 95.5195C180.052 95.7407 179.996 95.9809 179.996 96.2404V96.8327C179.996 97.1801 180.057 97.4757 180.179 97.7193C180.303 97.963 180.475 98.1491 180.697 98.2777C180.918 98.4041 181.176 98.4673 181.472 98.4673C181.663 98.4673 181.838 98.4402 181.996 98.386C182.154 98.3296 182.291 98.2462 182.406 98.1356C182.521 98.0251 182.609 97.8886 182.67 97.7261L183.627 97.8987C183.551 98.1807 183.413 98.4278 183.214 98.6399C183.018 98.8497 182.771 99.0133 182.473 99.1306C182.178 99.2457 181.84 99.3032 181.461 99.3032ZM185.491 99.2626C185.306 99.2626 185.147 99.1971 185.014 99.0663C184.881 98.9332 184.814 98.773 184.814 98.5857C184.814 98.4007 184.881 98.2428 185.014 98.1119C185.147 97.9788 185.306 97.9122 185.491 97.9122C185.676 97.9122 185.835 97.9788 185.968 98.1119C186.102 98.2428 186.168 98.4007 186.168 98.5857C186.168 98.7098 186.136 98.8237 186.073 98.9275C186.012 99.0291 185.931 99.1103 185.83 99.1712C185.728 99.2321 185.615 99.2626 185.491 99.2626ZM185.491 95.4789C185.306 95.4789 185.147 95.4124 185.014 95.2793C184.881 95.1461 184.814 94.9871 184.814 94.8021C184.814 94.6171 184.881 94.4591 185.014 94.3283C185.147 94.1952 185.306 94.1286 185.491 94.1286C185.676 94.1286 185.835 94.1952 185.968 94.3283C186.102 94.4591 186.168 94.6171 186.168 94.8021C186.168 94.9262 186.136 95.0401 186.073 95.1439C186.012 95.2454 185.931 95.3266 185.83 95.3876C185.728 95.4485 185.615 95.4789 185.491 95.4789ZM190.117 99.1983V92.2672H192.587C193.124 92.2672 193.57 92.3597 193.924 92.5448C194.281 92.7298 194.547 92.9858 194.723 93.313C194.899 93.6379 194.987 94.0135 194.987 94.44C194.987 94.8641 194.898 95.2375 194.719 95.5602C194.543 95.8805 194.277 96.1298 193.921 96.3081C193.566 96.4863 193.121 96.5754 192.584 96.5754H190.712V95.6752H192.489C192.828 95.6752 193.103 95.6267 193.315 95.5297C193.529 95.4327 193.686 95.2917 193.785 95.1067C193.885 94.9217 193.934 94.6994 193.934 94.44C193.934 94.1782 193.883 93.9515 193.782 93.7597C193.683 93.5679 193.526 93.4213 193.311 93.3198C193.099 93.216 192.821 93.1641 192.476 93.1641H191.162V99.1983H190.117ZM193.538 96.0712L195.251 99.1983H194.059L192.381 96.0712H193.538ZM198.302 99.3032C197.815 99.3032 197.39 99.1915 197.027 98.9681C196.663 98.7448 196.381 98.4323 196.181 98.0307C195.98 97.6291 195.879 97.1598 195.879 96.6228C195.879 96.0836 195.98 95.612 196.181 95.2082C196.381 94.8043 196.663 94.4907 197.027 94.2674C197.39 94.044 197.815 93.9323 198.302 93.9323C198.79 93.9323 199.215 94.044 199.578 94.2674C199.942 94.4907 200.224 94.8043 200.424 95.2082C200.625 95.612 200.726 96.0836 200.726 96.6228C200.726 97.1598 200.625 97.6291 200.424 98.0307C200.224 98.4323 199.942 98.7448 199.578 98.9681C199.215 99.1915 198.79 99.3032 198.302 99.3032ZM198.306 98.4537C198.622 98.4537 198.883 98.3702 199.091 98.2033C199.299 98.0363 199.452 97.8141 199.551 97.5366C199.653 97.2591 199.704 96.9534 199.704 96.6194C199.704 96.2878 199.653 95.9832 199.551 95.7057C199.452 95.4259 199.299 95.2014 199.091 95.0322C198.883 94.863 198.622 94.7784 198.306 94.7784C197.988 94.7784 197.724 94.863 197.514 95.0322C197.306 95.2014 197.152 95.4259 197.05 95.7057C196.951 95.9832 196.901 96.2878 196.901 96.6194C196.901 96.9534 196.951 97.2591 197.05 97.5366C197.152 97.8141 197.306 98.0363 197.514 98.2033C197.724 98.3702 197.988 98.4537 198.306 98.4537ZM204.045 99.3032C203.557 99.3032 203.132 99.1915 202.769 98.9681C202.406 98.7448 202.124 98.4323 201.923 98.0307C201.722 97.6291 201.622 97.1598 201.622 96.6228C201.622 96.0836 201.722 95.612 201.923 95.2082C202.124 94.8043 202.406 94.4907 202.769 94.2674C203.132 94.044 203.557 93.9323 204.045 93.9323C204.532 93.9323 204.957 94.044 205.321 94.2674C205.684 94.4907 205.966 94.8043 206.167 95.2082C206.368 95.612 206.468 96.0836 206.468 96.6228C206.468 97.1598 206.368 97.6291 206.167 98.0307C205.966 98.4323 205.684 98.7448 205.321 98.9681C204.957 99.1915 204.532 99.3032 204.045 99.3032ZM204.048 98.4537C204.364 98.4537 204.626 98.3702 204.833 98.2033C205.041 98.0363 205.194 97.8141 205.294 97.5366C205.395 97.2591 205.446 96.9534 205.446 96.6194C205.446 96.2878 205.395 95.9832 205.294 95.7057C205.194 95.4259 205.041 95.2014 204.833 95.0322C204.626 94.863 204.364 94.7784 204.048 94.7784C203.73 94.7784 203.466 94.863 203.256 95.0322C203.049 95.2014 202.894 95.4259 202.793 95.7057C202.693 95.9832 202.644 96.2878 202.644 96.6194C202.644 96.9534 202.693 97.2591 202.793 97.5366C202.894 97.8141 203.049 98.0363 203.256 98.2033C203.466 98.3702 203.73 98.4537 204.048 98.4537ZM210.024 94V94.8122H207.185V94H210.024ZM207.946 92.7546H208.958V97.672C208.958 97.8682 208.987 98.016 209.046 98.1153C209.105 98.2123 209.18 98.2789 209.273 98.315C209.367 98.3488 209.47 98.3657 209.581 98.3657C209.662 98.3657 209.733 98.3601 209.794 98.3488C209.855 98.3375 209.902 98.3285 209.936 98.3217L210.119 99.1577C210.06 99.1802 209.977 99.2028 209.868 99.2253C209.76 99.2502 209.625 99.2637 209.462 99.266C209.196 99.2705 208.948 99.2231 208.718 99.1238C208.488 99.0245 208.301 98.8711 208.159 98.6636C208.017 98.456 207.946 98.1954 207.946 97.8818V92.7546ZM215.99 99.1983H213.747V92.2672H216.062C216.741 92.2672 217.324 92.406 217.811 92.6835C218.299 92.9588 218.672 93.3547 218.931 93.8714C219.193 94.3858 219.324 95.0029 219.324 95.7226C219.324 96.4446 219.192 97.065 218.928 97.584C218.666 98.1029 218.287 98.5022 217.791 98.782C217.295 99.0595 216.694 99.1983 215.99 99.1983ZM214.792 98.2845H215.933C216.461 98.2845 216.9 98.1852 217.249 97.9867C217.599 97.7859 217.861 97.496 218.035 97.1169C218.208 96.7356 218.295 96.2709 218.295 95.7226C218.295 95.1789 218.208 94.7175 218.035 94.3384C217.863 93.9594 217.607 93.6717 217.266 93.4754C216.926 93.2791 216.503 93.181 215.997 93.181H214.792V98.2845ZM222.733 99.3032C222.246 99.3032 221.82 99.1915 221.457 98.9681C221.094 98.7448 220.812 98.4323 220.611 98.0307C220.41 97.6291 220.31 97.1598 220.31 96.6228C220.31 96.0836 220.41 95.612 220.611 95.2082C220.812 94.8043 221.094 94.4907 221.457 94.2674C221.82 94.044 222.246 93.9323 222.733 93.9323C223.22 93.9323 223.645 94.044 224.009 94.2674C224.372 94.4907 224.654 94.8043 224.855 95.2082C225.056 95.612 225.156 96.0836 225.156 96.6228C225.156 97.1598 225.056 97.6291 224.855 98.0307C224.654 98.4323 224.372 98.7448 224.009 98.9681C223.645 99.1915 223.22 99.3032 222.733 99.3032ZM222.736 98.4537C223.052 98.4537 223.314 98.3702 223.521 98.2033C223.729 98.0363 223.882 97.8141 223.982 97.5366C224.083 97.2591 224.134 96.9534 224.134 96.6194C224.134 96.2878 224.083 95.9832 223.982 95.7057C223.882 95.4259 223.729 95.2014 223.521 95.0322C223.314 94.863 223.052 94.7784 222.736 94.7784C222.418 94.7784 222.154 94.863 221.944 95.0322C221.737 95.2014 221.582 95.4259 221.481 95.7057C221.381 95.9832 221.332 96.2878 221.332 96.6194C221.332 96.9534 221.381 97.2591 221.481 97.5366C221.582 97.8141 221.737 98.0363 221.944 98.2033C222.154 98.3702 222.418 98.4537 222.736 98.4537ZM226.286 99.1983V94H227.257V94.8461H227.321C227.429 94.5595 227.607 94.3362 227.852 94.176C228.098 94.0135 228.393 93.9323 228.736 93.9323C229.083 93.9323 229.374 94.0135 229.609 94.176C229.846 94.3384 230.021 94.5618 230.133 94.8461H230.188C230.312 94.5686 230.509 94.3475 230.78 94.1827C231.051 94.0158 231.373 93.9323 231.748 93.9323C232.219 93.9323 232.604 94.0801 232.902 94.3757C233.202 94.6712 233.352 95.1168 233.352 95.7124V99.1983H232.34V95.8072C232.34 95.4552 232.244 95.2003 232.052 95.0424C231.861 94.8844 231.632 94.8055 231.365 94.8055C231.036 94.8055 230.78 94.907 230.597 95.11C230.414 95.3108 230.323 95.5692 230.323 95.885V99.1983H229.314V95.7429C229.314 95.4609 229.226 95.2341 229.05 95.0627C228.874 94.8912 228.645 94.8055 228.363 94.8055C228.172 94.8055 227.995 94.8562 227.832 94.9578C227.672 95.057 227.542 95.1958 227.443 95.374C227.346 95.5523 227.297 95.7587 227.297 95.9933V99.1983H226.286ZM236.221 99.3133C235.892 99.3133 235.594 99.2524 235.327 99.1306C235.061 99.0065 234.85 98.8271 234.695 98.5925C234.541 98.3578 234.464 98.0702 234.464 97.7295C234.464 97.4362 234.521 97.1948 234.634 97.0053C234.747 96.8157 234.899 96.6657 235.091 96.5551C235.282 96.4446 235.497 96.3611 235.734 96.3047C235.971 96.2483 236.212 96.2054 236.458 96.1761C236.769 96.14 237.022 96.1107 237.216 96.0881C237.41 96.0633 237.551 96.0238 237.639 95.9697C237.727 95.9155 237.771 95.8275 237.771 95.7057V95.682C237.771 95.3864 237.687 95.1574 237.521 94.995C237.356 94.8325 237.11 94.7513 236.783 94.7513C236.442 94.7513 236.174 94.8269 235.977 94.9781C235.783 95.127 235.649 95.2928 235.575 95.4755L234.624 95.259C234.736 94.9431 234.901 94.6881 235.118 94.4941C235.337 94.2978 235.588 94.1557 235.872 94.0677C236.157 93.9774 236.456 93.9323 236.769 93.9323C236.977 93.9323 237.197 93.9571 237.429 94.0068C237.664 94.0541 237.883 94.1421 238.086 94.2707C238.291 94.3993 238.459 94.5832 238.59 94.8224C238.721 95.0593 238.786 95.3673 238.786 95.7463V99.1983H237.798V98.4876H237.757C237.692 98.6184 237.594 98.747 237.463 98.8734C237.332 98.9997 237.164 99.1046 236.959 99.1881C236.753 99.2716 236.507 99.3133 236.221 99.3133ZM236.441 98.5011C236.721 98.5011 236.96 98.4458 237.158 98.3353C237.359 98.2247 237.511 98.0803 237.615 97.9021C237.721 97.7216 237.774 97.5287 237.774 97.3234V96.6533C237.738 96.6894 237.668 96.7232 237.565 96.7548C237.463 96.7841 237.347 96.8101 237.216 96.8327C237.085 96.853 236.958 96.8721 236.834 96.8902C236.709 96.906 236.606 96.9195 236.522 96.9308C236.326 96.9556 236.146 96.9974 235.984 97.056C235.824 97.1147 235.695 97.1993 235.598 97.3098C235.503 97.4181 235.456 97.5625 235.456 97.743C235.456 97.9935 235.549 98.183 235.734 98.3116C235.919 98.4379 236.154 98.5011 236.441 98.5011ZM240.134 99.1983V94H241.146V99.1983H240.134ZM240.645 93.1979C240.469 93.1979 240.318 93.1393 240.192 93.0219C240.067 92.9024 240.005 92.7602 240.005 92.5955C240.005 92.4286 240.067 92.2864 240.192 92.1691C240.318 92.0495 240.469 91.9897 240.645 91.9897C240.821 91.9897 240.971 92.0495 241.095 92.1691C241.222 92.2864 241.285 92.4286 241.285 92.5955C241.285 92.7602 241.222 92.9024 241.095 93.0219C240.971 93.1393 240.821 93.1979 240.645 93.1979ZM243.519 96.1118V99.1983H242.507V94H243.479V94.8461H243.543C243.662 94.5708 243.85 94.3497 244.105 94.1827C244.362 94.0158 244.686 93.9323 245.076 93.9323C245.43 93.9323 245.74 94.0068 246.007 94.1557C246.273 94.3023 246.479 94.5212 246.626 94.8122C246.773 95.1033 246.846 95.4631 246.846 95.8918V99.1983H245.834V96.0137C245.834 95.6369 245.736 95.3424 245.54 95.1304C245.343 94.916 245.074 94.8088 244.731 94.8088C244.496 94.8088 244.287 94.8596 244.105 94.9611C243.924 95.0627 243.781 95.2116 243.675 95.4079C243.571 95.6019 243.519 95.8365 243.519 96.1118Z" fill="#000300" fill-opacity="0.584314"/>
<rect x="129.587" y="122.259" width="10.3966" height="10.3966" rx="3.46552" fill="#FFA1A1"/>
<rect x="143.449" y="123.991" width="34.6552" height="6.93103" rx="3.46552" fill="#DDDEDE"/>
<rect x="188.501" y="122.259" width="10.3966" height="10.3966" rx="3.46552" fill="#DC30D5"/>
<rect x="203.229" y="123.991" width="34.6552" height="6.93103" rx="3.46552" fill="#DDDEDE"/>
<rect x="248.281" y="122.259" width="10.3966" height="10.3966" rx="3.46552" fill="#FFD495"/>
<rect x="263.01" y="123.991" width="34.6552" height="6.93103" rx="3.46552" fill="#DDDEDE"/>
<rect x="129.587" y="143.052" width="259.914" height="0.866379" fill="#DDDEDE"/>
<rect x="129.587" y="167.022" width="259.914" height="0.866379" fill="#DDDEDE"/>
<rect x="129.587" y="190.992" width="259.914" height="0.866379" fill="#DDDEDE"/>
<rect x="129.587" y="214.961" width="259.914" height="0.866379" fill="#C3C4C4"/>
<path d="M135.943 224.459V231.39H134.981L131.458 226.307H131.394V231.39H130.348V224.459H131.316L134.843 229.549H134.907V224.459H135.943ZM139.577 231.495C139.089 231.495 138.664 231.384 138.301 231.16C137.937 230.937 137.655 230.624 137.455 230.223C137.254 229.821 137.153 229.352 137.153 228.815C137.153 228.276 137.254 227.804 137.455 227.4C137.655 226.996 137.937 226.683 138.301 226.459C138.664 226.236 139.089 226.124 139.577 226.124C140.064 226.124 140.489 226.236 140.852 226.459C141.216 226.683 141.498 226.996 141.698 227.4C141.899 227.804 142 228.276 142 228.815C142 229.352 141.899 229.821 141.698 230.223C141.498 230.624 141.216 230.937 140.852 231.16C140.489 231.384 140.064 231.495 139.577 231.495ZM139.58 230.646C139.896 230.646 140.157 230.562 140.365 230.395C140.573 230.228 140.726 230.006 140.825 229.729C140.927 229.451 140.978 229.145 140.978 228.811C140.978 228.48 140.927 228.175 140.825 227.898C140.726 227.618 140.573 227.393 140.365 227.224C140.157 227.055 139.896 226.97 139.58 226.97C139.262 226.97 138.998 227.055 138.788 227.224C138.58 227.393 138.426 227.618 138.324 227.898C138.225 228.175 138.175 228.48 138.175 228.811C138.175 229.145 138.225 229.451 138.324 229.729C138.426 230.006 138.58 230.228 138.788 230.395C138.998 230.562 139.262 230.646 139.58 230.646ZM147.399 226.192L145.514 231.39H144.431L142.543 226.192H143.629L144.946 230.192H145L146.313 226.192H147.399ZM151.075 231.39V230.632L153.421 228.202C153.671 227.938 153.878 227.707 154.04 227.509C154.205 227.308 154.328 227.117 154.409 226.937C154.49 226.756 154.531 226.564 154.531 226.361C154.531 226.131 154.477 225.933 154.368 225.766C154.26 225.596 154.112 225.467 153.925 225.376C153.738 225.284 153.527 225.238 153.292 225.238C153.044 225.238 152.827 225.288 152.642 225.39C152.457 225.491 152.315 225.635 152.216 225.82C152.117 226.005 152.067 226.221 152.067 226.47H151.069C151.069 226.048 151.166 225.679 151.36 225.363C151.554 225.047 151.82 224.802 152.158 224.628C152.497 224.453 152.882 224.365 153.313 224.365C153.748 224.365 154.132 224.451 154.463 224.625C154.797 224.797 155.058 225.031 155.245 225.329C155.432 225.625 155.526 225.959 155.526 226.331C155.526 226.588 155.477 226.84 155.38 227.085C155.286 227.331 155.12 227.606 154.883 227.908C154.646 228.208 154.317 228.572 153.895 229.001L152.517 230.443V230.493H155.638V231.39H151.075ZM159.615 231.505C159.08 231.503 158.623 231.362 158.244 231.082C157.865 230.803 157.575 230.395 157.375 229.861C157.174 229.326 157.073 228.682 157.073 227.928C157.073 227.177 157.174 226.535 157.375 226.003C157.578 225.47 157.869 225.064 158.248 224.784C158.629 224.504 159.085 224.365 159.615 224.365C160.145 224.365 160.6 224.506 160.979 224.788C161.358 225.067 161.648 225.473 161.849 226.006C162.052 226.536 162.153 227.177 162.153 227.928C162.153 228.684 162.053 229.329 161.852 229.864C161.651 230.396 161.361 230.804 160.982 231.086C160.603 231.365 160.147 231.505 159.615 231.505ZM159.615 230.602C160.084 230.602 160.451 230.373 160.715 229.915C160.981 229.457 161.114 228.795 161.114 227.928C161.114 227.353 161.053 226.867 160.931 226.47C160.812 226.07 160.639 225.768 160.414 225.563C160.19 225.355 159.924 225.251 159.615 225.251C159.148 225.251 158.781 225.481 158.515 225.942C158.249 226.402 158.115 227.064 158.112 227.928C158.112 228.506 158.172 228.994 158.292 229.394C158.413 229.791 158.586 230.092 158.809 230.297C159.033 230.5 159.301 230.602 159.615 230.602Z" fill="#000300" fill-opacity="0.584314"/>
<path d="M213.578 231.39H211.334V224.459H213.649C214.328 224.459 214.911 224.598 215.398 224.876C215.886 225.151 216.259 225.547 216.518 226.063C216.78 226.578 216.911 227.195 216.911 227.915C216.911 228.637 216.779 229.257 216.515 229.776C216.253 230.295 215.874 230.694 215.378 230.974C214.882 231.252 214.281 231.39 213.578 231.39ZM212.38 230.477H213.52C214.048 230.477 214.487 230.377 214.837 230.179C215.186 229.978 215.448 229.688 215.622 229.309C215.795 228.928 215.882 228.463 215.882 227.915C215.882 227.371 215.795 226.909 215.622 226.53C215.45 226.151 215.194 225.864 214.853 225.667C214.513 225.471 214.09 225.373 213.584 225.373H212.38V230.477ZM220.371 231.495C219.859 231.495 219.417 231.386 219.047 231.167C218.68 230.946 218.395 230.636 218.195 230.236C217.996 229.835 217.897 229.364 217.897 228.825C217.897 228.293 217.996 227.823 218.195 227.417C218.395 227.011 218.675 226.694 219.034 226.466C219.395 226.238 219.817 226.124 220.3 226.124C220.593 226.124 220.877 226.173 221.152 226.27C221.428 226.367 221.675 226.519 221.894 226.727C222.112 226.934 222.285 227.204 222.411 227.536C222.538 227.865 222.601 228.265 222.601 228.737V229.096H218.469V228.338H221.609C221.609 228.071 221.555 227.836 221.447 227.63C221.339 227.423 221.186 227.259 220.99 227.14C220.796 227.02 220.568 226.96 220.306 226.96C220.022 226.96 219.774 227.03 219.562 227.17C219.352 227.308 219.19 227.488 219.074 227.712C218.962 227.933 218.905 228.173 218.905 228.432V229.025C218.905 229.372 218.966 229.668 219.088 229.911C219.212 230.155 219.385 230.341 219.606 230.47C219.827 230.596 220.085 230.659 220.381 230.659C220.573 230.659 220.747 230.632 220.905 230.578C221.063 230.522 221.2 230.438 221.315 230.328C221.43 230.217 221.518 230.081 221.579 229.918L222.537 230.091C222.46 230.373 222.322 230.62 222.124 230.832C221.927 231.042 221.68 231.205 221.383 231.323C221.087 231.438 220.75 231.495 220.371 231.495ZM225.913 231.495C225.41 231.495 224.977 231.381 224.614 231.153C224.253 230.923 223.975 230.606 223.781 230.202C223.587 229.799 223.49 229.336 223.49 228.815C223.49 228.287 223.589 227.821 223.788 227.417C223.987 227.011 224.266 226.694 224.627 226.466C224.988 226.238 225.414 226.124 225.903 226.124C226.298 226.124 226.65 226.198 226.959 226.344C227.268 226.489 227.517 226.692 227.707 226.953C227.899 227.215 228.013 227.521 228.049 227.871H227.064C227.01 227.627 226.886 227.417 226.692 227.241C226.5 227.065 226.243 226.977 225.92 226.977C225.638 226.977 225.391 227.052 225.179 227.201C224.969 227.347 224.806 227.557 224.688 227.83C224.571 228.101 224.512 228.421 224.512 228.791C224.512 229.17 224.57 229.497 224.685 229.773C224.8 230.048 224.962 230.261 225.172 230.412C225.384 230.563 225.634 230.639 225.92 230.639C226.112 230.639 226.286 230.604 226.441 230.534C226.599 230.462 226.731 230.359 226.837 230.226C226.946 230.093 227.021 229.933 227.064 229.746H228.049C228.013 230.082 227.903 230.382 227.721 230.646C227.538 230.91 227.293 231.117 226.986 231.268C226.682 231.42 226.324 231.495 225.913 231.495ZM231.856 231.39V230.632L234.201 228.202C234.452 227.938 234.658 227.707 234.821 227.509C234.985 227.308 235.108 227.117 235.19 226.937C235.271 226.756 235.311 226.564 235.311 226.361C235.311 226.131 235.257 225.933 235.149 225.766C235.041 225.596 234.893 225.467 234.706 225.376C234.518 225.284 234.307 225.238 234.073 225.238C233.825 225.238 233.608 225.288 233.423 225.39C233.238 225.491 233.096 225.635 232.997 225.82C232.897 226.005 232.848 226.221 232.848 226.47H231.849C231.849 226.048 231.946 225.679 232.14 225.363C232.334 225.047 232.601 224.802 232.939 224.628C233.278 224.453 233.662 224.365 234.093 224.365C234.529 224.365 234.912 224.451 235.244 224.625C235.578 224.797 235.838 225.031 236.026 225.329C236.213 225.625 236.306 225.959 236.306 226.331C236.306 226.588 236.258 226.84 236.161 227.085C236.066 227.331 235.9 227.606 235.663 227.908C235.427 228.208 235.097 228.572 234.675 229.001L233.298 230.443V230.493H236.418V231.39H231.856ZM240.396 231.505C239.861 231.503 239.404 231.362 239.025 231.082C238.646 230.803 238.356 230.395 238.155 229.861C237.954 229.326 237.854 228.682 237.854 227.928C237.854 227.177 237.954 226.535 238.155 226.003C238.358 225.47 238.649 225.064 239.028 224.784C239.41 224.504 239.865 224.365 240.396 224.365C240.926 224.365 241.38 224.506 241.759 224.788C242.138 225.067 242.428 225.473 242.629 226.006C242.832 226.536 242.934 227.177 242.934 227.928C242.934 228.684 242.833 229.329 242.633 229.864C242.432 230.396 242.142 230.804 241.763 231.086C241.384 231.365 240.928 231.505 240.396 231.505ZM240.396 230.602C240.865 230.602 241.231 230.373 241.495 229.915C241.762 229.457 241.895 228.795 241.895 227.928C241.895 227.353 241.834 226.867 241.712 226.47C241.592 226.07 241.42 225.768 241.194 225.563C240.971 225.355 240.705 225.251 240.396 225.251C239.929 225.251 239.562 225.481 239.296 225.942C239.029 226.402 238.895 227.064 238.893 227.928C238.893 228.506 238.953 228.994 239.072 229.394C239.194 229.791 239.367 230.092 239.59 230.297C239.813 230.5 240.082 230.602 240.396 230.602Z" fill="#000300" fill-opacity="0.584314"/>
<path d="M279.755 224.459H280.798V229.373C280.798 229.818 280.71 230.198 280.534 230.514C280.36 230.83 280.115 231.071 279.799 231.238C279.484 231.403 279.113 231.485 278.689 231.485C278.299 231.485 277.948 231.414 277.637 231.272C277.328 231.13 277.083 230.923 276.902 230.653C276.724 230.38 276.635 230.048 276.635 229.658H277.674C277.674 229.849 277.718 230.015 277.806 230.155C277.896 230.295 278.019 230.404 278.175 230.483C278.333 230.56 278.513 230.598 278.716 230.598C278.938 230.598 279.125 230.552 279.278 230.46C279.434 230.365 279.552 230.226 279.634 230.043C279.715 229.861 279.755 229.637 279.755 229.373V224.459ZM283.751 231.505C283.422 231.505 283.124 231.444 282.858 231.323C282.592 231.199 282.381 231.019 282.225 230.785C282.072 230.55 281.995 230.262 281.995 229.922C281.995 229.628 282.051 229.387 282.164 229.197C282.277 229.008 282.429 228.858 282.621 228.747C282.813 228.637 283.027 228.553 283.264 228.497C283.501 228.44 283.742 228.397 283.988 228.368C284.3 228.332 284.552 228.303 284.746 228.28C284.94 228.255 285.081 228.216 285.169 228.162C285.257 228.108 285.301 228.02 285.301 227.898V227.874C285.301 227.578 285.218 227.349 285.051 227.187C284.886 227.025 284.64 226.943 284.313 226.943C283.972 226.943 283.704 227.019 283.508 227.17C283.314 227.319 283.179 227.485 283.105 227.668L282.154 227.451C282.267 227.135 282.432 226.88 282.648 226.686C282.867 226.49 283.119 226.348 283.403 226.26C283.687 226.169 283.986 226.124 284.3 226.124C284.507 226.124 284.727 226.149 284.96 226.199C285.194 226.246 285.413 226.334 285.616 226.463C285.821 226.591 285.99 226.775 286.12 227.014C286.251 227.251 286.317 227.559 286.317 227.938V231.39H285.328V230.68H285.288C285.222 230.81 285.124 230.939 284.993 231.065C284.863 231.192 284.694 231.297 284.489 231.38C284.284 231.464 284.038 231.505 283.751 231.505ZM283.971 230.693C284.251 230.693 284.49 230.638 284.689 230.527C284.89 230.417 285.042 230.272 285.146 230.094C285.252 229.914 285.305 229.721 285.305 229.515V228.845C285.269 228.881 285.199 228.915 285.095 228.947C284.993 228.976 284.877 229.002 284.746 229.025C284.616 229.045 284.488 229.064 284.364 229.082C284.24 229.098 284.136 229.112 284.053 229.123C283.856 229.148 283.677 229.189 283.514 229.248C283.354 229.307 283.226 229.391 283.129 229.502C283.034 229.61 282.987 229.755 282.987 229.935C282.987 230.185 283.079 230.375 283.264 230.504C283.449 230.63 283.685 230.693 283.971 230.693ZM288.676 228.304V231.39H287.664V226.192H288.636V227.038H288.7C288.82 226.763 289.007 226.542 289.262 226.375C289.519 226.208 289.843 226.124 290.233 226.124C290.587 226.124 290.898 226.199 291.164 226.348C291.43 226.494 291.637 226.713 291.783 227.004C291.93 227.295 292.003 227.655 292.003 228.084V231.39H290.991V228.206C290.991 227.829 290.893 227.534 290.697 227.322C290.501 227.108 290.231 227.001 289.888 227.001C289.653 227.001 289.445 227.052 289.262 227.153C289.081 227.255 288.938 227.404 288.832 227.6C288.728 227.794 288.676 228.029 288.676 228.304ZM296.085 231.39V230.632L298.431 228.202C298.681 227.938 298.888 227.707 299.05 227.509C299.215 227.308 299.338 227.117 299.419 226.937C299.5 226.756 299.541 226.564 299.541 226.361C299.541 226.131 299.487 225.933 299.378 225.766C299.27 225.596 299.122 225.467 298.935 225.376C298.748 225.284 298.537 225.238 298.302 225.238C298.054 225.238 297.837 225.288 297.652 225.39C297.467 225.491 297.325 225.635 297.226 225.82C297.127 226.005 297.077 226.221 297.077 226.47H296.079C296.079 226.048 296.176 225.679 296.37 225.363C296.564 225.047 296.83 224.802 297.168 224.628C297.507 224.453 297.892 224.365 298.322 224.365C298.758 224.365 299.141 224.451 299.473 224.625C299.807 224.797 300.068 225.031 300.255 225.329C300.442 225.625 300.536 225.959 300.536 226.331C300.536 226.588 300.487 226.84 300.39 227.085C300.295 227.331 300.13 227.606 299.893 227.908C299.656 228.208 299.326 228.572 298.905 229.001L297.527 230.443V230.493H300.647V231.39H296.085ZM305.688 224.459V231.39H304.638V225.508H304.598L302.939 226.591V225.59L304.669 224.459H305.688Z" fill="#000300" fill-opacity="0.584314"/>
<path d="M358.414 231.39V224.459H362.713V225.359H359.46V227.471H362.405V228.368H359.46V231.39H358.414ZM365.776 231.495C365.264 231.495 364.823 231.386 364.453 231.167C364.085 230.946 363.801 230.636 363.6 230.236C363.402 229.835 363.302 229.364 363.302 228.825C363.302 228.293 363.402 227.823 363.6 227.417C363.801 227.011 364.081 226.694 364.439 226.466C364.8 226.238 365.222 226.124 365.705 226.124C365.998 226.124 366.283 226.173 366.558 226.27C366.833 226.367 367.08 226.519 367.299 226.727C367.518 226.934 367.691 227.204 367.817 227.536C367.943 227.865 368.006 228.265 368.006 228.737V229.096H363.874V228.338H367.015C367.015 228.071 366.961 227.836 366.852 227.63C366.744 227.423 366.592 227.259 366.395 227.14C366.201 227.02 365.974 226.96 365.712 226.96C365.428 226.96 365.179 227.03 364.967 227.17C364.757 227.308 364.595 227.488 364.48 227.712C364.367 227.933 364.311 228.173 364.311 228.432V229.025C364.311 229.372 364.372 229.668 364.494 229.911C364.618 230.155 364.79 230.341 365.011 230.47C365.232 230.596 365.491 230.659 365.786 230.659C365.978 230.659 366.153 230.632 366.311 230.578C366.469 230.522 366.605 230.438 366.72 230.328C366.835 230.217 366.923 230.081 366.984 229.918L367.942 230.091C367.865 230.373 367.728 230.62 367.529 230.832C367.333 231.042 367.086 231.205 366.788 231.323C366.493 231.438 366.155 231.495 365.776 231.495ZM369.21 231.39V224.459H370.222V227.035H370.283C370.342 226.926 370.426 226.801 370.537 226.659C370.648 226.517 370.801 226.393 370.997 226.287C371.194 226.178 371.453 226.124 371.776 226.124C372.195 226.124 372.57 226.23 372.899 226.442C373.229 226.655 373.487 226.96 373.674 227.36C373.864 227.759 373.959 228.24 373.959 228.801C373.959 229.363 373.865 229.845 373.678 230.246C373.49 230.646 373.233 230.954 372.906 231.17C372.579 231.385 372.205 231.492 371.786 231.492C371.47 231.492 371.212 231.439 371.011 231.333C370.812 231.227 370.657 231.103 370.544 230.96C370.431 230.818 370.344 230.692 370.283 230.581H370.199V231.39H369.21ZM370.202 228.791C370.202 229.157 370.255 229.477 370.361 229.752C370.467 230.028 370.62 230.243 370.821 230.399C371.022 230.552 371.268 230.629 371.559 230.629C371.861 230.629 372.114 230.549 372.317 230.389C372.52 230.226 372.674 230.006 372.777 229.729C372.883 229.451 372.936 229.139 372.936 228.791C372.936 228.448 372.885 228.14 372.781 227.867C372.679 227.594 372.526 227.379 372.321 227.221C372.117 227.063 371.864 226.984 371.559 226.984C371.266 226.984 371.018 227.06 370.815 227.211C370.614 227.362 370.461 227.573 370.358 227.844C370.254 228.114 370.202 228.43 370.202 228.791ZM377.82 231.39V230.632L380.165 228.202C380.416 227.938 380.622 227.707 380.785 227.509C380.949 227.308 381.072 227.117 381.154 226.937C381.235 226.756 381.275 226.564 381.275 226.361C381.275 226.131 381.221 225.933 381.113 225.766C381.005 225.596 380.857 225.467 380.67 225.376C380.482 225.284 380.271 225.238 380.037 225.238C379.789 225.238 379.572 225.288 379.387 225.39C379.202 225.491 379.06 225.635 378.961 225.82C378.861 226.005 378.812 226.221 378.812 226.47H377.813C377.813 226.048 377.91 225.679 378.104 225.363C378.298 225.047 378.565 224.802 378.903 224.628C379.241 224.453 379.626 224.365 380.057 224.365C380.492 224.365 380.876 224.451 381.208 224.625C381.542 224.797 381.802 225.031 381.989 225.329C382.177 225.625 382.27 225.959 382.27 226.331C382.27 226.588 382.222 226.84 382.125 227.085C382.03 227.331 381.864 227.606 381.627 227.908C381.39 228.208 381.061 228.572 380.639 229.001L379.262 230.443V230.493H382.382V231.39H377.82ZM387.422 224.459V231.39H386.373V225.508H386.332L384.674 226.591V225.59L386.403 224.459H387.422Z" fill="#000300" fill-opacity="0.584314"/>
<g clip-path="url(#clip12_366_5750)">
<path d="M129.587 209.166C131.32 208.766 134.787 207.168 138.254 207.168C141.72 207.168 141.72 209.703 146.92 209.166C152.12 208.629 159.054 205.421 164.254 204.484C169.454 203.548 169.454 203.947 172.92 204.484C176.387 205.021 178.12 207.168 181.587 207.168C185.054 207.168 186.787 204.484 190.254 204.484C193.72 204.484 195.454 207.476 198.92 207.168C202.387 206.859 202.387 203.788 207.587 202.942C212.787 202.097 219.72 202.634 224.92 202.942C230.12 203.251 230.12 204.758 233.587 204.484C237.054 204.21 238.787 201.88 242.254 201.572C245.72 201.264 245.72 202.668 250.92 202.942C256.12 203.217 263.054 203.217 268.254 202.942C273.454 202.668 271.72 201.572 276.92 201.572C282.12 201.572 289.054 202.132 294.254 202.942C299.454 203.753 297.72 205.089 302.92 205.626C308.12 206.163 315.054 206.163 320.254 205.626C325.454 205.089 325.454 203.479 328.92 202.942C332.387 202.406 330.654 204.016 337.587 202.942C344.52 201.869 356.654 198.158 363.587 197.575C370.52 196.993 368.787 200.031 372.254 200.031C375.72 200.031 377.454 198.066 380.92 197.575C384.387 197.084 387.854 197.575 389.587 197.575" stroke="#FFD495" stroke-width="2.59914" stroke-linecap="round"/>
<path d="M129.587 193.712C131.32 192.566 134.787 187.983 138.254 187.983C141.72 187.983 141.72 195.25 146.92 193.712C152.12 192.173 159.054 182.974 164.254 180.29C169.454 177.606 169.454 178.751 172.92 180.29C176.387 181.829 178.12 187.983 181.587 187.983C185.054 187.983 186.787 180.29 190.254 180.29C193.72 180.29 195.454 188.867 198.92 187.983C202.387 187.099 202.387 178.293 207.587 175.871C212.787 173.448 219.72 174.987 224.92 175.871C230.12 176.755 230.12 181.076 233.587 180.29C237.054 179.504 238.787 172.826 242.254 171.942C245.72 171.059 245.72 175.085 250.92 175.871C256.12 176.656 263.054 176.656 268.254 175.871C273.454 175.085 273.454 171.942 276.92 171.942C280.387 171.942 282.12 175.085 285.587 175.871C289.054 176.656 290.787 174.332 294.254 175.871C297.72 177.409 297.72 182.025 302.92 183.564C308.12 185.102 315.054 185.102 320.254 183.564C325.454 182.025 325.454 177.409 328.92 175.871C332.387 174.332 332.387 177.54 337.587 175.871C342.787 174.201 349.72 170.6 354.92 167.523C360.12 164.446 360.12 160.485 363.587 160.485C367.054 160.485 368.787 167.523 372.254 167.523C375.72 167.523 377.454 161.893 380.92 160.485C384.387 159.077 387.854 160.485 389.587 160.485" stroke="#DC30D5" stroke-width="2.59914" stroke-linecap="round"/>
<path d="M129.587 191.78C131.32 192.153 134.787 193.645 138.254 193.645C141.72 193.645 141.72 191.279 146.92 191.78C152.12 192.281 159.054 195.276 164.254 196.15C169.454 197.024 169.454 196.651 172.92 196.15C176.387 195.649 178.12 193.645 181.587 193.645C185.054 193.645 186.787 196.15 190.254 196.15C193.72 196.15 195.454 193.357 198.92 193.645C202.387 193.933 202.387 196.8 207.587 197.589C212.787 198.377 219.72 197.876 224.92 197.589C230.12 197.301 230.12 195.894 233.587 196.15C237.054 196.406 238.787 198.58 242.254 198.868C245.72 199.155 245.72 197.844 250.92 197.589C256.12 197.333 263.054 197.333 268.254 197.589C273.454 197.844 271.72 198.868 276.92 198.868C282.12 198.868 289.054 198.345 294.254 197.589C299.454 196.832 297.72 195.585 302.92 195.084C308.12 194.583 315.054 194.583 320.254 195.084C325.454 195.585 325.454 197.088 328.92 197.589C332.387 198.09 330.654 196.587 337.587 197.589C344.52 198.591 356.654 202.054 363.587 202.598C370.52 203.142 368.787 200.306 372.254 200.306C375.72 200.306 377.454 202.14 380.92 202.598C384.387 203.056 387.854 202.598 389.587 202.598" stroke="#FFA1A1" stroke-width="2.59914" stroke-linecap="round"/>
</g>
</g>
<defs>
<filter id="filter0_d_366_5750" x="0.000471115" y="3.2069" width="386.405" height="256.448" filterUnits="userSpaceOnUse" color-interpolation-filters="sRGB">
<feFlood flood-opacity="0" result="BackgroundImageFix"/>
<feColorMatrix in="SourceAlpha" type="matrix" values="0 0 0 0 0 0 0 0 0 0 0 0 0 0 0 0 0 0 127 0" result="hardAlpha"/>
<feOffset dy="6.93103"/>
<feGaussianBlur stdDeviation="13.8621"/>
<feComposite in2="hardAlpha" operator="out"/>
<feColorMatrix type="matrix" values="0 0 0 0 0.0980392 0 0 0 0 0.105882 0 0 0 0 0.137255 0 0 0 0.08 0"/>
<feBlend mode="normal" in2="BackgroundImageFix" result="effect1_dropShadow_366_5750"/>
<feBlend mode="normal" in="SourceGraphic" in2="effect1_dropShadow_366_5750" result="shape"/>
</filter>
<filter id="filter1_d_366_5750" x="88.0005" y="49.2069" width="343.086" height="235.655" filterUnits="userSpaceOnUse" color-interpolation-filters="sRGB">
<feFlood flood-opacity="0" result="BackgroundImageFix"/>
<feColorMatrix in="SourceAlpha" type="matrix" values="0 0 0 0 0 0 0 0 0 0 0 0 0 0 0 0 0 0 127 0" result="hardAlpha"/>
<feOffset dy="6.93103"/>
<feGaussianBlur stdDeviation="13.8621"/>
<feComposite in2="hardAlpha" operator="out"/>
<feColorMatrix type="matrix" values="0 0 0 0 0.0980392 0 0 0 0 0.105882 0 0 0 0 0.137255 0 0 0 0.08 0"/>
<feBlend mode="normal" in2="BackgroundImageFix" result="effect1_dropShadow_366_5750"/>
<feBlend mode="normal" in="SourceGraphic" in2="effect1_dropShadow_366_5750" result="shape"/>
</filter>
<clipPath id="clip0_366_5750">
<rect width="306.698" height="47.6509" fill="white" transform="translate(38.1211 62.2588)"/>
</clipPath>
<clipPath id="clip1_366_5750">
<rect width="306.698" height="55.4483" fill="white" transform="translate(38.1211 153.228)"/>
</clipPath>
<clipPath id="clip2_366_5750">
<path d="M38.1211 179.22C38.1211 178.263 38.8969 177.487 39.8539 177.487H60.647C61.6039 177.487 62.3797 178.263 62.3797 179.22V208.677H38.1211V179.22Z" fill="white"/>
</clipPath>
<clipPath id="clip3_366_5750">
<path d="M69.5029 195.681C69.5029 194.724 70.2787 193.948 71.2357 193.948H92.0288C92.9858 193.948 93.7616 194.724 93.7616 195.681V208.677H69.5029V195.681Z" fill="white"/>
</clipPath>
<clipPath id="clip4_366_5750">
<path d="M100.886 182.685C100.886 181.728 101.662 180.953 102.619 180.953H123.412C124.369 180.953 125.144 181.728 125.144 182.685V208.677H100.886V182.685Z" fill="white"/>
</clipPath>
<clipPath id="clip5_366_5750">
<path d="M132.268 176.621C132.268 175.664 133.043 174.888 134 174.888H154.793C155.75 174.888 156.526 175.664 156.526 176.621V208.677H132.268V176.621Z" fill="white"/>
</clipPath>
<clipPath id="clip6_366_5750">
<path d="M163.649 166.224C163.649 165.267 164.425 164.491 165.382 164.491H186.175C187.132 164.491 187.908 165.267 187.908 166.224V208.677H163.649V166.224Z" fill="white"/>
</clipPath>
<clipPath id="clip7_366_5750">
<path d="M195.032 179.22C195.032 178.263 195.808 177.487 196.765 177.487H217.558C218.515 177.487 219.291 178.263 219.291 179.22V208.677H195.032V179.22Z" fill="white"/>
</clipPath>
<clipPath id="clip8_366_5750">
<path d="M226.414 158.427C226.414 157.47 227.19 156.694 228.147 156.694H248.94C249.897 156.694 250.673 157.47 250.673 158.427V208.677H226.414V158.427Z" fill="white"/>
</clipPath>
<clipPath id="clip9_366_5750">
<path d="M257.797 171.422C257.797 170.465 258.573 169.69 259.53 169.69H280.323C281.28 169.69 282.055 170.465 282.055 171.422V208.677H257.797V171.422Z" fill="white"/>
</clipPath>
<clipPath id="clip10_366_5750">
<path d="M289.179 158.427C289.179 157.47 289.954 156.694 290.911 156.694H311.705C312.662 156.694 313.437 157.47 313.437 158.427V208.677H289.179V158.427Z" fill="white"/>
</clipPath>
<clipPath id="clip11_366_5750">
<path d="M320.561 176.621C320.561 175.664 321.336 174.888 322.293 174.888H343.086C344.043 174.888 344.819 175.664 344.819 176.621V208.677H320.561V176.621Z" fill="white"/>
</clipPath>
<clipPath id="clip12_366_5750">
<rect width="259.914" height="57.181" fill="white" transform="translate(129.587 157.78)"/>
</clipPath>
</defs>
</svg>
