<svg width="430" height="280" viewBox="0 0 430 280" fill="none" xmlns="http://www.w3.org/2000/svg">
<g clip-path="url(#clip0_366_5697)">
<path d="M251.035 80.2018C241.879 49.8606 223.753 20.9155 199.152 0.719064C198.227 -0.0255049 196.932 -0.211647 195.823 0.253708L156.147 18.3095C120.726 11.7015 85.3049 10.3054 51.1786 22.9631C49.9763 23.4284 49.1439 24.5453 49.1439 25.7552C48.6815 35.5277 46.5544 76.1067 46.5544 76.1067C22.9711 101.143 4.47445 132.694 0.0352432 166.944C-0.149724 168.154 0.405177 169.271 1.42249 170.015L43.9648 199.798C53.1207 230.139 71.2475 259.085 95.848 279.281C96.7729 280.025 98.0676 280.212 99.1774 279.746L138.853 261.69C174.274 268.299 209.695 269.695 243.821 257.037C245.024 256.572 245.856 255.455 245.856 254.245L248.446 203.893C272.029 178.764 290.526 147.213 294.965 113.056C295.15 111.846 294.595 110.729 293.578 109.985L251.035 80.2018Z" fill="#FFF4D9"/>
<g opacity="0.8" filter="url(#filter0_d_366_5697)">
<rect x="28" y="28" width="277" height="142" rx="6" fill="white" shape-rendering="crispEdges"/>
<path d="M53.8686 52.3828H51.6911C51.6513 52.1011 51.5701 51.8509 51.4474 51.6321C51.3248 51.41 51.1674 51.2211 50.9751 51.0653C50.7829 50.9096 50.5608 50.7902 50.3089 50.7074C50.0604 50.6245 49.7902 50.5831 49.4986 50.5831C48.9716 50.5831 48.5125 50.714 48.1214 50.9759C47.7304 51.2344 47.4271 51.6122 47.2116 52.1094C46.9962 52.6032 46.8885 53.2031 46.8885 53.9091C46.8885 54.6349 46.9962 55.2448 47.2116 55.7386C47.4304 56.2325 47.7353 56.6054 48.1264 56.8572C48.5175 57.1091 48.9699 57.2351 49.4837 57.2351C49.772 57.2351 50.0388 57.197 50.2841 57.1207C50.5327 57.0445 50.7531 56.9335 50.9453 56.7876C51.1375 56.6385 51.2966 56.4579 51.4226 56.2457C51.5518 56.0336 51.6413 55.7917 51.6911 55.5199L53.8686 55.5298C53.8123 55.9972 53.6714 56.4479 53.446 56.8821C53.224 57.313 52.924 57.6991 52.5462 58.0405C52.1716 58.3786 51.7242 58.647 51.2038 58.8459C50.6868 59.0414 50.1018 59.1392 49.4489 59.1392C48.5407 59.1392 47.7287 58.9337 47.0128 58.5227C46.3002 58.1117 45.7367 57.5168 45.3224 56.7379C44.9115 55.959 44.706 55.0161 44.706 53.9091C44.706 52.7988 44.9148 51.8542 45.3324 51.0753C45.75 50.2964 46.3168 49.7031 47.0327 49.2955C47.7486 48.8845 48.554 48.679 49.4489 48.679C50.0388 48.679 50.5857 48.7618 51.0895 48.9276C51.5966 49.0933 52.0457 49.3352 52.4368 49.6534C52.8279 49.9683 53.1461 50.3544 53.3913 50.8118C53.6399 51.2692 53.799 51.7929 53.8686 52.3828ZM58.8228 59.1491C58.0505 59.1491 57.3827 58.9851 56.8192 58.657C56.2591 58.3255 55.8266 57.8648 55.5217 57.2749C55.2167 56.6816 55.0643 55.9938 55.0643 55.2116C55.0643 54.4228 55.2167 53.7334 55.5217 53.1435C55.8266 52.5502 56.2591 52.0895 56.8192 51.7614C57.3827 51.4299 58.0505 51.2642 58.8228 51.2642C59.5951 51.2642 60.2612 51.4299 60.8214 51.7614C61.3848 52.0895 61.819 52.5502 62.1239 53.1435C62.4289 53.7334 62.5813 54.4228 62.5813 55.2116C62.5813 55.9938 62.4289 56.6816 62.1239 57.2749C61.819 57.8648 61.3848 58.3255 60.8214 58.657C60.2612 58.9851 59.5951 59.1491 58.8228 59.1491ZM58.8327 57.5085C59.1841 57.5085 59.4774 57.4091 59.7127 57.2102C59.948 57.008 60.1254 56.733 60.2447 56.3849C60.3673 56.0369 60.4286 55.6409 60.4286 55.1967C60.4286 54.7526 60.3673 54.3565 60.2447 54.0085C60.1254 53.6605 59.948 53.3854 59.7127 53.1832C59.4774 52.9811 59.1841 52.88 58.8327 52.88C58.4781 52.88 58.1798 52.9811 57.9379 53.1832C57.6992 53.3854 57.5186 53.6605 57.396 54.0085C57.2766 54.3565 57.217 54.7526 57.217 55.1967C57.217 55.6409 57.2766 56.0369 57.396 56.3849C57.5186 56.733 57.6992 57.008 57.9379 57.2102C58.1798 57.4091 58.4781 57.5085 58.8327 57.5085ZM63.9585 59V51.3636H65.9769V52.7109H66.0664C66.2255 52.2635 66.4906 51.9105 66.8619 51.652C67.2331 51.3935 67.6772 51.2642 68.1942 51.2642C68.7179 51.2642 69.1637 51.3951 69.5316 51.657C69.8995 51.9155 70.1448 52.2668 70.2674 52.7109H70.3469C70.5027 52.2734 70.7844 51.9238 71.1921 51.6619C71.6031 51.3968 72.0887 51.2642 72.6488 51.2642C73.3614 51.2642 73.9397 51.4912 74.3839 51.9453C74.8313 52.3961 75.055 53.0357 75.055 53.8643V59H72.9421V54.282C72.9421 53.8577 72.8294 53.5395 72.604 53.3274C72.3787 53.1153 72.0969 53.0092 71.7589 53.0092C71.3744 53.0092 71.0745 53.1319 70.859 53.3771C70.6436 53.6191 70.5359 53.9389 70.5359 54.3366V59H68.4826V54.2372C68.4826 53.8627 68.3749 53.5644 68.1594 53.3423C67.9473 53.1203 67.6673 53.0092 67.3192 53.0092C67.0839 53.0092 66.8718 53.0689 66.6829 53.1882C66.4973 53.3042 66.3498 53.4683 66.2404 53.6804C66.131 53.8892 66.0763 54.1345 66.0763 54.4162V59H63.9585ZM76.728 61.8636V51.3636H78.8161V52.6463H78.9105C79.0033 52.4408 79.1375 52.232 79.3132 52.0199C79.4922 51.8045 79.7242 51.6255 80.0092 51.483C80.2976 51.3371 80.6555 51.2642 81.0831 51.2642C81.6399 51.2642 82.1536 51.41 82.6243 51.7017C83.0949 51.9901 83.4711 52.4259 83.7528 53.0092C84.0346 53.5893 84.1754 54.3168 84.1754 55.1918C84.1754 56.0436 84.0379 56.7628 83.7628 57.3494C83.491 57.9328 83.1198 58.3752 82.6491 58.6768C82.1818 58.9751 81.6581 59.1243 81.0781 59.1243C80.6671 59.1243 80.3175 59.0563 80.0291 58.9205C79.7441 58.7846 79.5104 58.6139 79.3281 58.4084C79.1458 58.1996 79.0066 57.9891 78.9105 57.777H78.8459V61.8636H76.728ZM78.8011 55.1818C78.8011 55.6359 78.8641 56.032 78.9901 56.37C79.116 56.7081 79.2983 56.9716 79.5369 57.1605C79.7756 57.3461 80.0656 57.4389 80.407 57.4389C80.7517 57.4389 81.0433 57.3445 81.282 57.1555C81.5206 56.9633 81.7012 56.6982 81.8239 56.3601C81.9498 56.0187 82.0128 55.6259 82.0128 55.1818C82.0128 54.741 81.9515 54.3532 81.8288 54.0185C81.7062 53.6837 81.5256 53.4219 81.2869 53.233C81.0483 53.044 80.755 52.9496 80.407 52.9496C80.0623 52.9496 79.7706 53.0407 79.532 53.223C79.2966 53.4053 79.116 53.6638 78.9901 53.9986C78.8641 54.3333 78.8011 54.7277 78.8011 55.1818ZM89.0675 59.1491C88.282 59.1491 87.6058 58.9901 87.0391 58.6719C86.4756 58.3504 86.0414 57.8963 85.7365 57.3097C85.4316 56.7197 85.2791 56.022 85.2791 55.2166C85.2791 54.4311 85.4316 53.7417 85.7365 53.1484C86.0414 52.5552 86.4706 52.0928 87.0241 51.7614C87.581 51.4299 88.2339 51.2642 88.983 51.2642C89.4867 51.2642 89.9557 51.3454 90.3899 51.5078C90.8274 51.6669 91.2086 51.9072 91.5334 52.2287C91.8615 52.5502 92.1167 52.9545 92.299 53.4418C92.4813 53.9257 92.5724 54.4924 92.5724 55.142V55.7237H86.1243V54.4112H90.5788C90.5788 54.1063 90.5125 53.8362 90.38 53.6009C90.2474 53.3655 90.0634 53.1816 89.8281 53.049C89.5961 52.9131 89.326 52.8452 89.0178 52.8452C88.6963 52.8452 88.4112 52.9197 88.1626 53.0689C87.9174 53.2147 87.7251 53.4119 87.5859 53.6605C87.4467 53.9058 87.3755 54.1792 87.3722 54.4808V55.7287C87.3722 56.1065 87.4418 56.433 87.581 56.7081C87.7235 56.9832 87.924 57.1953 88.1825 57.3445C88.4411 57.4936 88.7476 57.5682 89.1023 57.5682C89.3376 57.5682 89.553 57.535 89.7486 57.4688C89.9441 57.4025 90.1115 57.303 90.2507 57.1705C90.3899 57.0379 90.496 56.8755 90.5689 56.6832L92.5277 56.8125C92.4283 57.2831 92.2244 57.6941 91.9162 58.0455C91.6113 58.3935 91.2169 58.6652 90.733 58.8608C90.2524 59.053 89.6972 59.1491 89.0675 59.1491ZM98.0163 51.3636V52.9545H93.4176V51.3636H98.0163ZM94.4616 49.5341H96.5795V56.6534C96.5795 56.849 96.6094 57.0014 96.669 57.1108C96.7287 57.2169 96.8116 57.2914 96.9176 57.3345C97.027 57.3776 97.1529 57.3991 97.2955 57.3991C97.3949 57.3991 97.4943 57.3909 97.5938 57.3743C97.6932 57.3544 97.7694 57.3395 97.8224 57.3295L98.1555 58.9055C98.0495 58.9387 97.9003 58.9768 97.7081 59.0199C97.5159 59.0663 97.2822 59.0945 97.0071 59.1044C96.4967 59.1243 96.0492 59.0563 95.6648 58.9006C95.2836 58.7448 94.987 58.5028 94.7749 58.1747C94.5627 57.8466 94.4583 57.4323 94.4616 56.9318V49.5341ZM99.396 59V51.3636H101.514V59H99.396ZM100.46 50.3793C100.145 50.3793 99.8749 50.2749 99.6495 50.0661C99.4274 49.8539 99.3164 49.6004 99.3164 49.3054C99.3164 49.0137 99.4274 48.7635 99.6495 48.5547C99.8749 48.3426 100.145 48.2365 100.46 48.2365C100.775 48.2365 101.043 48.3426 101.265 48.5547C101.491 48.7635 101.603 49.0137 101.603 49.3054C101.603 49.6004 101.491 49.8539 101.265 50.0661C101.043 50.2749 100.775 50.3793 100.46 50.3793ZM107.272 51.3636V52.9545H102.673V51.3636H107.272ZM103.718 49.5341H105.835V56.6534C105.835 56.849 105.865 57.0014 105.925 57.1108C105.985 57.2169 106.067 57.2914 106.173 57.3345C106.283 57.3776 106.409 57.3991 106.551 57.3991C106.651 57.3991 106.75 57.3909 106.85 57.3743C106.949 57.3544 107.025 57.3395 107.078 57.3295L107.411 58.9055C107.305 58.9387 107.156 58.9768 106.964 59.0199C106.772 59.0663 106.538 59.0945 106.263 59.1044C105.753 59.1243 105.305 59.0563 104.921 58.9006C104.539 58.7448 104.243 58.5028 104.031 58.1747C103.819 57.8466 103.714 57.4323 103.718 56.9318V49.5341ZM108.652 59V51.3636H110.77V59H108.652ZM109.716 50.3793C109.401 50.3793 109.131 50.2749 108.905 50.0661C108.683 49.8539 108.572 49.6004 108.572 49.3054C108.572 49.0137 108.683 48.7635 108.905 48.5547C109.131 48.3426 109.401 48.2365 109.716 48.2365C110.031 48.2365 110.299 48.3426 110.521 48.5547C110.747 48.7635 110.859 49.0137 110.859 49.3054C110.859 49.6004 110.747 49.8539 110.521 50.0661C110.299 50.2749 110.031 50.3793 109.716 50.3793ZM115.917 59.1491C115.144 59.1491 114.476 58.9851 113.913 58.657C113.353 58.3255 112.92 57.8648 112.615 57.2749C112.31 56.6816 112.158 55.9938 112.158 55.2116C112.158 54.4228 112.31 53.7334 112.615 53.1435C112.92 52.5502 113.353 52.0895 113.913 51.7614C114.476 51.4299 115.144 51.2642 115.917 51.2642C116.689 51.2642 117.355 51.4299 117.915 51.7614C118.479 52.0895 118.913 52.5502 119.218 53.1435C119.523 53.7334 119.675 54.4228 119.675 55.2116C119.675 55.9938 119.523 56.6816 119.218 57.2749C118.913 57.8648 118.479 58.3255 117.915 58.657C117.355 58.9851 116.689 59.1491 115.917 59.1491ZM115.926 57.5085C116.278 57.5085 116.571 57.4091 116.806 57.2102C117.042 57.008 117.219 56.733 117.338 56.3849C117.461 56.0369 117.522 55.6409 117.522 55.1967C117.522 54.7526 117.461 54.3565 117.338 54.0085C117.219 53.6605 117.042 53.3854 116.806 53.1832C116.571 52.9811 116.278 52.88 115.926 52.88C115.572 52.88 115.274 52.9811 115.032 53.1832C114.793 53.3854 114.612 53.6605 114.49 54.0085C114.37 54.3565 114.311 54.7526 114.311 55.1967C114.311 55.6409 114.37 56.0369 114.49 56.3849C114.612 56.733 114.793 57.008 115.032 57.2102C115.274 57.4091 115.572 57.5085 115.926 57.5085ZM123.17 54.5852V59H121.052V51.3636H123.071V52.7109H123.16C123.329 52.2668 123.613 51.9155 124.01 51.657C124.408 51.3951 124.89 51.2642 125.457 51.2642C125.987 51.2642 126.45 51.3802 126.844 51.6122C127.239 51.8442 127.545 52.1757 127.764 52.6065C127.983 53.0341 128.092 53.5445 128.092 54.1378V59H125.974V54.5156C125.977 54.0483 125.858 53.6837 125.616 53.4219C125.374 53.1567 125.041 53.0241 124.617 53.0241C124.332 53.0241 124.08 53.0855 123.861 53.2081C123.646 53.3307 123.477 53.5097 123.354 53.745C123.235 53.977 123.173 54.2571 123.17 54.5852ZM133.041 48.8182H135.696L138.5 55.6591H138.619L141.423 48.8182H144.078V59H141.99V52.3729H141.906L139.271 58.9503H137.849L135.214 52.348H135.129V59H133.041V48.8182ZM147.99 59.1442C147.502 59.1442 147.068 59.0597 146.687 58.8906C146.306 58.7183 146.004 58.4647 145.782 58.13C145.563 57.7919 145.454 57.371 145.454 56.8672C145.454 56.4429 145.532 56.0866 145.688 55.7983C145.843 55.5099 146.056 55.2779 146.324 55.1023C146.593 54.9266 146.897 54.794 147.239 54.7045C147.584 54.6151 147.945 54.5521 148.323 54.5156C148.767 54.4692 149.125 54.4261 149.396 54.3864C149.668 54.3433 149.865 54.2803 149.988 54.1974C150.111 54.1146 150.172 53.992 150.172 53.8295V53.7997C150.172 53.4848 150.073 53.2412 149.874 53.0689C149.678 52.8965 149.4 52.8104 149.039 52.8104C148.657 52.8104 148.354 52.8949 148.129 53.0639C147.903 53.2296 147.754 53.4384 147.681 53.6903L145.722 53.5312C145.822 53.0672 146.017 52.6662 146.309 52.3281C146.601 51.9867 146.977 51.7249 147.438 51.5426C147.902 51.357 148.439 51.2642 149.048 51.2642C149.473 51.2642 149.879 51.3139 150.267 51.4134C150.658 51.5128 151.004 51.6669 151.306 51.8757C151.61 52.0845 151.851 52.353 152.026 52.6811C152.202 53.0059 152.29 53.3954 152.29 53.8494V59H150.281V57.9411H150.222C150.099 58.1797 149.935 58.3902 149.73 58.5724C149.524 58.7514 149.277 58.8923 148.989 58.995C148.7 59.0945 148.367 59.1442 147.99 59.1442ZM148.596 57.6825C148.908 57.6825 149.183 57.6212 149.421 57.4986C149.66 57.3726 149.847 57.2036 149.983 56.9915C150.119 56.7794 150.187 56.5391 150.187 56.2706V55.4602C150.121 55.5033 150.03 55.5431 149.914 55.5795C149.801 55.6127 149.673 55.6442 149.531 55.674C149.388 55.7005 149.246 55.7254 149.103 55.7486C148.961 55.7685 148.831 55.7867 148.715 55.8033C148.467 55.8397 148.25 55.8977 148.064 55.9773C147.878 56.0568 147.734 56.1645 147.632 56.3004C147.529 56.433 147.477 56.5987 147.477 56.7976C147.477 57.0859 147.582 57.3063 147.791 57.4588C148.003 57.608 148.271 57.6825 148.596 57.6825ZM153.933 61.8636V51.3636H156.021V52.6463H156.116C156.208 52.4408 156.343 52.232 156.518 52.0199C156.697 51.8045 156.929 51.6255 157.214 51.483C157.503 51.3371 157.861 51.2642 158.288 51.2642C158.845 51.2642 159.359 51.41 159.829 51.7017C160.3 51.9901 160.676 52.4259 160.958 53.0092C161.24 53.5893 161.381 54.3168 161.381 55.1918C161.381 56.0436 161.243 56.7628 160.968 57.3494C160.696 57.9328 160.325 58.3752 159.854 58.6768C159.387 58.9751 158.863 59.1243 158.283 59.1243C157.872 59.1243 157.523 59.0563 157.234 58.9205C156.949 58.7846 156.715 58.6139 156.533 58.4084C156.351 58.1996 156.212 57.9891 156.116 57.777H156.051V61.8636H153.933ZM156.006 55.1818C156.006 55.6359 156.069 56.032 156.195 56.37C156.321 56.7081 156.503 56.9716 156.742 57.1605C156.981 57.3461 157.271 57.4389 157.612 57.4389C157.957 57.4389 158.248 57.3445 158.487 57.1555C158.726 56.9633 158.906 56.6982 159.029 56.3601C159.155 56.0187 159.218 55.6259 159.218 55.1818C159.218 54.741 159.157 54.3532 159.034 54.0185C158.911 53.6837 158.731 53.4219 158.492 53.233C158.253 53.044 157.96 52.9496 157.612 52.9496C157.267 52.9496 156.976 53.0407 156.737 53.223C156.502 53.4053 156.321 53.6638 156.195 53.9986C156.069 54.3333 156.006 54.7277 156.006 55.1818Z" fill="#000300" fill-opacity="0.584314"/>
<path d="M44 76H289V77H44V76Z" fill="#DDDEDE"/>
<path d="M44 114H289V115H44V114Z" fill="#DDDEDE"/>
<path d="M44 153H289V154H44V153Z" fill="#DDDEDE"/>
<path opacity="0.5" fill-rule="evenodd" clip-rule="evenodd" d="M102 126.5C102 135.613 94.6127 143 85.5 143C76.3873 143 69 135.613 69 126.5C69 117.387 76.3873 110 85.5 110C94.6127 110 102 117.387 102 126.5ZM85.5 141.308C93.6781 141.308 100.308 134.678 100.308 126.5C100.308 118.322 93.6781 111.692 85.5 111.692C77.3219 111.692 70.6923 118.322 70.6923 126.5C70.6923 134.678 77.3219 141.308 85.5 141.308Z" fill="white"/>
<path opacity="0.5" d="M100.308 126.5C100.308 134.678 93.6781 141.308 85.5001 141.308C77.322 141.308 70.6924 134.678 70.6924 126.5C70.6924 118.322 77.322 111.692 85.5001 111.692C93.6781 111.692 100.308 118.322 100.308 126.5Z" fill="#F73740"/>
<path d="M86 123H85V126H82V127H85V130H86V127H89V126H86V123Z" fill="#F73740"/>
<path opacity="0.5" fill-rule="evenodd" clip-rule="evenodd" d="M251 100.5C251 114.031 240.031 125 226.5 125C212.969 125 202 114.031 202 100.5C202 86.969 212.969 76 226.5 76C240.031 76 251 86.969 251 100.5ZM226.5 123C238.926 123 249 112.926 249 100.5C249 88.0736 238.926 78 226.5 78C214.074 78 204 88.0736 204 100.5C204 112.926 214.074 123 226.5 123Z" fill="white"/>
<path opacity="0.5" d="M249 100.5C249 112.926 238.926 123 226.5 123C214.074 123 204 112.926 204 100.5C204 88.0736 214.074 78 226.5 78C238.926 78 249 88.0736 249 100.5Z" fill="#94A5F5"/>
<path d="M227 97H226V100H223V101H226V104H227V101H230V100H227V97Z" fill="#94A5F5"/>
<path opacity="0.5" fill-rule="evenodd" clip-rule="evenodd" d="M289 93.5C289 109.24 276.24 122 260.5 122C244.76 122 232 109.24 232 93.5C232 77.7599 244.76 65 260.5 65C276.24 65 289 77.7599 289 93.5ZM260.5 120C275.136 120 287 108.136 287 93.5C287 78.8645 275.136 67 260.5 67C245.864 67 234 78.8645 234 93.5C234 108.136 245.864 120 260.5 120Z" fill="white"/>
<path opacity="0.5" d="M287 93.5C287 108.136 275.136 120 260.5 120C245.864 120 234 108.136 234 93.5C234 78.8645 245.864 67 260.5 67C275.136 67 287 78.8645 287 93.5Z" fill="#38E3B5"/>
<path d="M261 90H260V93H257V94H260V97H261V94H264V93H261V90Z" fill="#38E3B5"/>
<path opacity="0.5" fill-rule="evenodd" clip-rule="evenodd" d="M69 117.5C69 124.404 63.4036 130 56.5 130C49.5964 130 44 124.404 44 117.5C44 110.596 49.5964 105 56.5 105C63.4036 105 69 110.596 69 117.5ZM56.5 128C62.299 128 67 123.299 67 117.5C67 111.701 62.299 107 56.5 107C50.701 107 46 111.701 46 117.5C46 123.299 50.701 128 56.5 128Z" fill="white"/>
<path opacity="0.5" d="M67 117.5C67 123.299 62.299 128 56.5 128C50.701 128 46 123.299 46 117.5C46 111.701 50.701 107 56.5 107C62.299 107 67 111.701 67 117.5Z" fill="#A261FD"/>
<path d="M57 114H56V117H53V118H56V121H57V118H60V117H57V114Z" fill="#A261FD"/>
<path opacity="0.5" fill-rule="evenodd" clip-rule="evenodd" d="M176 104C176 114.493 167.493 123 157 123C146.507 123 138 114.493 138 104C138 93.5066 146.507 85 157 85C167.493 85 176 93.5066 176 104ZM157 121.348C166.581 121.348 174.348 113.581 174.348 104C174.348 94.4191 166.581 86.6522 157 86.6522C147.419 86.6522 139.652 94.4191 139.652 104C139.652 113.581 147.419 121.348 157 121.348Z" fill="white"/>
<path opacity="0.5" d="M174.348 104C174.348 113.581 166.581 121.348 157 121.348C147.419 121.348 139.652 113.581 139.652 104C139.652 94.419 147.419 86.6522 157 86.6522C166.581 86.6522 174.348 94.419 174.348 104Z" fill="#FF8100"/>
<path d="M157 100H156V103H153V104H156V107H157V104H160V103H157V100Z" fill="#FF8100"/>
</g>
<g filter="url(#filter1_d_366_5697)">
<path d="M87 114C87 110.686 89.6863 108 93 108H394C397.314 108 400 110.686 400 114V244C400 247.314 397.314 250 394 250H93C89.6863 250 87 247.314 87 244V114Z" fill="white"/>
<mask id="path-23-inside-1_366_5697" fill="white">
<path d="M103 150H196.667V178H103V150Z"/>
</mask>
<path d="M103 150H196.667V178H103V150Z" fill="white"/>
<path d="M196.667 178V177H103V178V179H196.667V178Z" fill="#001510" fill-opacity="0.0705882" mask="url(#path-23-inside-1_366_5697)"/>
<path d="M114.906 168H112.213V159.273H115.026C115.872 159.273 116.597 159.447 117.199 159.797C117.801 160.143 118.263 160.642 118.584 161.293C118.905 161.94 119.065 162.716 119.065 163.619C119.065 164.528 118.903 165.311 118.58 165.967C118.256 166.621 117.784 167.124 117.165 167.476C116.545 167.825 115.793 168 114.906 168ZM113.27 167.062H114.838C115.56 167.062 116.158 166.923 116.632 166.645C117.107 166.366 117.46 165.97 117.693 165.456C117.926 164.942 118.043 164.33 118.043 163.619C118.043 162.915 117.928 162.308 117.697 161.8C117.467 161.288 117.124 160.896 116.666 160.624C116.209 160.348 115.639 160.21 114.957 160.21H113.27V167.062ZM123.361 168.136C122.77 168.136 122.251 167.996 121.805 167.714C121.362 167.433 121.016 167.04 120.766 166.534C120.518 166.028 120.395 165.437 120.395 164.761C120.395 164.08 120.518 163.484 120.766 162.976C121.016 162.467 121.362 162.072 121.805 161.791C122.251 161.51 122.77 161.369 123.361 161.369C123.952 161.369 124.469 161.51 124.912 161.791C125.358 162.072 125.705 162.467 125.952 162.976C126.202 163.484 126.327 164.08 126.327 164.761C126.327 165.437 126.202 166.028 125.952 166.534C125.705 167.04 125.358 167.433 124.912 167.714C124.469 167.996 123.952 168.136 123.361 168.136ZM123.361 167.233C123.81 167.233 124.179 167.118 124.469 166.888C124.759 166.658 124.973 166.355 125.112 165.98C125.251 165.605 125.321 165.199 125.321 164.761C125.321 164.324 125.251 163.916 125.112 163.538C124.973 163.161 124.759 162.855 124.469 162.622C124.179 162.389 123.81 162.273 123.361 162.273C122.912 162.273 122.543 162.389 122.253 162.622C121.963 162.855 121.749 163.161 121.609 163.538C121.47 163.916 121.401 164.324 121.401 164.761C121.401 165.199 121.47 165.605 121.609 165.98C121.749 166.355 121.963 166.658 122.253 166.888C122.543 167.118 122.912 167.233 123.361 167.233ZM127.862 168V161.455H128.833V162.477H128.919C129.055 162.128 129.275 161.857 129.579 161.663C129.883 161.467 130.248 161.369 130.674 161.369C131.106 161.369 131.466 161.467 131.752 161.663C132.042 161.857 132.268 162.128 132.43 162.477H132.498C132.666 162.139 132.917 161.871 133.252 161.672C133.588 161.47 133.99 161.369 134.458 161.369C135.044 161.369 135.522 161.553 135.895 161.919C136.267 162.283 136.453 162.849 136.453 163.619V168H135.447V163.619C135.447 163.136 135.315 162.791 135.051 162.584C134.787 162.376 134.475 162.273 134.118 162.273C133.657 162.273 133.301 162.412 133.048 162.69C132.795 162.966 132.669 163.315 132.669 163.739V168H131.646V163.517C131.646 163.145 131.525 162.845 131.284 162.618C131.042 162.388 130.731 162.273 130.35 162.273C130.089 162.273 129.845 162.342 129.618 162.482C129.393 162.621 129.211 162.814 129.072 163.061C128.936 163.305 128.868 163.588 128.868 163.909V168H127.862ZM140.218 168.153C139.803 168.153 139.426 168.075 139.088 167.919C138.75 167.76 138.482 167.531 138.283 167.233C138.084 166.932 137.985 166.568 137.985 166.142C137.985 165.767 138.059 165.463 138.206 165.23C138.354 164.994 138.551 164.81 138.799 164.676C139.046 164.543 139.319 164.443 139.617 164.378C139.918 164.31 140.221 164.256 140.525 164.216C140.922 164.165 141.245 164.126 141.492 164.101C141.742 164.072 141.924 164.026 142.037 163.96C142.154 163.895 142.212 163.781 142.212 163.619V163.585C142.212 163.165 142.097 162.838 141.867 162.605C141.64 162.372 141.294 162.256 140.831 162.256C140.351 162.256 139.975 162.361 139.702 162.571C139.429 162.781 139.238 163.006 139.127 163.244L138.172 162.903C138.343 162.506 138.57 162.196 138.854 161.974C139.141 161.75 139.453 161.594 139.792 161.506C140.132 161.415 140.468 161.369 140.797 161.369C141.007 161.369 141.249 161.395 141.522 161.446C141.797 161.494 142.063 161.595 142.319 161.749C142.577 161.902 142.792 162.134 142.962 162.443C143.132 162.753 143.218 163.168 143.218 163.688V168H142.212V167.114H142.161C142.093 167.256 141.979 167.408 141.82 167.57C141.661 167.732 141.449 167.869 141.185 167.983C140.921 168.097 140.598 168.153 140.218 168.153ZM140.371 167.25C140.769 167.25 141.104 167.172 141.377 167.016C141.652 166.859 141.86 166.658 141.999 166.411C142.141 166.163 142.212 165.903 142.212 165.631V164.71C142.169 164.761 142.076 164.808 141.931 164.851C141.789 164.891 141.624 164.926 141.436 164.957C141.252 164.986 141.071 165.011 140.895 165.034C140.722 165.054 140.581 165.071 140.473 165.085C140.212 165.119 139.968 165.175 139.74 165.251C139.516 165.325 139.334 165.437 139.195 165.588C139.059 165.736 138.99 165.937 138.99 166.193C138.99 166.543 139.12 166.807 139.378 166.986C139.64 167.162 139.971 167.25 140.371 167.25ZM145.053 168V161.455H146.059V168H145.053ZM145.565 160.364C145.369 160.364 145.2 160.297 145.058 160.163C144.918 160.03 144.849 159.869 144.849 159.682C144.849 159.494 144.918 159.334 145.058 159.2C145.2 159.067 145.369 159 145.565 159C145.761 159 145.928 159.067 146.067 159.2C146.21 159.334 146.281 159.494 146.281 159.682C146.281 159.869 146.21 160.03 146.067 160.163C145.928 160.297 145.761 160.364 145.565 160.364ZM148.907 164.062V168H147.901V161.455H148.873V162.477H148.958C149.111 162.145 149.344 161.878 149.657 161.676C149.969 161.472 150.373 161.369 150.867 161.369C151.31 161.369 151.698 161.46 152.03 161.642C152.363 161.821 152.621 162.094 152.806 162.46C152.99 162.824 153.083 163.284 153.083 163.841V168H152.077V163.909C152.077 163.395 151.944 162.994 151.676 162.707C151.409 162.418 151.043 162.273 150.577 162.273C150.256 162.273 149.969 162.342 149.716 162.482C149.466 162.621 149.269 162.824 149.124 163.091C148.979 163.358 148.907 163.682 148.907 164.062Z" fill="#000300" fill-opacity="0.584314"/>
<g filter="url(#filter2_i_366_5697)">
<rect width="93.6667" height="28" transform="translate(196.667 150)" fill="white"/>
<path d="M223.903 168V159.273H224.959V163.602H225.062L228.982 159.273H230.363L226.698 163.21L230.363 168H229.084L226.05 163.943L224.959 165.17V168H223.903ZM233.858 168.136C233.227 168.136 232.683 167.997 232.226 167.719C231.771 167.438 231.421 167.045 231.173 166.543C230.929 166.037 230.807 165.449 230.807 164.778C230.807 164.108 230.929 163.517 231.173 163.006C231.421 162.491 231.764 162.091 232.205 161.804C232.648 161.514 233.165 161.369 233.756 161.369C234.097 161.369 234.433 161.426 234.766 161.54C235.098 161.653 235.401 161.838 235.673 162.094C235.946 162.347 236.164 162.682 236.325 163.099C236.487 163.517 236.568 164.031 236.568 164.642V165.068H231.523V164.199H235.546C235.546 163.83 235.472 163.5 235.324 163.21C235.179 162.92 234.972 162.692 234.702 162.524C234.435 162.357 234.119 162.273 233.756 162.273C233.355 162.273 233.009 162.372 232.716 162.571C232.426 162.767 232.203 163.023 232.047 163.338C231.891 163.653 231.813 163.991 231.813 164.352V164.932C231.813 165.426 231.898 165.845 232.068 166.189C232.242 166.53 232.482 166.79 232.789 166.969C233.095 167.145 233.452 167.233 233.858 167.233C234.122 167.233 234.361 167.196 234.574 167.122C234.79 167.045 234.976 166.932 235.132 166.781C235.289 166.628 235.409 166.437 235.494 166.21L236.466 166.483C236.364 166.812 236.192 167.102 235.95 167.352C235.709 167.599 235.411 167.793 235.056 167.932C234.7 168.068 234.301 168.136 233.858 168.136ZM238.547 170.455C238.376 170.455 238.224 170.44 238.091 170.412C237.957 170.386 237.865 170.361 237.814 170.335L238.069 169.449C238.314 169.511 238.53 169.534 238.717 169.517C238.905 169.5 239.071 169.416 239.216 169.266C239.363 169.118 239.498 168.878 239.621 168.545L239.808 168.034L237.388 161.455H238.479L240.285 166.67H240.354L242.16 161.455H243.251L240.473 168.955C240.348 169.293 240.193 169.572 240.008 169.794C239.824 170.018 239.609 170.185 239.365 170.293C239.123 170.401 238.851 170.455 238.547 170.455ZM246.062 168L244.067 161.455H245.124L246.539 166.466H246.607L248.005 161.455H249.079L250.459 166.449H250.528L251.942 161.455H252.999L251.005 168H250.016L248.584 162.972H248.482L247.05 168H246.062ZM256.765 168.136C256.174 168.136 255.656 167.996 255.21 167.714C254.767 167.433 254.42 167.04 254.17 166.534C253.923 166.028 253.799 165.437 253.799 164.761C253.799 164.08 253.923 163.484 254.17 162.976C254.42 162.467 254.767 162.072 255.21 161.791C255.656 161.51 256.174 161.369 256.765 161.369C257.356 161.369 257.873 161.51 258.316 161.791C258.762 162.072 259.109 162.467 259.356 162.976C259.606 163.484 259.731 164.08 259.731 164.761C259.731 165.437 259.606 166.028 259.356 166.534C259.109 167.04 258.762 167.433 258.316 167.714C257.873 167.996 257.356 168.136 256.765 168.136ZM256.765 167.233C257.214 167.233 257.583 167.118 257.873 166.888C258.163 166.658 258.377 166.355 258.517 165.98C258.656 165.605 258.725 165.199 258.725 164.761C258.725 164.324 258.656 163.916 258.517 163.538C258.377 163.161 258.163 162.855 257.873 162.622C257.583 162.389 257.214 162.273 256.765 162.273C256.316 162.273 255.947 162.389 255.657 162.622C255.367 162.855 255.153 163.161 255.014 163.538C254.874 163.916 254.805 164.324 254.805 164.761C254.805 165.199 254.874 165.605 255.014 165.98C255.153 166.355 255.367 166.658 255.657 166.888C255.947 167.118 256.316 167.233 256.765 167.233ZM261.266 168V161.455H262.238V162.443H262.306C262.425 162.119 262.641 161.857 262.954 161.655C263.266 161.453 263.618 161.352 264.01 161.352C264.084 161.352 264.177 161.354 264.287 161.357C264.398 161.359 264.482 161.364 264.539 161.369V162.392C264.505 162.384 264.427 162.371 264.305 162.354C264.185 162.334 264.059 162.324 263.925 162.324C263.607 162.324 263.323 162.391 263.073 162.524C262.826 162.655 262.63 162.837 262.485 163.07C262.343 163.3 262.272 163.562 262.272 163.858V168H261.266ZM268.003 168.136C267.458 168.136 266.976 167.999 266.559 167.723C266.141 167.445 265.814 167.053 265.579 166.547C265.343 166.038 265.225 165.438 265.225 164.744C265.225 164.057 265.343 163.46 265.579 162.955C265.814 162.449 266.143 162.058 266.563 161.783C266.983 161.507 267.469 161.369 268.02 161.369C268.447 161.369 268.783 161.44 269.03 161.582C269.28 161.722 269.471 161.881 269.601 162.06C269.735 162.236 269.839 162.381 269.912 162.494H269.998V159.273H271.003V168H270.032V166.994H269.912C269.839 167.114 269.733 167.264 269.597 167.446C269.461 167.625 269.266 167.786 269.013 167.928C268.76 168.067 268.424 168.136 268.003 168.136ZM268.14 167.233C268.543 167.233 268.884 167.128 269.162 166.918C269.441 166.705 269.653 166.411 269.797 166.036C269.942 165.658 270.015 165.222 270.015 164.727C270.015 164.239 269.944 163.811 269.802 163.445C269.66 163.075 269.449 162.788 269.171 162.584C268.893 162.376 268.549 162.273 268.14 162.273C267.714 162.273 267.358 162.382 267.074 162.601C266.793 162.817 266.581 163.111 266.439 163.483C266.3 163.852 266.231 164.267 266.231 164.727C266.231 165.193 266.302 165.616 266.444 165.997C266.589 166.375 266.802 166.676 267.083 166.901C267.367 167.122 267.719 167.233 268.14 167.233ZM277.621 162.92L276.718 163.176C276.661 163.026 276.577 162.879 276.466 162.737C276.358 162.592 276.211 162.473 276.023 162.379C275.836 162.286 275.596 162.239 275.303 162.239C274.903 162.239 274.569 162.331 274.302 162.516C274.037 162.697 273.905 162.929 273.905 163.21C273.905 163.46 273.996 163.658 274.178 163.803C274.36 163.947 274.644 164.068 275.03 164.165L276.002 164.403C276.587 164.545 277.023 164.763 277.31 165.055C277.597 165.345 277.741 165.719 277.741 166.176C277.741 166.551 277.633 166.886 277.417 167.182C277.204 167.477 276.905 167.71 276.522 167.881C276.138 168.051 275.692 168.136 275.184 168.136C274.516 168.136 273.964 167.991 273.526 167.702C273.089 167.412 272.812 166.989 272.695 166.432L273.65 166.193C273.741 166.545 273.912 166.81 274.165 166.986C274.421 167.162 274.755 167.25 275.167 167.25C275.635 167.25 276.008 167.151 276.283 166.952C276.562 166.75 276.701 166.509 276.701 166.227C276.701 166 276.621 165.81 276.462 165.656C276.303 165.5 276.059 165.384 275.729 165.307L274.638 165.051C274.039 164.909 273.599 164.689 273.317 164.391C273.039 164.089 272.9 163.713 272.9 163.261C272.9 162.892 273.003 162.565 273.211 162.281C273.421 161.997 273.706 161.774 274.067 161.612C274.431 161.45 274.843 161.369 275.303 161.369C275.951 161.369 276.459 161.511 276.829 161.795C277.201 162.08 277.465 162.455 277.621 162.92Z" fill="#000300" fill-opacity="0.584314"/>
</g>
<g filter="url(#filter3_i_366_5697)">
<rect width="93.6667" height="28" transform="translate(290.333 150)" fill="white"/>
<path d="M313.955 162H312.898C312.835 161.696 312.726 161.429 312.57 161.199C312.416 160.969 312.229 160.776 312.007 160.619C311.788 160.46 311.545 160.341 311.278 160.261C311.011 160.182 310.733 160.142 310.443 160.142C309.915 160.142 309.436 160.276 309.007 160.543C308.581 160.81 308.241 161.203 307.989 161.723C307.739 162.243 307.614 162.881 307.614 163.636C307.614 164.392 307.739 165.03 307.989 165.55C308.241 166.07 308.581 166.463 309.007 166.73C309.436 166.997 309.915 167.131 310.443 167.131C310.733 167.131 311.011 167.091 311.278 167.011C311.545 166.932 311.788 166.814 312.007 166.658C312.229 166.499 312.416 166.304 312.57 166.074C312.726 165.841 312.835 165.574 312.898 165.273H313.955C313.875 165.719 313.73 166.118 313.52 166.47C313.31 166.822 313.048 167.122 312.736 167.369C312.423 167.614 312.072 167.8 311.683 167.928C311.297 168.055 310.884 168.119 310.443 168.119C309.699 168.119 309.037 167.938 308.457 167.574C307.878 167.21 307.422 166.693 307.089 166.023C306.757 165.352 306.591 164.557 306.591 163.636C306.591 162.716 306.757 161.92 307.089 161.25C307.422 160.58 307.878 160.062 308.457 159.699C309.037 159.335 309.699 159.153 310.443 159.153C310.884 159.153 311.297 159.217 311.683 159.345C312.072 159.473 312.423 159.661 312.736 159.908C313.048 160.152 313.31 160.45 313.52 160.803C313.73 161.152 313.875 161.551 313.955 162ZM318.185 168.136C317.594 168.136 317.076 167.996 316.63 167.714C316.186 167.433 315.84 167.04 315.59 166.534C315.343 166.028 315.219 165.437 315.219 164.761C315.219 164.08 315.343 163.484 315.59 162.976C315.84 162.467 316.186 162.072 316.63 161.791C317.076 161.51 317.594 161.369 318.185 161.369C318.776 161.369 319.293 161.51 319.736 161.791C320.182 162.072 320.529 162.467 320.776 162.976C321.026 163.484 321.151 164.08 321.151 164.761C321.151 165.437 321.026 166.028 320.776 166.534C320.529 167.04 320.182 167.433 319.736 167.714C319.293 167.996 318.776 168.136 318.185 168.136ZM318.185 167.233C318.634 167.233 319.003 167.118 319.293 166.888C319.583 166.658 319.797 166.355 319.936 165.98C320.076 165.605 320.145 165.199 320.145 164.761C320.145 164.324 320.076 163.916 319.936 163.538C319.797 163.161 319.583 162.855 319.293 162.622C319.003 162.389 318.634 162.273 318.185 162.273C317.736 162.273 317.367 162.389 317.077 162.622C316.787 162.855 316.573 163.161 316.434 163.538C316.294 163.916 316.225 164.324 316.225 164.761C316.225 165.199 316.294 165.605 316.434 165.98C316.573 166.355 316.787 166.658 317.077 166.888C317.367 167.118 317.736 167.233 318.185 167.233ZM322.686 168V161.455H323.658V162.477H323.743C323.879 162.128 324.099 161.857 324.403 161.663C324.707 161.467 325.072 161.369 325.499 161.369C325.93 161.369 326.29 161.467 326.577 161.663C326.866 161.857 327.092 162.128 327.254 162.477H327.322C327.49 162.139 327.741 161.871 328.077 161.672C328.412 161.47 328.814 161.369 329.283 161.369C329.868 161.369 330.347 161.553 330.719 161.919C331.091 162.283 331.277 162.849 331.277 163.619V168H330.271V163.619C330.271 163.136 330.139 162.791 329.875 162.584C329.611 162.376 329.3 162.273 328.942 162.273C328.482 162.273 328.125 162.412 327.872 162.69C327.619 162.966 327.493 163.315 327.493 163.739V168H326.47V163.517C326.47 163.145 326.349 162.845 326.108 162.618C325.866 162.388 325.555 162.273 325.175 162.273C324.913 162.273 324.669 162.342 324.442 162.482C324.217 162.621 324.036 162.814 323.896 163.061C323.76 163.305 323.692 163.588 323.692 163.909V168H322.686ZM333.116 170.455V161.455H334.087V162.494H334.207C334.281 162.381 334.383 162.236 334.513 162.06C334.647 161.881 334.837 161.722 335.085 161.582C335.335 161.44 335.673 161.369 336.099 161.369C336.65 161.369 337.136 161.507 337.556 161.783C337.977 162.058 338.305 162.449 338.54 162.955C338.776 163.46 338.894 164.057 338.894 164.744C338.894 165.438 338.776 166.038 338.54 166.547C338.305 167.053 337.978 167.445 337.56 167.723C337.143 167.999 336.661 168.136 336.116 168.136C335.695 168.136 335.359 168.067 335.106 167.928C334.853 167.786 334.658 167.625 334.522 167.446C334.386 167.264 334.281 167.114 334.207 166.994H334.121V170.455H333.116ZM334.104 164.727C334.104 165.222 334.177 165.658 334.322 166.036C334.467 166.411 334.678 166.705 334.957 166.918C335.235 167.128 335.576 167.233 335.979 167.233C336.4 167.233 336.751 167.122 337.032 166.901C337.316 166.676 337.529 166.375 337.671 165.997C337.816 165.616 337.888 165.193 337.888 164.727C337.888 164.267 337.817 163.852 337.675 163.483C337.536 163.111 337.325 162.817 337.04 162.601C336.759 162.382 336.406 162.273 335.979 162.273C335.57 162.273 335.227 162.376 334.948 162.584C334.67 162.788 334.46 163.075 334.317 163.445C334.175 163.811 334.104 164.239 334.104 164.727ZM341.161 168.068C340.951 168.068 340.771 167.993 340.62 167.842C340.469 167.692 340.394 167.511 340.394 167.301C340.394 167.091 340.469 166.911 340.62 166.76C340.771 166.609 340.951 166.534 341.161 166.534C341.371 166.534 341.552 166.609 341.702 166.76C341.853 166.911 341.928 167.091 341.928 167.301C341.928 167.44 341.893 167.568 341.822 167.685C341.754 167.801 341.661 167.895 341.545 167.966C341.431 168.034 341.303 168.068 341.161 168.068ZM347.244 168V159.273H348.301V167.062H352.358V168H347.244ZM356.602 168.136C355.972 168.136 355.428 167.997 354.97 167.719C354.516 167.438 354.165 167.045 353.918 166.543C353.673 166.037 353.551 165.449 353.551 164.778C353.551 164.108 353.673 163.517 353.918 163.006C354.165 162.491 354.509 162.091 354.949 161.804C355.392 161.514 355.909 161.369 356.5 161.369C356.841 161.369 357.178 161.426 357.51 161.54C357.842 161.653 358.145 161.838 358.418 162.094C358.69 162.347 358.908 162.682 359.07 163.099C359.232 163.517 359.312 164.031 359.312 164.642V165.068H354.267V164.199H358.29C358.29 163.83 358.216 163.5 358.068 163.21C357.923 162.92 357.716 162.692 357.446 162.524C357.179 162.357 356.864 162.273 356.5 162.273C356.099 162.273 355.753 162.372 355.46 162.571C355.17 162.767 354.947 163.023 354.791 163.338C354.635 163.653 354.557 163.991 354.557 164.352V164.932C354.557 165.426 354.642 165.845 354.812 166.189C354.986 166.53 355.226 166.79 355.533 166.969C355.839 167.145 356.196 167.233 356.602 167.233C356.866 167.233 357.105 167.196 357.318 167.122C357.534 167.045 357.72 166.932 357.876 166.781C358.033 166.628 358.153 166.437 358.239 166.21L359.21 166.483C359.108 166.812 358.936 167.102 358.695 167.352C358.453 167.599 358.155 167.793 357.8 167.932C357.445 168.068 357.045 168.136 356.602 168.136ZM365.995 161.455L363.575 168H362.552L360.132 161.455H361.223L363.029 166.67H363.098L364.904 161.455H365.995ZM369.833 168.136C369.202 168.136 368.658 167.997 368.201 167.719C367.746 167.438 367.395 167.045 367.148 166.543C366.904 166.037 366.782 165.449 366.782 164.778C366.782 164.108 366.904 163.517 367.148 163.006C367.395 162.491 367.739 162.091 368.179 161.804C368.623 161.514 369.14 161.369 369.73 161.369C370.071 161.369 370.408 161.426 370.74 161.54C371.073 161.653 371.375 161.838 371.648 162.094C371.921 162.347 372.138 162.682 372.3 163.099C372.462 163.517 372.543 164.031 372.543 164.642V165.068H367.498V164.199H371.52C371.52 163.83 371.446 163.5 371.299 163.21C371.154 162.92 370.946 162.692 370.676 162.524C370.409 162.357 370.094 162.273 369.73 162.273C369.33 162.273 368.983 162.372 368.691 162.571C368.401 162.767 368.178 163.023 368.022 163.338C367.865 163.653 367.787 163.991 367.787 164.352V164.932C367.787 165.426 367.873 165.845 368.043 166.189C368.216 166.53 368.456 166.79 368.763 166.969C369.07 167.145 369.426 167.233 369.833 167.233C370.097 167.233 370.336 167.196 370.549 167.122C370.765 167.045 370.951 166.932 371.107 166.781C371.263 166.628 371.384 166.437 371.469 166.21L372.441 166.483C372.338 166.812 372.167 167.102 371.925 167.352C371.684 167.599 371.385 167.793 371.03 167.932C370.675 168.068 370.276 168.136 369.833 168.136ZM375.078 159.273V168H374.073V159.273H375.078Z" fill="#000300" fill-opacity="0.584314"/>
</g>
<g filter="url(#filter4_i_366_5697)">
<rect width="100" height="28" transform="translate(103 178)" fill="white"/>
<path d="M115.423 196.136C114.792 196.136 114.248 195.997 113.79 195.719C113.336 195.438 112.985 195.045 112.738 194.543C112.494 194.037 112.371 193.449 112.371 192.778C112.371 192.108 112.494 191.517 112.738 191.006C112.985 190.491 113.329 190.091 113.769 189.804C114.212 189.514 114.729 189.369 115.32 189.369C115.661 189.369 115.998 189.426 116.33 189.54C116.663 189.653 116.965 189.838 117.238 190.094C117.511 190.347 117.728 190.682 117.89 191.099C118.052 191.517 118.133 192.031 118.133 192.642V193.068H113.087V192.199H117.11C117.11 191.83 117.036 191.5 116.888 191.21C116.744 190.92 116.536 190.692 116.266 190.524C115.999 190.357 115.684 190.273 115.32 190.273C114.92 190.273 114.573 190.372 114.281 190.571C113.991 190.767 113.768 191.023 113.612 191.338C113.455 191.653 113.377 191.991 113.377 192.352V192.932C113.377 193.426 113.462 193.845 113.633 194.189C113.806 194.53 114.046 194.79 114.353 194.969C114.66 195.145 115.016 195.233 115.423 195.233C115.687 195.233 115.925 195.196 116.138 195.122C116.354 195.045 116.54 194.932 116.697 194.781C116.853 194.628 116.974 194.437 117.059 194.21L118.031 194.483C117.928 194.812 117.756 195.102 117.515 195.352C117.273 195.599 116.975 195.793 116.62 195.932C116.265 196.068 115.866 196.136 115.423 196.136ZM119.799 196V187.273H120.805V190.494H120.89C120.964 190.381 121.066 190.236 121.197 190.06C121.33 189.881 121.521 189.722 121.768 189.582C122.018 189.44 122.356 189.369 122.782 189.369C123.333 189.369 123.819 189.507 124.239 189.783C124.66 190.058 124.988 190.449 125.224 190.955C125.46 191.46 125.577 192.057 125.577 192.744C125.577 193.438 125.46 194.038 125.224 194.547C124.988 195.053 124.661 195.445 124.244 195.723C123.826 195.999 123.344 196.136 122.799 196.136C122.379 196.136 122.042 196.067 121.789 195.928C121.536 195.786 121.342 195.625 121.205 195.446C121.069 195.264 120.964 195.114 120.89 194.994H120.771V196H119.799ZM120.788 192.727C120.788 193.222 120.86 193.658 121.005 194.036C121.15 194.411 121.362 194.705 121.64 194.918C121.918 195.128 122.259 195.233 122.663 195.233C123.083 195.233 123.434 195.122 123.715 194.901C123.999 194.676 124.212 194.375 124.354 193.997C124.499 193.616 124.572 193.193 124.572 192.727C124.572 192.267 124.501 191.852 124.359 191.483C124.219 191.111 124.008 190.817 123.724 190.601C123.442 190.382 123.089 190.273 122.663 190.273C122.254 190.273 121.91 190.376 121.631 190.584C121.353 190.788 121.143 191.075 121.001 191.445C120.859 191.811 120.788 192.239 120.788 192.727ZM129.042 196.153C128.627 196.153 128.251 196.075 127.913 195.919C127.575 195.76 127.306 195.531 127.107 195.233C126.908 194.932 126.809 194.568 126.809 194.142C126.809 193.767 126.883 193.463 127.031 193.23C127.178 192.994 127.376 192.81 127.623 192.676C127.87 192.543 128.143 192.443 128.441 192.378C128.742 192.31 129.045 192.256 129.349 192.216C129.746 192.165 130.069 192.126 130.316 192.101C130.566 192.072 130.748 192.026 130.862 191.96C130.978 191.895 131.036 191.781 131.036 191.619V191.585C131.036 191.165 130.921 190.838 130.691 190.605C130.464 190.372 130.119 190.256 129.656 190.256C129.175 190.256 128.799 190.361 128.526 190.571C128.254 190.781 128.062 191.006 127.951 191.244L126.996 190.903C127.167 190.506 127.394 190.196 127.678 189.974C127.965 189.75 128.278 189.594 128.616 189.506C128.957 189.415 129.292 189.369 129.621 189.369C129.832 189.369 130.073 189.395 130.346 189.446C130.621 189.494 130.887 189.595 131.143 189.749C131.401 189.902 131.616 190.134 131.786 190.443C131.957 190.753 132.042 191.168 132.042 191.688V196H131.036V195.114H130.985C130.917 195.256 130.803 195.408 130.644 195.57C130.485 195.732 130.273 195.869 130.009 195.983C129.745 196.097 129.423 196.153 129.042 196.153ZM129.195 195.25C129.593 195.25 129.928 195.172 130.201 195.016C130.477 194.859 130.684 194.658 130.823 194.411C130.965 194.163 131.036 193.903 131.036 193.631V192.71C130.994 192.761 130.9 192.808 130.755 192.851C130.613 192.891 130.448 192.926 130.261 192.957C130.076 192.986 129.896 193.011 129.719 193.034C129.546 193.054 129.406 193.071 129.298 193.085C129.036 193.119 128.792 193.175 128.565 193.251C128.34 193.325 128.158 193.437 128.019 193.588C127.883 193.736 127.815 193.937 127.815 194.193C127.815 194.543 127.944 194.807 128.202 194.986C128.464 195.162 128.795 195.25 129.195 195.25ZM134.291 198.455C134.12 198.455 133.968 198.44 133.835 198.412C133.701 198.386 133.609 198.361 133.558 198.335L133.814 197.449C134.058 197.511 134.274 197.534 134.461 197.517C134.649 197.5 134.815 197.416 134.96 197.266C135.108 197.118 135.243 196.878 135.365 196.545L135.552 196.034L133.132 189.455H134.223L136.029 194.67H136.098L137.904 189.455H138.995L136.217 196.955C136.092 197.293 135.937 197.572 135.752 197.794C135.568 198.018 135.353 198.185 135.109 198.293C134.868 198.401 134.595 198.455 134.291 198.455ZM141.056 196.068C140.846 196.068 140.665 195.993 140.515 195.842C140.364 195.692 140.289 195.511 140.289 195.301C140.289 195.091 140.364 194.911 140.515 194.76C140.665 194.609 140.846 194.534 141.056 194.534C141.266 194.534 141.446 194.609 141.597 194.76C141.748 194.911 141.823 195.091 141.823 195.301C141.823 195.44 141.787 195.568 141.716 195.685C141.648 195.801 141.556 195.895 141.439 195.966C141.326 196.034 141.198 196.068 141.056 196.068ZM146.287 196.136C145.673 196.136 145.145 195.991 144.701 195.702C144.258 195.412 143.917 195.013 143.679 194.504C143.44 193.996 143.321 193.415 143.321 192.761C143.321 192.097 143.443 191.51 143.687 191.001C143.934 190.49 144.278 190.091 144.718 189.804C145.162 189.514 145.679 189.369 146.27 189.369C146.73 189.369 147.145 189.455 147.514 189.625C147.883 189.795 148.186 190.034 148.422 190.341C148.657 190.648 148.804 191.006 148.86 191.415H147.855C147.778 191.116 147.608 190.852 147.343 190.622C147.082 190.389 146.73 190.273 146.287 190.273C145.895 190.273 145.551 190.375 145.255 190.58C144.963 190.781 144.734 191.067 144.569 191.436C144.407 191.803 144.326 192.233 144.326 192.727C144.326 193.233 144.406 193.673 144.565 194.048C144.727 194.423 144.954 194.714 145.247 194.922C145.542 195.129 145.889 195.233 146.287 195.233C146.548 195.233 146.785 195.188 146.998 195.097C147.211 195.006 147.392 194.875 147.539 194.705C147.687 194.534 147.792 194.33 147.855 194.091H148.86C148.804 194.477 148.663 194.825 148.439 195.135C148.217 195.442 147.923 195.686 147.556 195.868C147.193 196.047 146.77 196.136 146.287 196.136ZM152.99 196.136C152.399 196.136 151.88 195.996 151.434 195.714C150.991 195.433 150.645 195.04 150.395 194.534C150.147 194.028 150.024 193.437 150.024 192.761C150.024 192.08 150.147 191.484 150.395 190.976C150.645 190.467 150.991 190.072 151.434 189.791C151.88 189.51 152.399 189.369 152.99 189.369C153.581 189.369 154.098 189.51 154.541 189.791C154.987 190.072 155.333 190.467 155.581 190.976C155.831 191.484 155.956 192.08 155.956 192.761C155.956 193.437 155.831 194.028 155.581 194.534C155.333 195.04 154.987 195.433 154.541 195.714C154.098 195.996 153.581 196.136 152.99 196.136ZM152.99 195.233C153.439 195.233 153.808 195.118 154.098 194.888C154.387 194.658 154.602 194.355 154.741 193.98C154.88 193.605 154.95 193.199 154.95 192.761C154.95 192.324 154.88 191.916 154.741 191.538C154.602 191.161 154.387 190.855 154.098 190.622C153.808 190.389 153.439 190.273 152.99 190.273C152.541 190.273 152.172 190.389 151.882 190.622C151.592 190.855 151.377 191.161 151.238 191.538C151.099 191.916 151.029 192.324 151.029 192.761C151.029 193.199 151.099 193.605 151.238 193.98C151.377 194.355 151.592 194.658 151.882 194.888C152.172 195.118 152.541 195.233 152.99 195.233ZM157.491 196V189.455H158.462V190.477H158.548C158.684 190.128 158.904 189.857 159.208 189.663C159.512 189.467 159.877 189.369 160.303 189.369C160.735 189.369 161.094 189.467 161.381 189.663C161.671 189.857 161.897 190.128 162.059 190.477H162.127C162.295 190.139 162.546 189.871 162.881 189.672C163.217 189.47 163.619 189.369 164.087 189.369C164.673 189.369 165.151 189.553 165.523 189.919C165.896 190.283 166.082 190.849 166.082 191.619V196H165.076V191.619C165.076 191.136 164.944 190.791 164.68 190.584C164.415 190.376 164.104 190.273 163.746 190.273C163.286 190.273 162.93 190.412 162.677 190.69C162.424 190.966 162.298 191.315 162.298 191.739V196H161.275V191.517C161.275 191.145 161.154 190.845 160.913 190.618C160.671 190.388 160.36 190.273 159.979 190.273C159.718 190.273 159.474 190.342 159.246 190.482C159.022 190.621 158.84 190.814 158.701 191.061C158.565 191.305 158.496 191.588 158.496 191.909V196H157.491Z" fill="#235FE2"/>
</g>
<g filter="url(#filter5_i_366_5697)">
<rect width="83" height="28" transform="translate(203 178)" fill="white"/>
<path d="M249.078 187.273V196H248.021V188.381H247.97L245.839 189.795V188.722L248.021 187.273H249.078ZM255.672 196.119C255.086 196.119 254.569 196.016 254.12 195.808C253.674 195.598 253.326 195.31 253.076 194.943C252.826 194.574 252.703 194.153 252.706 193.682C252.703 193.312 252.775 192.972 252.923 192.659C253.071 192.344 253.272 192.081 253.528 191.871C253.787 191.658 254.075 191.523 254.393 191.466V191.415C253.975 191.307 253.643 191.072 253.396 190.712C253.149 190.348 253.027 189.935 253.029 189.472C253.027 189.028 253.139 188.632 253.366 188.283C253.593 187.933 253.906 187.658 254.304 187.456C254.704 187.254 255.16 187.153 255.672 187.153C256.177 187.153 256.629 187.254 257.027 187.456C257.424 187.658 257.737 187.933 257.964 188.283C258.194 188.632 258.311 189.028 258.314 189.472C258.311 189.935 258.184 190.348 257.934 190.712C257.687 191.072 257.359 191.307 256.95 191.415V191.466C257.265 191.523 257.549 191.658 257.802 191.871C258.055 192.081 258.257 192.344 258.407 192.659C258.558 192.972 258.635 193.312 258.637 193.682C258.635 194.153 258.507 194.574 258.254 194.943C258.004 195.31 257.656 195.598 257.21 195.808C256.767 196.016 256.254 196.119 255.672 196.119ZM255.672 195.182C256.066 195.182 256.407 195.118 256.694 194.99C256.981 194.862 257.203 194.682 257.359 194.449C257.515 194.216 257.595 193.943 257.598 193.631C257.595 193.301 257.51 193.01 257.342 192.757C257.174 192.504 256.946 192.305 256.656 192.161C256.369 192.016 256.041 191.943 255.672 191.943C255.299 191.943 254.967 192.016 254.674 192.161C254.385 192.305 254.156 192.504 253.988 192.757C253.824 193.01 253.743 193.301 253.745 193.631C253.743 193.943 253.818 194.216 253.971 194.449C254.127 194.682 254.35 194.862 254.64 194.99C254.93 195.118 255.274 195.182 255.672 195.182ZM255.672 191.04C255.984 191.04 256.261 190.977 256.502 190.852C256.747 190.727 256.939 190.553 257.078 190.328C257.217 190.104 257.288 189.841 257.291 189.54C257.288 189.244 257.218 188.987 257.082 188.768C256.946 188.547 256.757 188.376 256.515 188.257C256.274 188.135 255.993 188.074 255.672 188.074C255.345 188.074 255.059 188.135 254.815 188.257C254.571 188.376 254.382 188.547 254.248 188.768C254.115 188.987 254.049 189.244 254.052 189.54C254.049 189.841 254.116 190.104 254.252 190.328C254.392 190.553 254.583 190.727 254.828 190.852C255.072 190.977 255.353 191.04 255.672 191.04ZM263.407 196.119C262.907 196.119 262.457 196.02 262.056 195.821C261.656 195.622 261.335 195.349 261.093 195.003C260.852 194.656 260.719 194.261 260.697 193.818H261.719C261.759 194.213 261.938 194.54 262.256 194.798C262.577 195.054 262.961 195.182 263.407 195.182C263.765 195.182 264.083 195.098 264.362 194.93C264.643 194.763 264.863 194.533 265.022 194.24C265.184 193.945 265.265 193.611 265.265 193.239C265.265 192.858 265.181 192.518 265.013 192.22C264.849 191.919 264.621 191.682 264.332 191.509C264.042 191.335 263.711 191.247 263.339 191.244C263.072 191.241 262.798 191.283 262.516 191.368C262.235 191.45 262.004 191.557 261.822 191.688L260.833 191.568L261.362 187.273H265.896V188.21H262.248L261.941 190.784H261.992C262.171 190.642 262.396 190.524 262.665 190.43C262.935 190.337 263.217 190.29 263.509 190.29C264.043 190.29 264.519 190.418 264.937 190.673C265.357 190.926 265.687 191.273 265.925 191.713C266.167 192.153 266.288 192.656 266.288 193.222C266.288 193.778 266.163 194.276 265.913 194.713C265.665 195.148 265.325 195.491 264.89 195.744C264.455 195.994 263.961 196.119 263.407 196.119ZM268.381 187.273H269.642L272.608 194.517H272.711L275.676 187.273H276.938V196H275.949V189.369H275.864L273.137 196H272.182L269.455 189.369H269.37V196H268.381V187.273Z" fill="#000300" fill-opacity="0.584314"/>
</g>
<g filter="url(#filter6_i_366_5697)">
<rect width="98" height="28" transform="translate(286 178)" fill="white"/>
<g clip-path="url(#clip1_366_5697)">
<rect x="294" y="188" width="82" height="8" rx="4" fill="#DDDEDE"/>
<rect width="82" height="8" transform="translate(294 188)" fill="#DDDEDE"/>
<rect x="294" y="188" width="65.6" height="8" rx="4" fill="#B0C1FE"/>
</g>
</g>
<g filter="url(#filter7_i_366_5697)">
<rect width="100" height="28" transform="translate(103 206)" fill="white"/>
<path d="M114.021 224L112.026 217.455H113.083L114.498 222.466H114.566L115.964 217.455H117.038L118.418 222.449H118.487L119.901 217.455H120.958L118.964 224H117.975L116.543 218.972H116.441L115.009 224H114.021ZM124.214 224.153C123.799 224.153 123.423 224.075 123.085 223.919C122.746 223.76 122.478 223.531 122.279 223.233C122.08 222.932 121.981 222.568 121.981 222.142C121.981 221.767 122.055 221.463 122.202 221.23C122.35 220.994 122.548 220.81 122.795 220.676C123.042 220.543 123.315 220.443 123.613 220.378C123.914 220.31 124.217 220.256 124.521 220.216C124.918 220.165 125.241 220.126 125.488 220.101C125.738 220.072 125.92 220.026 126.033 219.96C126.15 219.895 126.208 219.781 126.208 219.619V219.585C126.208 219.165 126.093 218.838 125.863 218.605C125.636 218.372 125.29 218.256 124.827 218.256C124.347 218.256 123.971 218.361 123.698 218.571C123.425 218.781 123.234 219.006 123.123 219.244L122.168 218.903C122.339 218.506 122.566 218.196 122.85 217.974C123.137 217.75 123.45 217.594 123.788 217.506C124.129 217.415 124.464 217.369 124.793 217.369C125.004 217.369 125.245 217.395 125.518 217.446C125.793 217.494 126.059 217.595 126.315 217.749C126.573 217.902 126.788 218.134 126.958 218.443C127.129 218.753 127.214 219.168 127.214 219.688V224H126.208V223.114H126.157C126.089 223.256 125.975 223.408 125.816 223.57C125.657 223.732 125.445 223.869 125.181 223.983C124.917 224.097 124.594 224.153 124.214 224.153ZM124.367 223.25C124.765 223.25 125.1 223.172 125.373 223.016C125.648 222.859 125.856 222.658 125.995 222.411C126.137 222.163 126.208 221.903 126.208 221.631V220.71C126.165 220.761 126.072 220.808 125.927 220.851C125.785 220.891 125.62 220.926 125.433 220.957C125.248 220.986 125.067 221.011 124.891 221.034C124.718 221.054 124.577 221.071 124.469 221.085C124.208 221.119 123.964 221.175 123.737 221.251C123.512 221.325 123.33 221.437 123.191 221.588C123.055 221.736 122.987 221.937 122.987 222.193C122.987 222.543 123.116 222.807 123.374 222.986C123.636 223.162 123.967 223.25 124.367 223.25ZM130.055 215.273V224H129.049V215.273H130.055ZM131.897 224V217.455H132.869V218.477H132.954C133.09 218.128 133.31 217.857 133.614 217.663C133.918 217.467 134.283 217.369 134.71 217.369C135.141 217.369 135.501 217.467 135.788 217.663C136.077 217.857 136.303 218.128 136.465 218.477H136.533C136.701 218.139 136.952 217.871 137.288 217.672C137.623 217.47 138.025 217.369 138.494 217.369C139.079 217.369 139.558 217.553 139.93 217.919C140.302 218.283 140.488 218.849 140.488 219.619V224H139.482V219.619C139.482 219.136 139.35 218.791 139.086 218.584C138.822 218.376 138.511 218.273 138.153 218.273C137.692 218.273 137.336 218.412 137.083 218.69C136.83 218.966 136.704 219.315 136.704 219.739V224H135.681V219.517C135.681 219.145 135.56 218.845 135.319 218.618C135.077 218.388 134.766 218.273 134.386 218.273C134.124 218.273 133.88 218.342 133.653 218.482C133.428 218.621 133.246 218.814 133.107 219.061C132.971 219.305 132.903 219.588 132.903 219.909V224H131.897ZM144.253 224.153C143.838 224.153 143.462 224.075 143.124 223.919C142.786 223.76 142.517 223.531 142.318 223.233C142.119 222.932 142.02 222.568 142.02 222.142C142.02 221.767 142.094 221.463 142.241 221.23C142.389 220.994 142.587 220.81 142.834 220.676C143.081 220.543 143.354 220.443 143.652 220.378C143.953 220.31 144.256 220.256 144.56 220.216C144.957 220.165 145.28 220.126 145.527 220.101C145.777 220.072 145.959 220.026 146.072 219.96C146.189 219.895 146.247 219.781 146.247 219.619V219.585C146.247 219.165 146.132 218.838 145.902 218.605C145.675 218.372 145.33 218.256 144.866 218.256C144.386 218.256 144.01 218.361 143.737 218.571C143.464 218.781 143.273 219.006 143.162 219.244L142.207 218.903C142.378 218.506 142.605 218.196 142.889 217.974C143.176 217.75 143.489 217.594 143.827 217.506C144.168 217.415 144.503 217.369 144.832 217.369C145.043 217.369 145.284 217.395 145.557 217.446C145.832 217.494 146.098 217.595 146.354 217.749C146.612 217.902 146.827 218.134 146.997 218.443C147.168 218.753 147.253 219.168 147.253 219.688V224H146.247V223.114H146.196C146.128 223.256 146.014 223.408 145.855 223.57C145.696 223.732 145.484 223.869 145.22 223.983C144.956 224.097 144.634 224.153 144.253 224.153ZM144.406 223.25C144.804 223.25 145.139 223.172 145.412 223.016C145.688 222.859 145.895 222.658 146.034 222.411C146.176 222.163 146.247 221.903 146.247 221.631V220.71C146.205 220.761 146.111 220.808 145.966 220.851C145.824 220.891 145.659 220.926 145.472 220.957C145.287 220.986 145.107 221.011 144.93 221.034C144.757 221.054 144.616 221.071 144.509 221.085C144.247 221.119 144.003 221.175 143.776 221.251C143.551 221.325 143.369 221.437 143.23 221.588C143.094 221.736 143.026 221.937 143.026 222.193C143.026 222.543 143.155 222.807 143.413 222.986C143.675 223.162 144.006 223.25 144.406 223.25ZM149.088 224V217.455H150.06V218.443H150.128C150.248 218.119 150.463 217.857 150.776 217.655C151.088 217.453 151.441 217.352 151.833 217.352C151.907 217.352 151.999 217.354 152.11 217.357C152.221 217.359 152.304 217.364 152.361 217.369V218.392C152.327 218.384 152.249 218.371 152.127 218.354C152.007 218.334 151.881 218.324 151.748 218.324C151.429 218.324 151.145 218.391 150.895 218.524C150.648 218.655 150.452 218.837 150.307 219.07C150.165 219.3 150.094 219.562 150.094 219.858V224H149.088ZM156.81 217.455V218.307H153.418V217.455H156.81ZM154.407 215.886H155.412V222.125C155.412 222.409 155.453 222.622 155.536 222.764C155.621 222.903 155.729 222.997 155.86 223.045C155.993 223.091 156.134 223.114 156.282 223.114C156.392 223.114 156.483 223.108 156.554 223.097C156.625 223.082 156.682 223.071 156.725 223.062L156.929 223.966C156.861 223.991 156.766 224.017 156.644 224.043C156.522 224.071 156.367 224.085 156.179 224.085C155.895 224.085 155.617 224.024 155.344 223.902C155.074 223.78 154.85 223.594 154.671 223.344C154.495 223.094 154.407 222.778 154.407 222.398V215.886ZM159.056 224.068C158.846 224.068 158.665 223.993 158.515 223.842C158.364 223.692 158.289 223.511 158.289 223.301C158.289 223.091 158.364 222.911 158.515 222.76C158.665 222.609 158.846 222.534 159.056 222.534C159.266 222.534 159.446 222.609 159.597 222.76C159.748 222.911 159.823 223.091 159.823 223.301C159.823 223.44 159.787 223.568 159.716 223.685C159.648 223.801 159.556 223.895 159.439 223.966C159.326 224.034 159.198 224.068 159.056 224.068ZM164.287 224.136C163.673 224.136 163.145 223.991 162.701 223.702C162.258 223.412 161.917 223.013 161.679 222.504C161.44 221.996 161.321 221.415 161.321 220.761C161.321 220.097 161.443 219.51 161.687 219.001C161.934 218.49 162.278 218.091 162.718 217.804C163.162 217.514 163.679 217.369 164.27 217.369C164.73 217.369 165.145 217.455 165.514 217.625C165.883 217.795 166.186 218.034 166.422 218.341C166.657 218.648 166.804 219.006 166.86 219.415H165.855C165.778 219.116 165.608 218.852 165.343 218.622C165.082 218.389 164.73 218.273 164.287 218.273C163.895 218.273 163.551 218.375 163.255 218.58C162.963 218.781 162.734 219.067 162.569 219.436C162.407 219.803 162.326 220.233 162.326 220.727C162.326 221.233 162.406 221.673 162.565 222.048C162.727 222.423 162.954 222.714 163.247 222.922C163.542 223.129 163.889 223.233 164.287 223.233C164.548 223.233 164.785 223.188 164.998 223.097C165.211 223.006 165.392 222.875 165.539 222.705C165.687 222.534 165.792 222.33 165.855 222.091H166.86C166.804 222.477 166.663 222.825 166.439 223.135C166.217 223.442 165.923 223.686 165.556 223.868C165.193 224.047 164.77 224.136 164.287 224.136ZM170.99 224.136C170.399 224.136 169.88 223.996 169.434 223.714C168.991 223.433 168.645 223.04 168.395 222.534C168.147 222.028 168.024 221.437 168.024 220.761C168.024 220.08 168.147 219.484 168.395 218.976C168.645 218.467 168.991 218.072 169.434 217.791C169.88 217.51 170.399 217.369 170.99 217.369C171.581 217.369 172.098 217.51 172.541 217.791C172.987 218.072 173.333 218.467 173.581 218.976C173.831 219.484 173.956 220.08 173.956 220.761C173.956 221.437 173.831 222.028 173.581 222.534C173.333 223.04 172.987 223.433 172.541 223.714C172.098 223.996 171.581 224.136 170.99 224.136ZM170.99 223.233C171.439 223.233 171.808 223.118 172.098 222.888C172.387 222.658 172.602 222.355 172.741 221.98C172.88 221.605 172.95 221.199 172.95 220.761C172.95 220.324 172.88 219.916 172.741 219.538C172.602 219.161 172.387 218.855 172.098 218.622C171.808 218.389 171.439 218.273 170.99 218.273C170.541 218.273 170.172 218.389 169.882 218.622C169.592 218.855 169.377 219.161 169.238 219.538C169.099 219.916 169.029 220.324 169.029 220.761C169.029 221.199 169.099 221.605 169.238 221.98C169.377 222.355 169.592 222.658 169.882 222.888C170.172 223.118 170.541 223.233 170.99 223.233ZM175.491 224V217.455H176.462V218.477H176.548C176.684 218.128 176.904 217.857 177.208 217.663C177.512 217.467 177.877 217.369 178.303 217.369C178.735 217.369 179.094 217.467 179.381 217.663C179.671 217.857 179.897 218.128 180.059 218.477H180.127C180.295 218.139 180.546 217.871 180.881 217.672C181.217 217.47 181.619 217.369 182.087 217.369C182.673 217.369 183.151 217.553 183.523 217.919C183.896 218.283 184.082 218.849 184.082 219.619V224H183.076V219.619C183.076 219.136 182.944 218.791 182.68 218.584C182.415 218.376 182.104 218.273 181.746 218.273C181.286 218.273 180.93 218.412 180.677 218.69C180.424 218.966 180.298 219.315 180.298 219.739V224H179.275V219.517C179.275 219.145 179.154 218.845 178.913 218.618C178.671 218.388 178.36 218.273 177.979 218.273C177.718 218.273 177.474 218.342 177.246 218.482C177.022 218.621 176.84 218.814 176.701 219.061C176.565 219.305 176.496 219.588 176.496 219.909V224H175.491Z" fill="#235FE2"/>
</g>
<g filter="url(#filter8_i_366_5697)">
<rect width="83" height="28" transform="translate(203 206)" fill="white"/>
<path d="M252.944 224V223.233L255.825 220.08C256.163 219.71 256.441 219.389 256.66 219.116C256.879 218.841 257.041 218.582 257.146 218.341C257.254 218.097 257.308 217.841 257.308 217.574C257.308 217.267 257.234 217.001 257.086 216.777C256.941 216.553 256.743 216.379 256.49 216.257C256.237 216.135 255.953 216.074 255.637 216.074C255.302 216.074 255.01 216.143 254.76 216.283C254.512 216.419 254.321 216.611 254.184 216.858C254.051 217.105 253.984 217.395 253.984 217.727H252.978C252.978 217.216 253.096 216.767 253.332 216.381C253.568 215.994 253.889 215.693 254.295 215.477C254.704 215.261 255.163 215.153 255.672 215.153C256.183 215.153 256.636 215.261 257.031 215.477C257.426 215.693 257.735 215.984 257.96 216.351C258.184 216.717 258.297 217.125 258.297 217.574C258.297 217.895 258.238 218.209 258.122 218.516C258.008 218.82 257.809 219.159 257.525 219.534C257.244 219.906 256.853 220.361 256.353 220.898L254.393 222.994V223.062H258.45V224H252.944ZM263.407 224.119C262.907 224.119 262.457 224.02 262.056 223.821C261.656 223.622 261.335 223.349 261.093 223.003C260.852 222.656 260.719 222.261 260.697 221.818H261.719C261.759 222.213 261.938 222.54 262.256 222.798C262.577 223.054 262.961 223.182 263.407 223.182C263.765 223.182 264.083 223.098 264.362 222.93C264.643 222.763 264.863 222.533 265.022 222.24C265.184 221.945 265.265 221.611 265.265 221.239C265.265 220.858 265.181 220.518 265.013 220.22C264.849 219.919 264.621 219.682 264.332 219.509C264.042 219.335 263.711 219.247 263.339 219.244C263.072 219.241 262.798 219.283 262.516 219.368C262.235 219.45 262.004 219.557 261.822 219.688L260.833 219.568L261.362 215.273H265.896V216.21H262.248L261.941 218.784H261.992C262.171 218.642 262.396 218.524 262.665 218.43C262.935 218.337 263.217 218.29 263.509 218.29C264.043 218.29 264.519 218.418 264.937 218.673C265.357 218.926 265.687 219.273 265.925 219.713C266.167 220.153 266.288 220.656 266.288 221.222C266.288 221.778 266.163 222.276 265.913 222.713C265.665 223.148 265.325 223.491 264.89 223.744C264.455 223.994 263.961 224.119 263.407 224.119ZM268.381 215.273H269.642L272.608 222.517H272.711L275.676 215.273H276.938V224H275.949V217.369H275.864L273.137 224H272.182L269.455 217.369H269.37V224H268.381V215.273Z" fill="#000300" fill-opacity="0.584314"/>
</g>
<g filter="url(#filter9_i_366_5697)">
<rect width="98" height="28" transform="translate(286 206)" fill="white"/>
<g clip-path="url(#clip2_366_5697)">
<rect x="294" y="216" width="82" height="8" rx="4" fill="#DDDEDE"/>
<rect width="82" height="8" transform="translate(294 216)" fill="#DDDEDE"/>
<rect x="294" y="216" width="32.8" height="8" rx="4" fill="#B0C1FE"/>
</g>
</g>
<path d="M103.885 128.818H106.54L109.344 135.659H109.463L112.267 128.818H114.922V139H112.834V132.373H112.749L110.114 138.95H108.692L106.058 132.348H105.973V139H103.885V128.818ZM118.833 139.144C118.346 139.144 117.912 139.06 117.531 138.891C117.15 138.718 116.848 138.465 116.626 138.13C116.407 137.792 116.298 137.371 116.298 136.867C116.298 136.443 116.376 136.087 116.531 135.798C116.687 135.51 116.899 135.278 117.168 135.102C117.436 134.927 117.741 134.794 118.083 134.705C118.427 134.615 118.789 134.552 119.166 134.516C119.61 134.469 119.968 134.426 120.24 134.386C120.512 134.343 120.709 134.28 120.832 134.197C120.954 134.115 121.016 133.992 121.016 133.83V133.8C121.016 133.485 120.916 133.241 120.718 133.069C120.522 132.897 120.244 132.81 119.882 132.81C119.501 132.81 119.198 132.895 118.972 133.064C118.747 133.23 118.598 133.438 118.525 133.69L116.566 133.531C116.666 133.067 116.861 132.666 117.153 132.328C117.445 131.987 117.821 131.725 118.281 131.543C118.745 131.357 119.282 131.264 119.892 131.264C120.316 131.264 120.722 131.314 121.11 131.413C121.501 131.513 121.848 131.667 122.149 131.876C122.454 132.085 122.695 132.353 122.87 132.681C123.046 133.006 123.134 133.395 123.134 133.849V139H121.125V137.941H121.066C120.943 138.18 120.779 138.39 120.573 138.572C120.368 138.751 120.121 138.892 119.833 138.995C119.544 139.094 119.211 139.144 118.833 139.144ZM119.44 137.683C119.751 137.683 120.026 137.621 120.265 137.499C120.504 137.373 120.691 137.204 120.827 136.991C120.963 136.779 121.031 136.539 121.031 136.271V135.46C120.964 135.503 120.873 135.543 120.757 135.58C120.645 135.613 120.517 135.644 120.374 135.674C120.232 135.701 120.089 135.725 119.947 135.749C119.804 135.768 119.675 135.787 119.559 135.803C119.311 135.84 119.093 135.898 118.908 135.977C118.722 136.057 118.578 136.165 118.475 136.3C118.373 136.433 118.321 136.599 118.321 136.798C118.321 137.086 118.426 137.306 118.634 137.459C118.847 137.608 119.115 137.683 119.44 137.683ZM124.777 139V131.364H126.895V139H124.777ZM125.841 130.379C125.526 130.379 125.256 130.275 125.03 130.066C124.808 129.854 124.697 129.6 124.697 129.305C124.697 129.014 124.808 128.763 125.03 128.555C125.256 128.343 125.526 128.237 125.841 128.237C126.156 128.237 126.424 128.343 126.646 128.555C126.872 128.763 126.984 129.014 126.984 129.305C126.984 129.6 126.872 129.854 126.646 130.066C126.424 130.275 126.156 130.379 125.841 130.379ZM130.709 134.585V139H128.591V131.364H130.61V132.711H130.699C130.868 132.267 131.152 131.915 131.549 131.657C131.947 131.395 132.429 131.264 132.996 131.264C133.526 131.264 133.989 131.38 134.383 131.612C134.778 131.844 135.084 132.176 135.303 132.607C135.522 133.034 135.631 133.545 135.631 134.138V139H133.513V134.516C133.516 134.048 133.397 133.684 133.155 133.422C132.913 133.157 132.58 133.024 132.156 133.024C131.871 133.024 131.619 133.085 131.4 133.208C131.185 133.331 131.016 133.51 130.893 133.745C130.774 133.977 130.712 134.257 130.709 134.585ZM149.937 133.909C149.937 135.019 149.726 135.964 149.305 136.743C148.888 137.522 148.318 138.117 147.595 138.528C146.876 138.935 146.067 139.139 145.169 139.139C144.264 139.139 143.452 138.934 142.733 138.523C142.014 138.112 141.445 137.517 141.028 136.738C140.61 135.959 140.401 135.016 140.401 133.909C140.401 132.799 140.61 131.854 141.028 131.075C141.445 130.296 142.014 129.703 142.733 129.295C143.452 128.884 144.264 128.679 145.169 128.679C146.067 128.679 146.876 128.884 147.595 129.295C148.318 129.703 148.888 130.296 149.305 131.075C149.726 131.854 149.937 132.799 149.937 133.909ZM147.754 133.909C147.754 133.19 147.647 132.583 147.431 132.089C147.219 131.596 146.919 131.221 146.531 130.966C146.143 130.711 145.689 130.583 145.169 130.583C144.649 130.583 144.195 130.711 143.807 130.966C143.419 131.221 143.117 131.596 142.902 132.089C142.69 132.583 142.584 133.19 142.584 133.909C142.584 134.628 142.69 135.235 142.902 135.729C143.117 136.223 143.419 136.597 143.807 136.852C144.195 137.107 144.649 137.235 145.169 137.235C145.689 137.235 146.143 137.107 146.531 136.852C146.919 136.597 147.219 136.223 147.431 135.729C147.647 135.235 147.754 134.628 147.754 133.909ZM151.492 139V131.364H153.545V132.696H153.624C153.764 132.222 153.997 131.864 154.325 131.622C154.654 131.377 155.031 131.254 155.459 131.254C155.565 131.254 155.679 131.261 155.802 131.274C155.925 131.287 156.032 131.306 156.125 131.329V133.208C156.026 133.178 155.888 133.152 155.713 133.129C155.537 133.105 155.376 133.094 155.23 133.094C154.919 133.094 154.64 133.162 154.395 133.298C154.153 133.43 153.961 133.616 153.818 133.854C153.679 134.093 153.61 134.368 153.61 134.68V139H151.492ZM160.305 142.023C159.619 142.023 159.031 141.928 158.54 141.739C158.053 141.554 157.665 141.3 157.377 140.979C157.088 140.657 156.901 140.296 156.815 139.895L158.774 139.631C158.833 139.784 158.928 139.926 159.057 140.059C159.186 140.192 159.357 140.298 159.569 140.377C159.785 140.46 160.047 140.501 160.355 140.501C160.815 140.501 161.195 140.389 161.493 140.163C161.795 139.941 161.946 139.568 161.946 139.045V137.648H161.856C161.763 137.86 161.624 138.06 161.439 138.249C161.253 138.438 161.014 138.592 160.723 138.712C160.431 138.831 160.083 138.891 159.679 138.891C159.105 138.891 158.583 138.758 158.113 138.493C157.645 138.224 157.272 137.815 156.994 137.265C156.719 136.711 156.581 136.012 156.581 135.167C156.581 134.302 156.722 133.579 157.004 132.999C157.286 132.419 157.66 131.985 158.127 131.697C158.598 131.408 159.114 131.264 159.674 131.264C160.101 131.264 160.459 131.337 160.748 131.483C161.036 131.625 161.268 131.804 161.444 132.02C161.623 132.232 161.76 132.441 161.856 132.646H161.936V131.364H164.039V139.075C164.039 139.724 163.88 140.268 163.561 140.705C163.243 141.143 162.802 141.471 162.239 141.69C161.679 141.912 161.034 142.023 160.305 142.023ZM160.35 137.3C160.691 137.3 160.98 137.215 161.215 137.046C161.453 136.874 161.636 136.629 161.762 136.31C161.891 135.989 161.956 135.604 161.956 135.157C161.956 134.71 161.893 134.322 161.767 133.994C161.641 133.662 161.458 133.405 161.22 133.223C160.981 133.041 160.691 132.95 160.35 132.95C160.002 132.95 159.708 133.044 159.47 133.233C159.231 133.419 159.051 133.677 158.928 134.009C158.805 134.34 158.744 134.723 158.744 135.157C158.744 135.598 158.805 135.979 158.928 136.3C159.054 136.619 159.234 136.866 159.47 137.041C159.708 137.214 160.002 137.3 160.35 137.3ZM167.902 139.144C167.414 139.144 166.98 139.06 166.599 138.891C166.218 138.718 165.916 138.465 165.694 138.13C165.475 137.792 165.366 137.371 165.366 136.867C165.366 136.443 165.444 136.087 165.6 135.798C165.756 135.51 165.968 135.278 166.236 135.102C166.505 134.927 166.81 134.794 167.151 134.705C167.496 134.615 167.857 134.552 168.235 134.516C168.679 134.469 169.037 134.426 169.309 134.386C169.58 134.343 169.778 134.28 169.9 134.197C170.023 134.115 170.084 133.992 170.084 133.83V133.8C170.084 133.485 169.985 133.241 169.786 133.069C169.59 132.897 169.312 132.81 168.951 132.81C168.569 132.81 168.266 132.895 168.041 133.064C167.815 133.23 167.666 133.438 167.593 133.69L165.635 133.531C165.734 133.067 165.93 132.666 166.221 132.328C166.513 131.987 166.889 131.725 167.35 131.543C167.814 131.357 168.351 131.264 168.961 131.264C169.385 131.264 169.791 131.314 170.179 131.413C170.57 131.513 170.916 131.667 171.218 131.876C171.523 132.085 171.763 132.353 171.939 132.681C172.114 133.006 172.202 133.395 172.202 133.849V139H170.194V137.941H170.134C170.011 138.18 169.847 138.39 169.642 138.572C169.436 138.751 169.189 138.892 168.901 138.995C168.613 139.094 168.279 139.144 167.902 139.144ZM168.508 137.683C168.82 137.683 169.095 137.621 169.333 137.499C169.572 137.373 169.759 137.204 169.895 136.991C170.031 136.779 170.099 136.539 170.099 136.271V135.46C170.033 135.503 169.942 135.543 169.826 135.58C169.713 135.613 169.585 135.644 169.443 135.674C169.3 135.701 169.158 135.725 169.015 135.749C168.873 135.768 168.743 135.787 168.627 135.803C168.379 135.84 168.162 135.898 167.976 135.977C167.791 136.057 167.646 136.165 167.544 136.3C167.441 136.433 167.39 136.599 167.39 136.798C167.39 137.086 167.494 137.306 167.703 137.459C167.915 137.608 168.183 137.683 168.508 137.683ZM175.963 134.585V139H173.845V131.364H175.864V132.711H175.953C176.122 132.267 176.406 131.915 176.803 131.657C177.201 131.395 177.683 131.264 178.25 131.264C178.78 131.264 179.243 131.38 179.637 131.612C180.031 131.844 180.338 132.176 180.557 132.607C180.776 133.034 180.885 133.545 180.885 134.138V139H178.767V134.516C178.77 134.048 178.651 133.684 178.409 133.422C178.167 133.157 177.834 133.024 177.41 133.024C177.125 133.024 176.873 133.085 176.654 133.208C176.439 133.331 176.27 133.51 176.147 133.745C176.028 133.977 175.966 134.257 175.963 134.585ZM182.554 139V131.364H184.672V139H182.554ZM183.618 130.379C183.303 130.379 183.033 130.275 182.808 130.066C182.586 129.854 182.475 129.6 182.475 129.305C182.475 129.014 182.586 128.763 182.808 128.555C183.033 128.343 183.303 128.237 183.618 128.237C183.933 128.237 184.201 128.343 184.423 128.555C184.649 128.763 184.762 129.014 184.762 129.305C184.762 129.6 184.649 129.854 184.423 130.066C184.201 130.275 183.933 130.379 183.618 130.379ZM189.819 139.149C189.037 139.149 188.364 138.983 187.8 138.652C187.24 138.317 186.809 137.853 186.508 137.26C186.21 136.667 186.06 135.984 186.06 135.212C186.06 134.429 186.211 133.743 186.513 133.153C186.818 132.56 187.25 132.098 187.81 131.766C188.371 131.432 189.037 131.264 189.809 131.264C190.475 131.264 191.058 131.385 191.559 131.627C192.059 131.869 192.455 132.209 192.747 132.646C193.039 133.084 193.2 133.598 193.229 134.188H191.231C191.174 133.806 191.025 133.5 190.783 133.268C190.545 133.032 190.232 132.915 189.844 132.915C189.516 132.915 189.229 133.004 188.984 133.183C188.742 133.359 188.553 133.616 188.417 133.954C188.281 134.292 188.213 134.701 188.213 135.182C188.213 135.669 188.279 136.083 188.412 136.425C188.548 136.766 188.738 137.026 188.984 137.205C189.229 137.384 189.516 137.474 189.844 137.474C190.086 137.474 190.303 137.424 190.495 137.325C190.691 137.225 190.851 137.081 190.977 136.892C191.107 136.7 191.191 136.469 191.231 136.201H193.229C193.196 136.784 193.037 137.298 192.752 137.742C192.47 138.183 192.081 138.528 191.584 138.776C191.087 139.025 190.498 139.149 189.819 139.149ZM206.849 132.383H204.672C204.632 132.101 204.551 131.851 204.428 131.632C204.305 131.41 204.148 131.221 203.956 131.065C203.763 130.91 203.541 130.79 203.289 130.707C203.041 130.625 202.771 130.583 202.479 130.583C201.952 130.583 201.493 130.714 201.102 130.976C200.711 131.234 200.408 131.612 200.192 132.109C199.977 132.603 199.869 133.203 199.869 133.909C199.869 134.635 199.977 135.245 200.192 135.739C200.411 136.232 200.716 136.605 201.107 136.857C201.498 137.109 201.95 137.235 202.464 137.235C202.752 137.235 203.019 137.197 203.265 137.121C203.513 137.045 203.734 136.933 203.926 136.788C204.118 136.638 204.277 136.458 204.403 136.246C204.532 136.034 204.622 135.792 204.672 135.52L206.849 135.53C206.793 135.997 206.652 136.448 206.426 136.882C206.204 137.313 205.904 137.699 205.527 138.04C205.152 138.379 204.705 138.647 204.184 138.846C203.667 139.041 203.082 139.139 202.429 139.139C201.521 139.139 200.709 138.934 199.993 138.523C199.281 138.112 198.717 137.517 198.303 136.738C197.892 135.959 197.686 135.016 197.686 133.909C197.686 132.799 197.895 131.854 198.313 131.075C198.73 130.296 199.297 129.703 200.013 129.295C200.729 128.884 201.534 128.679 202.429 128.679C203.019 128.679 203.566 128.762 204.07 128.928C204.577 129.093 205.026 129.335 205.417 129.653C205.808 129.968 206.127 130.354 206.372 130.812C206.62 131.269 206.779 131.793 206.849 132.383ZM211.803 139.149C211.031 139.149 210.363 138.985 209.8 138.657C209.24 138.326 208.807 137.865 208.502 137.275C208.197 136.682 208.045 135.994 208.045 135.212C208.045 134.423 208.197 133.733 208.502 133.143C208.807 132.55 209.24 132.089 209.8 131.761C210.363 131.43 211.031 131.264 211.803 131.264C212.576 131.264 213.242 131.43 213.802 131.761C214.365 132.089 214.799 132.55 215.104 133.143C215.409 133.733 215.562 134.423 215.562 135.212C215.562 135.994 215.409 136.682 215.104 137.275C214.799 137.865 214.365 138.326 213.802 138.657C213.242 138.985 212.576 139.149 211.803 139.149ZM211.813 137.509C212.165 137.509 212.458 137.409 212.693 137.21C212.929 137.008 213.106 136.733 213.225 136.385C213.348 136.037 213.409 135.641 213.409 135.197C213.409 134.753 213.348 134.357 213.225 134.009C213.106 133.661 212.929 133.385 212.693 133.183C212.458 132.981 212.165 132.88 211.813 132.88C211.459 132.88 211.16 132.981 210.918 133.183C210.68 133.385 210.499 133.661 210.376 134.009C210.257 134.357 210.197 134.753 210.197 135.197C210.197 135.641 210.257 136.037 210.376 136.385C210.499 136.733 210.68 137.008 210.918 137.21C211.16 137.409 211.459 137.509 211.813 137.509ZM216.939 139V131.364H218.957V132.711H219.047C219.206 132.263 219.471 131.911 219.842 131.652C220.214 131.393 220.658 131.264 221.175 131.264C221.698 131.264 222.144 131.395 222.512 131.657C222.88 131.915 223.125 132.267 223.248 132.711H223.327C223.483 132.273 223.765 131.924 224.173 131.662C224.584 131.397 225.069 131.264 225.629 131.264C226.342 131.264 226.92 131.491 227.364 131.945C227.812 132.396 228.036 133.036 228.036 133.864V139H225.923V134.282C225.923 133.858 225.81 133.54 225.585 133.327C225.359 133.115 225.077 133.009 224.739 133.009C224.355 133.009 224.055 133.132 223.839 133.377C223.624 133.619 223.516 133.939 223.516 134.337V139H221.463V134.237C221.463 133.863 221.355 133.564 221.14 133.342C220.928 133.12 220.648 133.009 220.3 133.009C220.064 133.009 219.852 133.069 219.663 133.188C219.478 133.304 219.33 133.468 219.221 133.68C219.112 133.889 219.057 134.134 219.057 134.416V139H216.939ZM229.708 141.864V131.364H231.797V132.646H231.891C231.984 132.441 232.118 132.232 232.294 132.02C232.473 131.804 232.705 131.625 232.99 131.483C233.278 131.337 233.636 131.264 234.064 131.264C234.62 131.264 235.134 131.41 235.605 131.702C236.075 131.99 236.452 132.426 236.733 133.009C237.015 133.589 237.156 134.317 237.156 135.192C237.156 136.044 237.018 136.763 236.743 137.349C236.471 137.933 236.1 138.375 235.63 138.677C235.162 138.975 234.639 139.124 234.059 139.124C233.648 139.124 233.298 139.056 233.01 138.92C232.725 138.785 232.491 138.614 232.309 138.408C232.126 138.2 231.987 137.989 231.891 137.777H231.826V141.864H229.708ZM231.782 135.182C231.782 135.636 231.845 136.032 231.971 136.37C232.096 136.708 232.279 136.972 232.517 137.161C232.756 137.346 233.046 137.439 233.387 137.439C233.732 137.439 234.024 137.344 234.262 137.156C234.501 136.963 234.682 136.698 234.804 136.36C234.93 136.019 234.993 135.626 234.993 135.182C234.993 134.741 234.932 134.353 234.809 134.018C234.687 133.684 234.506 133.422 234.267 133.233C234.029 133.044 233.735 132.95 233.387 132.95C233.043 132.95 232.751 133.041 232.512 133.223C232.277 133.405 232.096 133.664 231.971 133.999C231.845 134.333 231.782 134.728 231.782 135.182ZM242.048 139.149C241.262 139.149 240.586 138.99 240.02 138.672C239.456 138.35 239.022 137.896 238.717 137.31C238.412 136.72 238.26 136.022 238.26 135.217C238.26 134.431 238.412 133.742 238.717 133.148C239.022 132.555 239.451 132.093 240.005 131.761C240.561 131.43 241.214 131.264 241.963 131.264C242.467 131.264 242.936 131.345 243.37 131.508C243.808 131.667 244.189 131.907 244.514 132.229C244.842 132.55 245.097 132.955 245.279 133.442C245.462 133.926 245.553 134.492 245.553 135.142V135.724H239.105V134.411H243.559C243.559 134.106 243.493 133.836 243.36 133.601C243.228 133.366 243.044 133.182 242.809 133.049C242.577 132.913 242.306 132.845 241.998 132.845C241.677 132.845 241.392 132.92 241.143 133.069C240.898 133.215 240.706 133.412 240.566 133.661C240.427 133.906 240.356 134.179 240.353 134.481V135.729C240.353 136.107 240.422 136.433 240.561 136.708C240.704 136.983 240.904 137.195 241.163 137.344C241.422 137.494 241.728 137.568 242.083 137.568C242.318 137.568 242.533 137.535 242.729 137.469C242.925 137.402 243.092 137.303 243.231 137.17C243.37 137.038 243.476 136.875 243.549 136.683L245.508 136.812C245.409 137.283 245.205 137.694 244.897 138.045C244.592 138.393 244.197 138.665 243.713 138.861C243.233 139.053 242.678 139.149 242.048 139.149ZM250.997 131.364V132.955H246.398V131.364H250.997ZM247.442 129.534H249.56V136.653C249.56 136.849 249.59 137.001 249.65 137.111C249.709 137.217 249.792 137.291 249.898 137.335C250.007 137.378 250.133 137.399 250.276 137.399C250.375 137.399 250.475 137.391 250.574 137.374C250.674 137.354 250.75 137.339 250.803 137.33L251.136 138.906C251.03 138.939 250.881 138.977 250.689 139.02C250.496 139.066 250.263 139.094 249.988 139.104C249.477 139.124 249.03 139.056 248.645 138.901C248.264 138.745 247.967 138.503 247.755 138.175C247.543 137.847 247.439 137.432 247.442 136.932V129.534ZM252.376 139V131.364H254.494V139H252.376ZM253.44 130.379C253.125 130.379 252.855 130.275 252.63 130.066C252.408 129.854 252.297 129.6 252.297 129.305C252.297 129.014 252.408 128.763 252.63 128.555C252.855 128.343 253.125 128.237 253.44 128.237C253.755 128.237 254.024 128.343 254.246 128.555C254.471 128.763 254.584 129.014 254.584 129.305C254.584 129.6 254.471 129.854 254.246 130.066C254.024 130.275 253.755 130.379 253.44 130.379ZM260.253 131.364V132.955H255.654V131.364H260.253ZM256.698 129.534H258.816V136.653C258.816 136.849 258.846 137.001 258.905 137.111C258.965 137.217 259.048 137.291 259.154 137.335C259.263 137.378 259.389 137.399 259.532 137.399C259.631 137.399 259.731 137.391 259.83 137.374C259.93 137.354 260.006 137.339 260.059 137.33L260.392 138.906C260.286 138.939 260.137 138.977 259.944 139.02C259.752 139.066 259.519 139.094 259.243 139.104C258.733 139.124 258.286 139.056 257.901 138.901C257.52 138.745 257.223 138.503 257.011 138.175C256.799 137.847 256.695 137.432 256.698 136.932V129.534ZM265.001 139.149C264.228 139.149 263.56 138.985 262.997 138.657C262.437 138.326 262.004 137.865 261.699 137.275C261.394 136.682 261.242 135.994 261.242 135.212C261.242 134.423 261.394 133.733 261.699 133.143C262.004 132.55 262.437 132.089 262.997 131.761C263.56 131.43 264.228 131.264 265.001 131.264C265.773 131.264 266.439 131.43 266.999 131.761C267.563 132.089 267.997 132.55 268.302 133.143C268.607 133.733 268.759 134.423 268.759 135.212C268.759 135.994 268.607 136.682 268.302 137.275C267.997 137.865 267.563 138.326 266.999 138.657C266.439 138.985 265.773 139.149 265.001 139.149ZM265.01 137.509C265.362 137.509 265.655 137.409 265.89 137.21C266.126 137.008 266.303 136.733 266.422 136.385C266.545 136.037 266.606 135.641 266.606 135.197C266.606 134.753 266.545 134.357 266.422 134.009C266.303 133.661 266.126 133.385 265.89 133.183C265.655 132.981 265.362 132.88 265.01 132.88C264.656 132.88 264.358 132.981 264.116 133.183C263.877 133.385 263.696 133.661 263.574 134.009C263.454 134.357 263.395 134.753 263.395 135.197C263.395 135.641 263.454 136.037 263.574 136.385C263.696 136.733 263.877 137.008 264.116 137.21C264.358 137.409 264.656 137.509 265.01 137.509ZM270.136 139V131.364H272.189V132.696H272.269C272.408 132.222 272.642 131.864 272.97 131.622C273.298 131.377 273.676 131.254 274.104 131.254C274.21 131.254 274.324 131.261 274.447 131.274C274.569 131.287 274.677 131.306 274.77 131.329V133.208C274.67 133.178 274.533 133.152 274.357 133.129C274.181 133.105 274.021 133.094 273.875 133.094C273.563 133.094 273.285 133.162 273.04 133.298C272.798 133.43 272.605 133.616 272.463 133.854C272.324 134.093 272.254 134.368 272.254 134.68V139H270.136ZM282.218 133.541L280.279 133.661C280.246 133.495 280.175 133.346 280.066 133.213C279.956 133.077 279.812 132.969 279.633 132.89C279.458 132.807 279.247 132.766 279.002 132.766C278.674 132.766 278.397 132.835 278.172 132.974C277.946 133.11 277.833 133.293 277.833 133.521C277.833 133.704 277.906 133.858 278.052 133.984C278.198 134.11 278.448 134.211 278.803 134.287L280.185 134.565C280.927 134.718 281.481 134.963 281.846 135.301C282.21 135.639 282.392 136.083 282.392 136.634C282.392 137.134 282.245 137.573 281.95 137.951C281.658 138.329 281.257 138.624 280.747 138.836C280.24 139.045 279.655 139.149 278.992 139.149C277.981 139.149 277.176 138.939 276.576 138.518C275.979 138.094 275.629 137.517 275.527 136.788L277.61 136.678C277.673 136.987 277.825 137.222 278.067 137.384C278.309 137.543 278.619 137.623 278.997 137.623C279.368 137.623 279.666 137.552 279.892 137.409C280.12 137.263 280.236 137.076 280.24 136.847C280.236 136.655 280.155 136.498 279.996 136.375C279.837 136.249 279.592 136.153 279.26 136.087L277.938 135.823C277.192 135.674 276.637 135.415 276.272 135.048C275.911 134.68 275.73 134.211 275.73 133.641C275.73 133.15 275.863 132.728 276.128 132.373C276.397 132.018 276.773 131.745 277.257 131.553C277.744 131.36 278.314 131.264 278.967 131.264C279.931 131.264 280.69 131.468 281.244 131.876C281.801 132.283 282.126 132.839 282.218 133.541Z" fill="#000300" fill-opacity="0.584314"/>
</g>
</g>
<defs>
<filter id="filter0_d_366_5697" x="-4" y="4" width="341" height="206" filterUnits="userSpaceOnUse" color-interpolation-filters="sRGB">
<feFlood flood-opacity="0" result="BackgroundImageFix"/>
<feColorMatrix in="SourceAlpha" type="matrix" values="0 0 0 0 0 0 0 0 0 0 0 0 0 0 0 0 0 0 127 0" result="hardAlpha"/>
<feOffset dy="8"/>
<feGaussianBlur stdDeviation="16"/>
<feComposite in2="hardAlpha" operator="out"/>
<feColorMatrix type="matrix" values="0 0 0 0 0.0980392 0 0 0 0 0.105882 0 0 0 0 0.137255 0 0 0 0.08 0"/>
<feBlend mode="normal" in2="BackgroundImageFix" result="effect1_dropShadow_366_5697"/>
<feBlend mode="normal" in="SourceGraphic" in2="effect1_dropShadow_366_5697" result="shape"/>
</filter>
<filter id="filter1_d_366_5697" x="55" y="84" width="377" height="206" filterUnits="userSpaceOnUse" color-interpolation-filters="sRGB">
<feFlood flood-opacity="0" result="BackgroundImageFix"/>
<feColorMatrix in="SourceAlpha" type="matrix" values="0 0 0 0 0 0 0 0 0 0 0 0 0 0 0 0 0 0 127 0" result="hardAlpha"/>
<feOffset dy="8"/>
<feGaussianBlur stdDeviation="16"/>
<feComposite in2="hardAlpha" operator="out"/>
<feColorMatrix type="matrix" values="0 0 0 0 0.0980392 0 0 0 0 0.105882 0 0 0 0 0.137255 0 0 0 0.08 0"/>
<feBlend mode="normal" in2="BackgroundImageFix" result="effect1_dropShadow_366_5697"/>
<feBlend mode="normal" in="SourceGraphic" in2="effect1_dropShadow_366_5697" result="shape"/>
</filter>
<filter id="filter2_i_366_5697" x="196.667" y="150" width="93.667" height="28" filterUnits="userSpaceOnUse" color-interpolation-filters="sRGB">
<feFlood flood-opacity="0" result="BackgroundImageFix"/>
<feBlend mode="normal" in="SourceGraphic" in2="BackgroundImageFix" result="shape"/>
<feColorMatrix in="SourceAlpha" type="matrix" values="0 0 0 0 0 0 0 0 0 0 0 0 0 0 0 0 0 0 127 0" result="hardAlpha"/>
<feOffset dy="-1"/>
<feComposite in2="hardAlpha" operator="arithmetic" k2="-1" k3="1"/>
<feColorMatrix type="matrix" values="0 0 0 0 0.878431 0 0 0 0 0.882353 0 0 0 0 0.913725 0 0 0 1 0"/>
<feBlend mode="normal" in2="shape" result="effect1_innerShadow_366_5697"/>
</filter>
<filter id="filter3_i_366_5697" x="290.333" y="150" width="93.667" height="28" filterUnits="userSpaceOnUse" color-interpolation-filters="sRGB">
<feFlood flood-opacity="0" result="BackgroundImageFix"/>
<feBlend mode="normal" in="SourceGraphic" in2="BackgroundImageFix" result="shape"/>
<feColorMatrix in="SourceAlpha" type="matrix" values="0 0 0 0 0 0 0 0 0 0 0 0 0 0 0 0 0 0 127 0" result="hardAlpha"/>
<feOffset dy="-1"/>
<feComposite in2="hardAlpha" operator="arithmetic" k2="-1" k3="1"/>
<feColorMatrix type="matrix" values="0 0 0 0 0.878431 0 0 0 0 0.882353 0 0 0 0 0.913725 0 0 0 1 0"/>
<feBlend mode="normal" in2="shape" result="effect1_innerShadow_366_5697"/>
</filter>
<filter id="filter4_i_366_5697" x="103" y="178" width="100" height="28" filterUnits="userSpaceOnUse" color-interpolation-filters="sRGB">
<feFlood flood-opacity="0" result="BackgroundImageFix"/>
<feBlend mode="normal" in="SourceGraphic" in2="BackgroundImageFix" result="shape"/>
<feColorMatrix in="SourceAlpha" type="matrix" values="0 0 0 0 0 0 0 0 0 0 0 0 0 0 0 0 0 0 127 0" result="hardAlpha"/>
<feOffset dy="-1"/>
<feComposite in2="hardAlpha" operator="arithmetic" k2="-1" k3="1"/>
<feColorMatrix type="matrix" values="0 0 0 0 0.878431 0 0 0 0 0.882353 0 0 0 0 0.913725 0 0 0 1 0"/>
<feBlend mode="normal" in2="shape" result="effect1_innerShadow_366_5697"/>
</filter>
<filter id="filter5_i_366_5697" x="203" y="178" width="83" height="28" filterUnits="userSpaceOnUse" color-interpolation-filters="sRGB">
<feFlood flood-opacity="0" result="BackgroundImageFix"/>
<feBlend mode="normal" in="SourceGraphic" in2="BackgroundImageFix" result="shape"/>
<feColorMatrix in="SourceAlpha" type="matrix" values="0 0 0 0 0 0 0 0 0 0 0 0 0 0 0 0 0 0 127 0" result="hardAlpha"/>
<feOffset dy="-1"/>
<feComposite in2="hardAlpha" operator="arithmetic" k2="-1" k3="1"/>
<feColorMatrix type="matrix" values="0 0 0 0 0.878431 0 0 0 0 0.882353 0 0 0 0 0.913725 0 0 0 1 0"/>
<feBlend mode="normal" in2="shape" result="effect1_innerShadow_366_5697"/>
</filter>
<filter id="filter6_i_366_5697" x="286" y="178" width="98" height="28" filterUnits="userSpaceOnUse" color-interpolation-filters="sRGB">
<feFlood flood-opacity="0" result="BackgroundImageFix"/>
<feBlend mode="normal" in="SourceGraphic" in2="BackgroundImageFix" result="shape"/>
<feColorMatrix in="SourceAlpha" type="matrix" values="0 0 0 0 0 0 0 0 0 0 0 0 0 0 0 0 0 0 127 0" result="hardAlpha"/>
<feOffset dy="-1"/>
<feComposite in2="hardAlpha" operator="arithmetic" k2="-1" k3="1"/>
<feColorMatrix type="matrix" values="0 0 0 0 0.878431 0 0 0 0 0.882353 0 0 0 0 0.913725 0 0 0 1 0"/>
<feBlend mode="normal" in2="shape" result="effect1_innerShadow_366_5697"/>
</filter>
<filter id="filter7_i_366_5697" x="103" y="206" width="100" height="28" filterUnits="userSpaceOnUse" color-interpolation-filters="sRGB">
<feFlood flood-opacity="0" result="BackgroundImageFix"/>
<feBlend mode="normal" in="SourceGraphic" in2="BackgroundImageFix" result="shape"/>
<feColorMatrix in="SourceAlpha" type="matrix" values="0 0 0 0 0 0 0 0 0 0 0 0 0 0 0 0 0 0 127 0" result="hardAlpha"/>
<feOffset dy="-1"/>
<feComposite in2="hardAlpha" operator="arithmetic" k2="-1" k3="1"/>
<feColorMatrix type="matrix" values="0 0 0 0 0.878431 0 0 0 0 0.882353 0 0 0 0 0.913725 0 0 0 1 0"/>
<feBlend mode="normal" in2="shape" result="effect1_innerShadow_366_5697"/>
</filter>
<filter id="filter8_i_366_5697" x="203" y="206" width="83" height="28" filterUnits="userSpaceOnUse" color-interpolation-filters="sRGB">
<feFlood flood-opacity="0" result="BackgroundImageFix"/>
<feBlend mode="normal" in="SourceGraphic" in2="BackgroundImageFix" result="shape"/>
<feColorMatrix in="SourceAlpha" type="matrix" values="0 0 0 0 0 0 0 0 0 0 0 0 0 0 0 0 0 0 127 0" result="hardAlpha"/>
<feOffset dy="-1"/>
<feComposite in2="hardAlpha" operator="arithmetic" k2="-1" k3="1"/>
<feColorMatrix type="matrix" values="0 0 0 0 0.878431 0 0 0 0 0.882353 0 0 0 0 0.913725 0 0 0 1 0"/>
<feBlend mode="normal" in2="shape" result="effect1_innerShadow_366_5697"/>
</filter>
<filter id="filter9_i_366_5697" x="286" y="206" width="98" height="28" filterUnits="userSpaceOnUse" color-interpolation-filters="sRGB">
<feFlood flood-opacity="0" result="BackgroundImageFix"/>
<feBlend mode="normal" in="SourceGraphic" in2="BackgroundImageFix" result="shape"/>
<feColorMatrix in="SourceAlpha" type="matrix" values="0 0 0 0 0 0 0 0 0 0 0 0 0 0 0 0 0 0 127 0" result="hardAlpha"/>
<feOffset dy="-1"/>
<feComposite in2="hardAlpha" operator="arithmetic" k2="-1" k3="1"/>
<feColorMatrix type="matrix" values="0 0 0 0 0.878431 0 0 0 0 0.882353 0 0 0 0 0.913725 0 0 0 1 0"/>
<feBlend mode="normal" in2="shape" result="effect1_innerShadow_366_5697"/>
</filter>
<clipPath id="clip0_366_5697">
<rect width="430" height="280" fill="white"/>
</clipPath>
<clipPath id="clip1_366_5697">
<rect x="294" y="188" width="82" height="8" rx="4" fill="white"/>
</clipPath>
<clipPath id="clip2_366_5697">
<rect x="294" y="216" width="82" height="8" rx="4" fill="white"/>
</clipPath>
</defs>
</svg>
