<svg xmlns="http://www.w3.org/2000/svg" width="62" height="15" fill="none" viewBox="0 0 62 15"><path fill="#eb1000" d="M54.88 7.93h3.63c-.2-1.22-1-1.72-1.84-1.72s-1.52.52-1.8 1.72m-3.74 1.24c0-3.57 2.5-5.76 5.5-5.76 2.8 0 5.37 1.8 5.37 5.42q0 .73-.08 1.43h-7c.4 1.27 1.52 1.87 2.91 1.87 1.14 0 2.19-.28 3.36-.8v2.85a8 8 0 0 1-3.74.8c-3.56 0-6.32-2.15-6.32-5.81M43.25 6.6v5.18q.36.13.83.13c1.27 0 2.47-.9 2.47-2.83 0-1.8-1.16-2.66-2.4-2.66q-.5.01-.9.17m.73 8.41c-1.46 0-3.3-.3-4.45-.83V0h3.73v3.54a8 8 0 0 1 1.39-.15c2.93 0 5.63 1.93 5.63 5.65 0 3.95-2.9 5.96-6.3 5.96m-11.1-3.13c1.08 0 2.05-.86 2.05-2.68s-.96-2.68-2.06-2.68-2.03.86-2.03 2.68.94 2.68 2.03 2.68m0 3.11c-3.13 0-5.74-2.1-5.74-5.78s2.6-5.79 5.73-5.79 5.76 2.1 5.76 5.79-2.63 5.78-5.76 5.78m-11.24-3.07q.49 0 .87-.12V6.58q-.37-.17-.9-.18c-1.24 0-2.37.93-2.37 2.83s1.15 2.68 2.4 2.68m.09 3.09c-3.36 0-6.21-1.91-6.21-5.7s2.76-5.9 5.63-5.9q.67 0 1.37.16V0h3.72v14.14c-.85.39-2.67.86-4.51.86M0 14.79 6.01.43h4.22l5.97 14.35h-4.47L7.96 5.25 5.48 11.5h2.95l1.18 3.28z"/></svg>
