<svg xmlns="http://www.w3.org/2000/svg" width="269" height="238" fill="none"><path fill="#c190ff" d="m171.607-116.588-4.985-4.985-5.78 6.029L56.807-7.022l-5.78 6.029 6.03-5.78 108.521-104.035zM177.271-110.92l-4.985-4.985-5.78 6.029L62.471-1.354l-5.78 6.029 6.03-5.78L171.241-105.14zM182.939-105.256l-4.985-4.984-5.78 6.028L68.139 4.31l-5.78 6.029 6.03-5.78L176.91-99.476zM188.614-99.58l-4.985-4.985-5.779 6.03L73.815 9.984l-5.78 6.03 6.03-5.78L182.584-93.8zM194.274-93.916 189.29-98.9l-5.78 6.03L79.475 15.648l-5.78 6.03 6.03-5.78L188.245-88.136zM199.95-88.244l-4.985-4.985-5.779 6.03L85.151 21.32l-5.78 6.03 6.03-5.78L193.92-82.464zM205.618-82.572l-4.985-4.985-5.779 6.03L90.819 26.992l-5.78 6.03 6.03-5.78 108.52-104.035zM211.286-76.908l-4.985-4.985-5.779 6.03L96.487 32.656l-5.78 6.03 6.029-5.78L205.257-71.128zM216.962-71.232l-4.985-4.985-5.78 6.029L96.383 44.362l6.029-5.78L210.933-65.452zM222.622-65.568l-4.985-4.985-5.779 6.029L107.823 43.997l-5.78 6.03 6.029-5.78L216.593-59.788zM228.29-59.9l-4.985-4.985-5.779 6.029L113.491 49.665l-5.78 6.03 6.029-5.78L222.261-54.12zM233.958-54.232l-4.985-4.985-5.779 6.029L119.159 55.333l-5.78 6.03 6.029-5.78L227.929-48.453zM239.634-48.56l-4.985-4.985-5.78 6.029L124.834 61.005l-5.779 6.029 6.029-5.78L233.605-42.78zM245.302-42.892l-4.985-4.985-5.78 6.029L130.502 66.673l-5.779 6.029 6.029-5.78L239.273-37.113zM250.962-37.228l-4.985-4.985-5.78 6.029L136.163 72.337l-5.78 6.029 6.029-5.78L244.933-31.449zM256.638-31.556l-4.985-4.985-5.78 6.029-104.035 108.52-5.779 6.03 6.029-5.78L250.609-25.777zM262.31-25.884l-4.985-4.985-5.78 6.029L147.51 83.68l-5.779 6.03 6.028-5.78L256.281-20.105zM267.974-20.217l-4.985-4.984-5.78 6.029-104.035 108.52-5.779 6.03 6.029-5.78L261.945-14.437zM273.649-14.545l-4.984-4.984-5.78 6.028L158.85 95.021l-5.78 6.029 6.029-5.78L267.621-8.765zM279.314-8.88l-4.985-4.985-5.78 6.028-104.035 108.522-5.78 6.029 6.029-5.78L273.285-3.101zM284.989-3.205l-4.985-4.985-5.779 6.03L170.19 106.36l-5.78 6.029 6.029-5.779L278.96 2.575zM290.653 2.46l-4.984-4.986-5.78 6.03-104.035 108.521-5.78 6.029 6.029-5.78L284.624 8.239zM296.321 8.127l-4.984-4.985-5.78 6.03-104.035 108.521-5.78 6.028 6.029-5.779L290.292 13.907zM301.997 13.803l-4.985-4.985-5.779 6.03-104.035 108.52-5.78 6.029 6.029-5.779L295.968 19.583zM307.665 19.47l-4.985-4.984-5.779 6.029-104.035 108.521-5.78 6.029 6.029-5.779L301.636 25.251zM313.329 25.135l-4.985-4.985-5.779 6.03L198.53 134.7l-5.78 6.029 6.029-5.779L307.3 30.915zM318.997 30.803l-4.985-4.985-5.779 6.03-104.035 108.52-5.78 6.029 6.029-5.779L312.968 36.583zM324.673 36.479l-4.985-4.985-5.78 6.029-104.034 108.521-5.78 6.029 6.029-5.78L318.644 42.258zM330.341 42.147l-4.985-4.985-5.78 6.029-104.035 108.521-5.779 6.029 6.029-5.78L324.312 47.926zM336.001 47.807l-4.985-4.985-5.78 6.029-104.034 108.521-5.78 6.029 6.029-5.78L329.972 53.587zM341.677 53.483l-4.985-4.985-5.78 6.029-104.035 108.521-5.779 6.029 6.029-5.78L335.648 59.262zM347.345 59.15l-4.985-4.984-5.78 6.029-104.035 108.521-5.779 6.029 6.029-5.78L341.316 64.93zM353.013 64.819l-4.985-4.985-5.78 6.029-104.035 108.521-5.779 6.029 6.029-5.78L346.984 70.598zM358.685 70.49l-4.985-4.984-5.78 6.029-104.035 108.521-5.779 6.029 6.028-5.78L352.656 76.27zM364.353 76.158l-4.985-4.984-5.78 6.028-104.035 108.522-5.78 6.029 6.029-5.78L358.324 81.938zM370.024 81.83l-4.984-4.984-5.78 6.028-104.035 108.522-5.78 6.029 6.029-5.78L363.996 87.61zM375.692 87.498l-4.984-4.985-5.78 6.03-104.035 108.521-5.78 6.029 6.029-5.78L369.664 93.278zM381.357 93.162l-4.985-4.984-5.78 6.029-104.035 108.521-5.78 6.029 6.029-5.78L375.328 98.942zM387.028 98.834l-4.984-4.985-5.78 6.03L272.229 208.4l-5.78 6.029 6.029-5.78 108.521-104.035z"/></svg>