<svg xmlns="http://www.w3.org/2000/svg" width="48" height="463" fill="none"><path fill="#c190ff" d="M0 463h6.88l-.173-23.15-3.096-416.7L3.44 0l-.172 23.15-3.096 416.7z"/><path fill="#18f0bf" d="M0 462.354h6.88l-.173-11.575-3.096-208.35-.172-11.575-.172 11.575-3.096 208.35z"/><path fill="#c190ff" d="M16 463h6.88l-.173-23.15-3.096-416.7L19.44 0l-.172 23.15-3.095 416.7z"/><path fill="#18f0bf" d="M16 462.354h6.88l-.173-11.575-3.096-208.35-.172-11.575-.172 11.575-3.095 208.35z"/><path fill="#c190ff" d="M32 463h6.88l-.173-23.15-3.096-416.7L35.44 0l-.172 23.15-3.096 416.7z"/><path fill="#18f0bf" d="M32 462.354h6.88l-.173-11.575-3.096-208.35-.171-11.575-.172 11.575-3.096 208.35z"/></svg>