<svg xmlns="http://www.w3.org/2000/svg" width="189" height="250" fill="none"><path fill="#c190ff" d="M-12.701 246.133v7.05l5.235-.176 94.23-3.173 5.235-.176-5.235-.176-94.23-3.173zM-12.701 238.12v7.05l5.235-.176 94.23-3.172 5.235-.177-5.235-.176-94.23-3.172zM-12.701 230.11v7.05l5.235-.177 94.23-3.172 5.235-.176-5.235-.176-94.23-3.173zM-12.701 222.081v7.049l5.235-.176 94.23-3.172 5.235-.176-5.235-.177-94.23-3.172zM-12.701 214.069v7.05l5.235-.177 94.23-3.172 5.235-.176-5.235-.176-94.23-3.173zM-12.701 206.046v7.049l5.235-.176 94.23-3.172 5.235-.177-5.235-.176-94.23-3.172zM-12.701 198.028v7.05l5.235-.177 94.23-3.172 5.235-.176-5.235-.177-94.23-3.172zM-12.701 190.015v7.05l5.235-.176 94.23-3.173 5.235-.176-5.235-.176-94.23-3.173zM-12.701 181.999v7.049l5.235-.176 94.23-3.172 5.235-.176-5.235-.177-94.23-3.172zM-12.701 173.976v7.05l5.235-.176 94.23-3.173 5.235-.176-5.235-.176-94.23-3.173zM-12.701 165.963v7.05l5.235-.176 94.23-3.172 5.235-.177-5.235-.176-94.23-3.172zM-12.701 157.952v7.049l5.235-.176 94.23-3.172 5.235-.176-5.235-.177-94.23-3.172zM-12.701 149.927v7.05l5.235-.176 94.23-3.173 5.235-.176-5.235-.176-94.23-3.172zM-12.701 141.917v7.05l5.235-.176 94.23-3.173 5.235-.176-5.235-.176-94.23-3.172zM-12.701 133.893v7.05l5.235-.176 94.23-3.173 5.235-.176-5.235-.176-94.23-3.173zM-12.701 125.876v7.049l5.235-.176 94.23-3.172 5.235-.177-5.235-.176-94.23-3.172zM-12.701 117.863v7.05l5.235-.177 94.23-3.172 5.235-.176-5.235-.177-94.23-3.172zM-12.701 109.846v7.05l5.235-.176 94.23-3.173 5.235-.176-5.235-.176-94.23-3.172zM-12.701 101.824v7.049l5.235-.176 94.23-3.172 5.235-.176-5.235-.177L-7.466 102zM-12.701 93.806v7.049l5.235-.176 94.23-3.172 5.235-.177-5.235-.176-94.23-3.172zM-12.701 85.783v7.05l5.235-.177 94.23-3.172 5.235-.176-5.235-.176-94.23-3.173zM-12.701 77.765v7.05l5.235-.177 94.23-3.172 5.235-.176-5.235-.176-94.23-3.173zM-12.701 69.758v7.05l5.235-.177 94.23-3.172 5.235-.176-5.235-.176-94.23-3.173zM-12.701 61.73v7.05l5.235-.177 94.23-3.172 5.235-.176-5.235-.176-94.23-3.173zM-12.701 53.723v7.05l5.235-.176 94.23-3.173 5.235-.176-5.235-.176-94.23-3.172zM-12.701 45.7v7.05l5.235-.176 94.23-3.172 5.235-.176-5.235-.177-94.23-3.172zM-12.701 37.688v7.05l5.235-.176 94.23-3.173 5.235-.176-5.235-.176-94.23-3.173zM-12.701 29.666v7.05l5.235-.177 94.23-3.172 5.235-.177-5.235-.176-94.23-3.172zM-12.701 21.653v7.05l5.235-.177 94.23-3.172 5.235-.176L86.764 25l-94.23-3.172zM-12.701 13.635v7.05l5.235-.176 94.23-3.173 5.235-.176-5.235-.176-94.23-3.173zM-12.701 5.625v7.05l5.235-.177 94.23-3.172 5.235-.177-5.235-.176-94.23-3.172zM-12.701-2.4v7.05l5.235-.176L86.764 1.3l5.235-.176-5.235-.176-94.23-3.173z"/><path fill="#c190ff" d="M-44 248.715v7.05l3.93-.177 70.728-3.172 3.93-.176-3.93-.176-70.729-3.173zM-44 240.702v7.05l3.93-.176 74.658-3.349-3.93-.176-70.729-3.172zM-44 232.692v7.05l3.93-.176 74.658-3.349-3.93-.176-70.729-3.172zM-44 224.662v7.05l3.93-.176 70.728-3.173 3.93-.176-3.93-.176-70.729-3.172zM-44 216.651v7.049l3.93-.176 70.728-3.172 3.93-.176-3.93-.177-70.729-3.172zM-44 208.639v7.05l3.93-.177 70.728-3.172 3.93-.176-3.93-.176-70.729-3.173zM-44 200.61v7.049l3.93-.176 70.728-3.172 3.93-.176-3.93-.177-70.729-3.172zM-44 192.604v7.049l3.93-.176 70.728-3.172 3.93-.176-3.93-.177-70.729-3.172zM-44 184.58v7.05l3.93-.176 70.728-3.173 3.93-.176-3.93-.176-70.729-3.172zM-44 176.558v7.05l3.93-.177 70.728-3.172 3.93-.176-3.93-.176-70.729-3.173zM-44 168.545v7.05l3.93-.176 70.728-3.173 3.93-.176-3.93-.176-70.729-3.172zM-44 160.523v7.049l3.93-.176 70.728-3.172 3.93-.176-3.93-.177-70.729-3.172zM-44 152.51v7.05l3.93-.176 70.728-3.173 3.93-.176-3.93-.176-70.729-3.173zM-44 144.498v7.05l3.93-.176 70.728-3.173 3.93-.176-3.93-.176-70.729-3.172zM-44 136.48v7.049l3.93-.176 70.728-3.172 3.93-.176-3.93-.177-70.729-3.172zM-44 128.457v7.05l3.93-.176 70.728-3.173 3.93-.176-3.93-.176-70.729-3.172zM-44 120.441v7.049l3.93-.176 70.728-3.172 3.93-.176-3.93-.177-70.729-3.172zM-44 112.434v7.05l3.93-.177 70.728-3.172 3.93-.176-3.93-.176-70.729-3.173zM-44 104.41v7.05l3.93-.176 70.728-3.173 3.93-.176-3.93-.176-70.729-3.172zM-44 96.388v7.05l3.93-.177 70.728-3.172 3.93-.176-3.93-.176-70.729-3.173zM-44 88.375v7.05l3.93-.176 70.728-3.173 3.93-.176-3.93-.176-70.729-3.172zM-44 80.353v7.05l3.93-.177 70.728-3.172 3.93-.176-3.93-.177-70.729-3.172zM-44 72.34v7.05l3.93-.176 70.728-3.173 3.93-.176-3.93-.176-70.729-3.173zM-44 64.317v7.05l3.93-.176 70.728-3.172 3.93-.177-3.93-.176-70.729-3.172zM-44 56.305v7.05l3.93-.177 70.728-3.172 3.93-.176-3.93-.177-70.729-3.172zM-44 48.288v7.05l3.93-.177 70.728-3.172 3.93-.177-3.93-.176-70.729-3.172zM-44 40.26v7.05l3.93-.177 70.728-3.172 3.93-.176-3.93-.177-70.729-3.172zM-44 32.246v7.05l3.93-.176 70.728-3.172 3.93-.177-3.93-.176-70.729-3.172zM-44 24.235v7.05l3.93-.177 70.728-3.172 3.93-.177-3.93-.176-70.729-3.172zM-44 16.224v7.05l3.93-.177 70.728-3.172 3.93-.176-3.93-.176L-40.07 16.4zM-44 8.196v7.05l3.93-.177 70.728-3.172 3.93-.177-3.93-.176-70.729-3.172zM-44 .177v7.05l3.93-.177 70.728-3.172 3.93-.176-3.93-.176L-40.07.353z"/></svg>