<svg xmlns="http://www.w3.org/2000/svg" width="189" height="180" fill="none" viewBox="0 0 189 180">
  <path fill="#c190ff" d="M-12.701 176.133v7.05l5.235-.176 94.23-3.173 5.235-.176-5.235-.176-94.23-3.173zM-12.701 168.12v7.05l5.235-.176 94.23-3.172 5.235-.177-5.235-.176-94.23-3.172zM-12.701 160.11v7.05l5.235-.177 94.23-3.172 5.235-.176-5.235-.176-94.23-3.173zM-12.701 152.081v7.049l5.235-.176 94.23-3.172 5.235-.176-5.235-.177-94.23-3.172zM-12.701 144.069v7.05l5.235-.177 94.23-3.172 5.235-.176-5.235-.176-94.23-3.173zM-12.701 136.046v7.049l5.235-.176 94.23-3.172 5.235-.177-5.235-.176-94.23-3.172zM-12.701 128.028v7.05l5.235-.177 94.23-3.172 5.235-.176-5.235-.177-94.23-3.172zM-12.701 120.015v7.05l5.235-.176 94.23-3.173 5.235-.176-5.235-.176-94.23-3.173zM-12.701 111.999v7.049l5.235-.176 94.23-3.172 5.235-.176-5.235-.177-94.23-3.172zM-12.701 103.976v7.05l5.235-.176 94.23-3.173 5.235-.176-5.235-.176-94.23-3.173zM-12.701 95.963v7.05l5.235-.176 94.23-3.172 5.235-.177-5.235-.176-94.23-3.172zM-12.701 87.952v7.049l5.235-.176 94.23-3.172 5.235-.176-5.235-.177-94.23-3.172zM-12.701 79.927v7.05l5.235-.176 94.23-3.173 5.235-.176-5.235-.176-94.23-3.172zM-12.701 71.917v7.05l5.235-.176 94.23-3.173 5.235-.176-5.235-.176-94.23-3.172zM-12.701 63.893v7.05l5.235-.176 94.23-3.173 5.235-.176-5.235-.176-94.23-3.173zM-12.701 55.876v7.049l5.235-.176 94.23-3.172 5.235-.177-5.235-.176-94.23-3.172zM-12.701 47.863v7.05l5.235-.177 94.23-3.172 5.235-.176-5.235-.177-94.23-3.172zM-12.701 39.846v7.05l5.235-.176 94.23-3.173 5.235-.176-5.235-.176-94.23-3.172zM-12.701 31.824v7.049l5.235-.176 94.23-3.172 5.235-.176-5.235-.177L-7.466 32zM-12.701 23.806v7.049l5.235-.176 94.23-3.172 5.235-.177-5.235-.176-94.23-3.172zM-12.701 15.783v7.05l5.235-.177 94.23-3.172 5.235-.176-5.235-.176-94.23-3.173zM-12.701 7.765v7.05l5.235-.177 94.23-3.172 5.235-.176-5.235-.176-94.23-3.173zM-12.701-.242v7.05l5.235-.177 94.23-3.172 5.235-.176-5.235-.176-94.23-3.173z"/>
</svg>
