<svg xmlns="http://www.w3.org/2000/svg" width="79" height="30" fill="none"><path fill="#181e15" d="M41.636 9.03c0 .865-.716 1.562-1.604 1.562s-1.604-.697-1.604-1.562.69-1.562 1.604-1.562c.913.024 1.604.721 1.604 1.562m-6.614 3.147v.385s-.765-.961-2.394-.961c-2.69 0-4.788 1.994-4.788 4.756 0 2.74 2.073 4.757 4.788 4.757 1.653 0 2.394-.985 2.394-.985v.409c0 .192.148.336.345.336h2V11.84h-2a.35.35 0 0 0-.345.336m0 5.79c-.37.529-1.11.985-2 .985-1.579 0-2.788-.961-2.788-2.595 0-1.633 1.21-2.594 2.789-2.594.863 0 1.653.48 1.999.985zm3.825-6.126h2.37v9.033h-2.37zm35.39-.24c-1.629 0-2.394.96-2.394.96V7.493h-2.37v13.382h2a.35.35 0 0 0 .345-.336v-.409s.765.985 2.394.985c2.69 0 4.788-2.018 4.788-4.757s-2.098-4.756-4.763-4.756m-.395 7.327c-.913 0-1.629-.457-1.999-.985v-3.22c.37-.48 1.16-.984 2-.984 1.578 0 2.788.96 2.788 2.594s-1.21 2.595-2.789 2.595m-5.602-3.411v5.38h-2.37v-5.116c0-1.49-.493-2.09-1.826-2.09-.715 0-1.456.36-1.924.889v6.294h-2.37V11.84h1.876c.197 0 .345.168.345.336v.385c.691-.697 1.605-.961 2.518-.961q1.554 0 2.591.864c.84.673 1.16 1.538 1.16 3.052M54 11.6c-1.629 0-2.394.96-2.394.96V7.493h-2.37v13.382h2a.35.35 0 0 0 .346-.336v-.409s.764.985 2.393.985c2.69 0 4.788-2.018 4.788-4.757.025-2.738-2.073-4.756-4.763-4.756m-.395 7.327c-.913 0-1.629-.457-1.999-.985v-3.22c.37-.48 1.16-.984 2-.984 1.579 0 2.788.96 2.788 2.594s-1.21 2.595-2.789 2.595M47.19 11.6c.715 0 1.086.12 1.086.12v2.138s-1.975-.649-3.209.72v6.319h-2.369V11.84h1.999c.197 0 .346.168.346.336v.385c.444-.505 1.406-.961 2.147-.961m-24.605 8.456c-.124-.288-.247-.6-.37-.865-.198-.432-.396-.84-.568-1.225l-.025-.024a248 248 0 0 0-5.454-10.859l-.074-.144c-.198-.36-.395-.745-.592-1.13-.247-.432-.494-.888-.889-1.32A4.03 4.03 0 0 0 11.478 3c-1.234 0-2.345.529-3.16 1.441-.37.433-.64.89-.888 1.322-.197.384-.394.769-.592 1.129l-.074.144A279 279 0 0 0 1.31 17.895l-.025.048c-.172.384-.37.793-.567 1.225q-.186.397-.37.865c-.321.889-.42 1.73-.297 2.595.272 1.801 1.506 3.315 3.209 3.988A5.2 5.2 0 0 0 5.259 27a6.641 6.641 0 0 0 3.11-.865c1.011-.552 1.974-1.345 3.06-2.498 1.085 1.153 2.073 1.946 3.06 2.498a6.64 6.64 0 0 0 3.11.865c.69 0 1.381-.12 1.998-.384a5.12 5.12 0 0 0 3.209-3.988c.197-.841.098-1.682-.223-2.57m-11.13 1.25c-1.334-1.634-2.197-3.172-2.493-4.47-.124-.552-.148-1.032-.074-1.465.049-.384.197-.72.394-1.009.47-.648 1.26-1.057 2.172-1.057s1.728.385 2.172 1.057c.197.289.345.625.395 1.01.074.432.05.936-.074 1.465-.296 1.273-1.16 2.81-2.493 4.468m9.846 1.128c-.173 1.25-1.036 2.33-2.246 2.811-.592.24-1.234.313-1.875.24a4.95 4.95 0 0 1-1.876-.624c-.888-.48-1.777-1.225-2.813-2.33 1.628-1.946 2.616-3.724 2.986-5.31a5.9 5.9 0 0 0 .123-2.042 3.84 3.84 0 0 0-.666-1.633c-.765-1.082-2.048-1.706-3.48-1.706s-2.715.649-3.48 1.706a3.84 3.84 0 0 0-.666 1.633 4.9 4.9 0 0 0 .123 2.042c.37 1.586 1.383 3.388 2.987 5.334-1.012 1.105-1.925 1.85-2.814 2.33a4.95 4.95 0 0 1-1.875.625 4.05 4.05 0 0 1-1.876-.24c-1.21-.481-2.073-1.562-2.246-2.812a3.9 3.9 0 0 1 .222-1.873c.074-.24.198-.48.321-.77.173-.384.37-.792.568-1.2l.024-.048c1.703-3.58 3.53-7.232 5.43-10.787l.074-.144c.197-.36.395-.745.592-1.105.198-.385.42-.745.691-1.058a2.6 2.6 0 0 1 1.974-.888 2.6 2.6 0 0 1 1.975.888c.271.313.493.673.69 1.058.198.36.396.744.593 1.105l.074.144a315 315 0 0 1 5.405 10.81v.025c.197.384.37.816.568 1.2.123.29.246.53.32.77.198.624.272 1.225.173 1.85"/></svg>