<svg xmlns="http://www.w3.org/2000/svg" width="65" height="30" fill="none"><path fill="#181e15" fill-rule="evenodd" d="M40.326 23.277c-3.777 2.809-9.252 4.308-13.966 4.308-6.609 0-12.56-2.467-17.062-6.569-.352-.322-.036-.762.388-.51 4.859 2.85 10.865 4.567 17.07 4.567 4.185 0 8.789-.874 13.021-2.686.64-.275 1.174.422.55.89" clip-rule="evenodd"/><path fill="#181e15" fill-rule="evenodd" d="M41.895 21.464c-.481-.622-3.192-.294-4.408-.148-.37.045-.427-.28-.093-.515 2.159-1.532 5.701-1.09 6.114-.576.413.516-.107 4.1-2.137 5.81-.311.262-.608.122-.469-.227.455-1.147 1.477-3.719.993-4.344M37.571 9.98v-1.49c0-.226.17-.377.374-.377h6.612a.37.37 0 0 1 .382.377v1.276c-.003.214-.181.494-.498.936l-3.426 4.936c1.273-.031 2.617.16 3.771.816.261.149.332.366.352.58v1.59c0 .217-.238.471-.487.34-2.035-1.077-4.737-1.193-6.986.011-.23.126-.47-.125-.47-.342v-1.51c0-.243.003-.657.244-1.026l3.969-5.743h-3.454a.37.37 0 0 1-.383-.374m-24.12 9.298h-2.012a.38.38 0 0 1-.36-.346V8.516a.38.38 0 0 1 .388-.374h1.877c.195.008.35.16.365.348v1.362h.036c.49-1.316 1.41-1.93 2.649-1.93 1.258 0 2.045.614 2.61 1.93.488-1.316 1.594-1.93 2.78-1.93.843 0 1.765.35 2.328 1.14.636.875.506 2.148.506 3.264l-.002 6.575a.39.39 0 0 1-.241.35.4.4 0 0 1-.147.027H22.22a.38.38 0 0 1-.363-.377V13.38c0-.44.04-1.535-.056-1.952-.15-.7-.6-.897-1.183-.897-.487 0-.996.328-1.203.853-.206.526-.187 1.405-.187 1.996V18.9a.39.39 0 0 1-.24.35.4.4 0 0 1-.147.027h-2.009a.38.38 0 0 1-.362-.377l-.003-5.521c0-1.162.19-2.872-1.239-2.872-1.446 0-1.39 1.668-1.39 2.872V18.9a.39.39 0 0 1-.241.35.4.4 0 0 1-.146.027M50.632 7.92c2.985 0 4.6 2.586 4.6 5.874 0 3.178-1.785 5.699-4.6 5.699-2.932 0-4.527-2.586-4.527-5.81 0-3.242 1.616-5.763 4.527-5.763m.018 2.126c-1.483 0-1.577 2.039-1.577 3.31 0 1.273-.02 3.99 1.56 3.99 1.558 0 1.631-2.192 1.631-3.528 0-.88-.036-1.93-.3-2.764-.225-.725-.675-1.008-1.314-1.008m8.454 9.23H57.1a.38.38 0 0 1-.362-.377l-.003-10.42a.385.385 0 0 1 .388-.34h1.864a.38.38 0 0 1 .36.292v1.593h.037c.563-1.425 1.352-2.104 2.742-2.104.902 0 1.782.328 2.348 1.228.526.833.526 2.234.526 3.243v6.556a.39.39 0 0 1-.387.329h-2.018a.38.38 0 0 1-.357-.328v-5.658c0-1.14.13-2.807-1.258-2.807-.49 0-.94.332-1.163.834-.284.637-.32 1.27-.32 1.973v5.61a.4.4 0 0 1-.12.269.38.38 0 0 1-.273.107M32.3 14.302c0 .79.02 1.45-.377 2.151-.32.572-.83.923-1.392.923-.772 0-1.225-.594-1.225-1.47 0-1.73 1.536-2.045 2.994-2.045zm2.028 4.946a.42.42 0 0 1-.475.05c-.668-.56-.79-.82-1.155-1.354-1.103 1.136-1.887 1.476-3.315 1.476-1.695 0-3.011-1.054-3.011-3.163 0-1.647.883-2.77 2.145-3.318 1.092-.485 2.617-.57 3.782-.704v-.263c0-.483.038-1.054-.245-1.47-.244-.374-.714-.529-1.13-.529-.766 0-1.448.397-1.615 1.22-.034.182-.167.362-.351.37l-1.95-.211c-.163-.037-.347-.171-.3-.426.448-2.386 2.587-3.105 4.5-3.105.978 0 2.257.262 3.03 1.01.979.923.885 2.153.885 3.492v3.163c0 .95.39 1.367.759 1.881.127.183.155.403-.01.54a86 86 0 0 0-1.541 1.347zM5.927 14.302c0 .79.02 1.45-.376 2.151-.32.572-.826.923-1.392.923-.772 0-1.222-.594-1.222-1.47 0-1.73 1.536-2.045 2.99-2.045zm2.03 4.946a.42.42 0 0 1-.476.05c-.668-.56-.787-.82-1.155-1.354-1.103 1.136-1.884 1.476-3.315 1.476C1.319 19.42 0 18.366 0 16.257c0-1.647.885-2.77 2.145-3.318 1.092-.485 2.617-.57 3.782-.704v-.263c0-.483.037-1.054-.243-1.47-.246-.374-.716-.529-1.128-.529-.768 0-1.453.397-1.619 1.22-.034.182-.167.362-.348.37l-1.952-.211c-.165-.037-.346-.171-.3-.426.45-2.386 2.586-3.105 4.499-3.105.979 0 2.257.262 3.03 1.01.979.923.885 2.153.885 3.492v3.163c0 .95.391 1.367.758 1.881.131.183.16.403-.005.54q-.78.664-1.542 1.347z" clip-rule="evenodd"/></svg>