<svg xmlns="http://www.w3.org/2000/svg" width="100" height="30" fill="none"><g clip-path="url(#a)"><path fill="#181e15" d="M39.276 8.53a1.51 1.51 0 0 1 1.504-1.516c.834 0 1.51.678 1.51 1.516a1.513 1.513 0 0 1-1.51 1.515 1.51 1.51 0 0 1-1.504-1.515m23.777 10.082a1.51 1.51 0 0 1 1.504-1.517 1.514 1.514 0 0 1 1.51 1.517 1.514 1.514 0 0 1-1.51 1.515 1.51 1.51 0 0 1-1.504-1.515m-48.51-.656c-1.298 0-2.199-1.034-2.199-2.511s.902-2.51 2.2-2.51c1.305 0 2.217 1.033 2.217 2.51 0 1.5-.893 2.511-2.217 2.511m0-7.23c-2.745 0-4.738 1.986-4.738 4.719s1.993 4.717 4.739 4.717c2.756 0 4.756-1.984 4.756-4.717s-2-4.719-4.756-4.719m21.815 4.954a2.3 2.3 0 0 0-.36-.507l-.083-.088.087-.084q.192-.2.38-.474l2.423-3.615h-2.941l-1.821 2.827q-.156.229-.623.229h-.415V8.623c0-1.069-.663-1.214-1.381-1.214h-1.227l.002 12.614h2.606V16.24h.244c.297 0 .5.035.592.197l1.438 2.722c.403.739.802.865 1.555.865h1.998l-1.488-2.468zm12.653-4.973c-1.326 0-2.172.59-2.646 1.09l-.158.16-.056-.218c-.14-.535-.609-.83-1.315-.83h-1.168l.007 9.11h2.589v-4.198c0-.41.053-.767.161-1.092.288-.983 1.092-1.595 2.097-1.595.808 0 1.124.428 1.124 1.533v3.968c0 .944.435 1.385 1.376 1.385h1.232l-.005-5.794c0-2.303-1.119-3.52-3.238-3.52m-8.197.206h-1.227l.009 7.045v2.064h1.309l.046.002.61-.002h.608v-.003h.004l.005-7.722c0-.932-.444-1.384-1.362-1.384m-16.104 7.043c-1.297 0-2.2-1.034-2.2-2.511s.903-2.51 2.2-2.51c1.303 0 2.218 1.033 2.218 2.51 0 1.5-.893 2.511-2.218 2.511m0-7.23c-2.748 0-4.741 1.986-4.741 4.719s1.992 4.717 4.741 4.717c2.754 0 4.758-1.984 4.758-4.717s-2.004-4.719-4.758-4.719m55.49 7.23c-1.297 0-2.201-1.034-2.201-2.511s.904-2.51 2.2-2.51c1.303 0 2.219 1.033 2.219 2.51 0 1.5-.893 2.511-2.218 2.511m0-7.23c-2.748 0-4.741 1.986-4.741 4.719s1.993 4.717 4.74 4.717c2.755 0 4.758-1.984 4.758-4.717s-2.003-4.719-4.757-4.719m-22.493 6.829c-1.415 0-1.92-1.238-1.92-2.4 0-.511.13-2.177 1.784-2.177.822 0 1.917.236 1.917 2.263 0 1.913-.97 2.314-1.781 2.314m3.125-6.666c-.49 0-.87.196-1.059.555l-.071.14-.12-.105c-.418-.362-1.167-.793-2.384-.793-2.42 0-4.05 1.824-4.05 4.538 0 2.711 1.686 4.606 4.099 4.606.824 0 1.476-.193 1.991-.585l.2-.15v.253c0 1.216-.784 1.888-2.206 1.888-.691 0-1.32-.169-1.741-.322-.549-.167-.87-.029-1.094.524l-.205.51-.291.745.18.096c.91.485 2.095.774 3.166.774 2.205 0 4.779-1.132 4.779-4.318l.01-8.356zm-55.93 6.963-2.108-.002v-2.528c0-.54.208-.821.67-.886h1.437c1.026 0 1.688.65 1.689 1.7 0 1.076-.647 1.715-1.689 1.716m-2.108-6.819v-.664c0-.583.245-.86.784-.895h1.078c.925 0 1.479.555 1.479 1.484 0 .708-.38 1.534-1.444 1.534H2.795v-1.458m4.798 2.523-.38-.215.332-.285c.387-.333 1.035-1.083 1.035-2.38 0-1.982-1.533-3.262-3.906-3.262H1.66A1.323 1.323 0 0 0 .385 8.722v11.255h4.344c2.637 0 4.34-1.44 4.34-3.67 0-1.202-.551-2.23-1.475-2.75m88.93-2.822a3.57 3.57 0 0 0-2.779 1.35l-.188.239-.147-.267c-.48-.877-1.304-1.322-2.452-1.322-1.204 0-2.01.674-2.385 1.074l-.245.266-.095-.35c-.137-.505-.585-.783-1.263-.783h-1.088l-.01 9.076h2.471v-4.007c0-.35.043-.698.132-1.061.236-.968.884-2.009 1.975-1.905.672.065 1 .586 1 1.593v5.38h2.49v-4.007c0-.438.04-.767.139-1.096.2-.924.878-1.872 1.93-1.872.76 0 1.042.433 1.042 1.595v4.053c0 .916.408 1.326 1.321 1.326h1.163l.003-5.793c0-2.315-1.015-3.489-3.014-3.489m-22.495 6.131c-.007.01-1.07 1.135-2.47 1.135-1.277 0-2.567-.786-2.567-2.54 0-1.513 1-2.571 2.43-2.571.465 0 .994.166 1.077.448l.012.047a.91.91 0 0 0 .881.671l1.354.002V12.87c0-1.567-1.987-2.135-3.323-2.135-2.858 0-4.933 1.996-4.933 4.746 0 2.749 2.052 4.742 4.88 4.742 2.455 0 3.79-1.618 3.802-1.634l.071-.088-1.073-1.785z"/></g><defs><clipPath id="a"><path fill="#fff" d="M0 0h100v30H0z"/></clipPath></defs></svg>