<svg xmlns="http://www.w3.org/2000/svg" width="124" height="30" fill="none"><path fill="#181e15" d="M38.404 21.181h8.463v-2.684h-5.242v-2.252h4.642v-2.499h-4.643v-2.252h5.243V8.82h-8.463zm18.965-5.324c-1.225 1.925-2.415 2.728-3.945 2.728-1.986 0-3.14-1.377-3.14-3.77 0-2.27 1.065-3.4 2.702-3.4 1.082 0 1.977.477 2.254 2.066h3.22c-.348-3.029-2.307-4.91-5.438-4.91-3.633 0-6.021 2.535-6.021 6.42 0 3.912 2.389 6.438 6.316 6.438 2.567 0 4.312-1.06 5.466-2.49h4.392v2.242h3.203V8.82h-4.545zm5.806.6h-2.836l2.836-4.548zM31.534 8.819h-4.706V21.18h4.706c3.73 0 6.136-2.428 6.136-6.181s-2.406-6.181-6.136-6.181m-.045 9.678h-1.44v-7.003h1.44c1.86 0 2.907 1.298 2.907 3.506 0 2.199-1.046 3.497-2.907 3.497m71.853-9.926c-3.784 0-6.325 2.535-6.325 6.429s2.54 6.429 6.325 6.429c3.793 0 6.324-2.535 6.324-6.429s-2.531-6.429-6.324-6.429m0 10.014c-1.861 0-3.033-1.227-3.033-3.585s1.172-3.585 3.033-3.585c1.869 0 3.032 1.227 3.032 3.585s-1.163 3.585-3.032 3.585m-36.16-7.09h3.159v9.686h3.22v-9.687h3.158V8.82h-9.536zm50.706-2.676v6.808l-4.151-6.808H110.4V21.18h3.113v-7.09l4.321 7.09h3.167V8.82zm-25.433 0h-3.22V21.18h8.077v-2.675h-4.857zm-7.372 4.715h-4.338V8.82h-3.22V21.18h3.22v-4.98h4.338v4.98h3.22V8.82h-3.22zM17.84 6C10.78 6 2 13.28 2 19.313 2 22.429 4.401 24 7.573 24c2.329 0 5.147-.849 7.865-2.484V9.477c-.725 1.237-4.132 6.223-6.869 8.878-1.395 1.355-2.5 1.942-3.452 1.942-1.07 0-1.577-.723-1.577-1.797 0-4.877 8.237-11.218 13.692-11.218 2.247 0 3.697.994 3.697 2.927 0 1.77-1.205 3.992-3.262 6.042v3.73c3.588-2.827 5.736-6.43 5.736-9.339C23.403 7.581 21.01 6 17.839 6"/></svg>