<svg xmlns="http://www.w3.org/2000/svg" width="129" height="30" fill="none"><path fill="#181e15" d="m14.95 7.087-7.477 4.772 7.477 4.772-7.477 4.772L0 16.593l7.477-4.772L0 7.087l7.477-4.772zm-7.513 15.83 7.478-4.772 7.477 4.772-7.477 4.768-7.477-4.772zm7.513-6.324 7.477-4.772-7.477-4.734 7.442-4.772 7.477 4.772-7.477 4.772 7.477 4.772-7.477 4.772-7.437-4.812zM35.715 7.087h6.04c3.858 0 7.04 2.227 7.04 7.318v1.074c0 5.13-2.983 7.437-6.92 7.437h-6.16zm3.38 2.87v10.067h2.586c2.188 0 3.66-1.432 3.66-4.614v-.835c0-3.182-1.551-4.614-3.779-4.614h-2.466zm11.495.158h2.705l.438 2.983c.517-2.028 1.83-3.102 4.215-3.102h.836v3.42h-1.392c-2.744 0-3.42.955-3.42 3.66v5.886H50.63V10.116h-.041m8.87 6.682v-.352c0-4.296 2.744-6.642 6.483-6.642 3.818 0 6.483 2.346 6.483 6.642v.352c0 4.216-2.585 6.483-6.483 6.483-4.136-.04-6.483-2.267-6.483-6.483m9.545-.04v-.318c0-2.386-1.193-3.818-3.102-3.818-1.87 0-3.103 1.312-3.103 3.818v.318c0 2.307 1.193 3.624 3.103 3.624 1.909-.04 3.102-1.312 3.102-3.624m5.17-6.642h2.784l.318 2.426c.676-1.63 2.108-2.744 4.216-2.744 3.262 0 5.41 2.346 5.41 6.681v.353c0 4.216-2.387 6.443-5.41 6.443-2.028 0-3.42-.915-4.096-2.386v6.483h-3.262l.04-17.265zm9.347 6.642v-.279c0-2.545-1.312-3.818-3.062-3.818-1.87 0-3.103 1.432-3.103 3.818v.239c0 2.267 1.193 3.699 3.063 3.699 1.91-.04 3.102-1.272 3.102-3.66m8.313 3.818-.278 2.347h-2.87V5.815h3.262v6.567c.716-1.67 2.148-2.585 4.176-2.585 3.063.04 5.33 2.148 5.33 6.403v.403c0 4.255-2.148 6.682-5.41 6.682-2.147-.04-3.539-1.034-4.215-2.705zm6.205-3.977v-.318c0-2.347-1.273-3.66-3.063-3.66-1.83 0-3.102 1.472-3.102 3.7v.278c0 2.386 1.233 3.778 3.062 3.778 1.95 0 3.103-1.233 3.103-3.778m4.852.199v-.352c0-4.296 2.744-6.642 6.484-6.642 3.818 0 6.483 2.346 6.483 6.642v.352c0 4.216-2.625 6.483-6.483 6.483-4.137-.04-6.484-2.267-6.484-6.483m9.585-.04v-.318c0-2.386-1.193-3.818-3.102-3.818-1.869 0-3.102 1.312-3.102 3.818v.318c0 2.307 1.193 3.624 3.102 3.624 1.909-.04 3.102-1.312 3.102-3.624m7.756-.477-4.494-6.165h3.858l2.585 3.858 2.625-3.858h3.818l-4.574 6.125 4.812 6.677h-3.779l-2.943-4.256-2.869 4.256h-3.938l4.893-6.642z"/></svg>