<svg xmlns="http://www.w3.org/2000/svg" width="63" height="30" fill="none"><g clip-path="url(#a)"><mask id="b" width="63" height="30" x="0" y="0" maskUnits="userSpaceOnUse" style="mask-type:luminance"><path fill="#fff" d="M.344.147h62.308V29.45H.343z"/></mask><g mask="url(#b)"><path stroke="#181e15" stroke-width=".694" d="M41.278 17.256v2.762h-8.405V5.232h8.405v2.754h-5.245v2.901h5.245v2.623h-5.245v3.746zm4.932 2.762h-3.78l4.073-4.325.226-.24-.226-.24-4.073-4.326h3.93l2.192 2.282.254.263.248-.269 2.105-2.276h3.756l-4.052 4.305-.226.241.227.24 4.113 4.345H51.03l-2.17-2.299-.252-.266-.25.268z"/><path fill="#181e15" fill-rule="evenodd" d="M28.69 4.882v6.337h-.043c-.85-.923-1.911-1.243-3.142-1.243-2.544 0-4.434 1.656-5.085 3.825-.75-2.393-2.707-3.87-5.638-3.87-2.38 0-4.233 1.03-5.201 2.686v-2.08H4.698V8.334h5.33v-3.45H.344v15.484h4.354v-6.51h4.364a5.8 5.8 0 0 0-.224 1.532c0 3.23 2.61 5.497 5.945 5.497 2.803 0 4.65-1.244 5.627-3.511H16.68c-.504.682-.888.883-1.897.883-1.17 0-2.178-.963-2.178-2.107h7.617c.332 2.563 2.425 4.778 5.326 4.778 1.253 0 2.4-.58 3.1-1.564h.043v1.002h3.836V4.881zm-15.964 9.021c.24-.984 1.048-1.625 2.056-1.625 1.11 0 1.876.623 2.077 1.625zM26.36 18.01c-1.415 0-2.294-1.247-2.294-2.546 0-1.39.764-2.727 2.294-2.727 1.585 0 2.216 1.337 2.216 2.727 0 1.318-.669 2.546-2.216 2.546m31.576.44c0-1.226 1.053-2.221 2.363-2.221.31 0 .615.056.9.168.286.111.545.275.763.481.22.207.392.451.51.72.117.27.178.56.178.852 0 1.238-1.047 2.233-2.351 2.233a2.5 2.5 0 0 1-.905-.169 2.4 2.4 0 0 1-.768-.484 2.2 2.2 0 0 1-.512-.725 2.1 2.1 0 0 1-.178-.856m4.3 0c0-.486-.205-.952-.568-1.294a2 2 0 0 0-1.37-.537c-1.078 0-1.949.824-1.949 1.83 0 .242.05.482.148.706s.242.427.423.598.396.307.632.4c.237.092.491.14.747.139 1.073 0 1.937-.823 1.937-1.842m-2.438.148v1.132h-.433v-2.619h.896c.508 0 1.035.13 1.035.723 0 .302-.194.54-.565.61v.012c.383.07.427.23.47.515.038.248.07.521.163.76h-.55c-.033-.15-.077-.315-.096-.47-.03-.225-.03-.43-.156-.556-.107-.106-.252-.095-.401-.106zm.457-.409c.408-.012.502-.172.502-.373 0-.195-.094-.296-.438-.296h-.522v.67z" clip-rule="evenodd"/></g></g><defs><clipPath id="a"><path fill="#fff" d="M0 0h63v30H0z"/></clipPath></defs></svg>