<svg xmlns="http://www.w3.org/2000/svg" width="29" height="30" fill="none"><path fill="#181e15" d="M28.127 16.86c-.908 6.958-6.845 12.297-14.005 12.298h-.002c7.175 0 13.099-5.358 14.007-12.298M14.123 1.51c7.433 0 13.459 6.078 13.459 13.492 0 7.45-6.025 13.489-13.459 13.489C6.688 28.49.661 22.45.661 15c0-7.454 6.027-13.49 13.462-13.49M.085 16.601a14.15 14.15 0 0 1 0 0M14.121 2.373c-4.5.035-9.08 2.314-10.566 7.177-.313 1.02-.51 1.882-.51 2.864 0 2.274 1.292 2.391 1.292 3.45 0 .55-.43.942-.938.942-.9 0-1.604-1.019-1.604-2.746 0-1.569.412-2.834.468-3.019.001-.01-.006-.038-.04-.05-.036-.013-.063 0-.072.012-.01.019-.629 1.784-.63 3.999-.002 4.548 2.308 9.135 7.162 10.625 1.016.316 1.878.511 2.856.511 2.268 0 2.348-1.333 3.405-1.333a.97.97 0 0 1 .979.98c0 .864-1.019 1.57-2.74 1.57-1.566 0-2.833-.4-3.01-.468-.018-.008-.049.012-.058.037-.014.035.003.069.02.08.438.197 1.912.624 3.987.624 4.498 0 9.117-2.274 10.566-7.176.311-.98.507-1.883.507-2.824 0-2.312-1.29-2.392-1.29-3.45 0-.589.39-.982.94-.982.898 0 1.598 1.06 1.601 2.788.005 1.599-.467 2.995-.469 3.018 0 .021.008.038.043.05.044.014.065-.001.07-.013.007-.015.652-1.748.629-4.038-.042-4.472-2.268-9.1-7.161-10.59-1.017-.314-1.878-.508-2.854-.508-2.27 0-2.35 1.293-3.406 1.293-.585 0-.979-.432-.979-.94 0-.904 1.058-1.61 2.74-1.608 1.795 0 2.983.496 3.012.5.013.003.037-.001.054-.04.012-.03 0-.058-.013-.068-.071-.058-1.9-.684-3.99-.667m4.774 4.979c.9 0 1.37.627 1.37 1.333 0 1.333-1.134 2.509-2.739 3.726.117.312.307.582.579.721.013-.005.53-.186 1.043-.166.466.018 1.114.185 1.147.62.068.986-2.154.595-2.18.592-.862.234-2.508 1.215-2.508 3.726 0 1.687 1.058 3.254 2.703 3.254 1.249 0 2.316-1.01 2.354-2.46 0-.94-.44-1.853-1.378-1.853-.469 0-.942.337-.976.84-.05.762.625.884.625 1.398 0 .35-.274.507-.55.507-.78 0-1.368-.784-1.368-1.764 0-1.176 1.017-2.158 2.346-2.158 1.724 0 2.623 1.49 2.624 3.096 0 1.766-1.525 3.61-3.756 3.61-2.701 0-4.07-2.276-4.07-4.315 0-2.862 1.955-4.079 2.777-4.51a1.6 1.6 0 0 1-.39-.47c-.94.668-1.793 1.256-3.591 2.278-.08 1.256-.206 2.626-.518 3.566-.665 2-2.036 3.452-3.835 3.453-1.526 0-2.269-1.1-2.269-2.277 0-.862.51-1.96 1.407-2.784 1.135-1.02 2.387-1.646 4.11-2.55.04-.233.079-.47.117-.744-.431.391-1.057.548-1.567.548-.82 0-1.484-.706-1.641-1.451-1.095-.077-1.917-.864-1.957-2.119 0-.902.352-1.686.938-1.686.235 0 .315.195.315.352 0 .158-.197.666-.197 1.176s.235 1.177.863 1.177c0-2.038 1.484-4.666 3.246-4.666 1.173 0 1.33.864 1.33 1.255 0 1.844-1.84 3.882-3.327 4.393.04.157.198.59.666.59.589 0 1.292-.55 1.645-.983.157-.824.743-2.002 1.525-2.002.314 0 .47.237.47.51 0 .59-.644 1.355-1.114 1.865a7 7 0 0 0-.15 1.188c1.369-.824 2.125-1.289 3.143-2.032-.08-.273-.08-.589-.08-.901 0-1.843 1.213-3.883 2.817-3.883m-7.176 8.672c-1.762.863-4.094 2.473-4.094 4.158 0 .588.345.955.871.977h.107c2.01-.09 2.803-2.783 3.116-5.135m16.434.61q-.012.112-.026.226.015-.113.026-.227m.09-1.266v-.001M0 15.366v.002zM14.12.844C6.52.844.3 6.896.007 14.447c.286-7.44 6.3-13.411 13.748-13.6zm1.086.041c7.114.542 12.754 6.364 13.03 13.563-.277-7.189-5.93-13.02-13.03-13.563m-3.259 7.524c-.778-.26-2.052 2.199-2.052 3.493 1.29-.706 2.972-3.186 2.052-3.493m7.024.029c-.594-.294-1.68 1.267-1.681 2.877 1.173-1.021 2.356-2.537 1.68-2.877M14.485.847a14 14 0 0 0-.365-.004h.001q.183 0 .364.004"/></svg>