<svg xmlns="http://www.w3.org/2000/svg" width="74" height="30" fill="none"><path fill="#181e15" d="M10.175 23.71c-1.113.196-2.246.255-3.418.411L3.183 13.652V24.57c-1.113.117-2.128.274-3.183.43V5h2.969L7.03 16.348V5h3.144zm6.152-11.386c1.211 0 3.067-.058 4.18-.058v3.124c-1.387 0-3.008 0-4.18.06v4.648c1.836-.117 3.672-.274 5.527-.332v3.007l-8.652.684V5h8.652v3.125h-5.527zm17.148-4.199h-3.242V22.5c-1.055 0-2.11 0-3.125.039V8.125h-3.242V5h9.609zm5.078 3.984h4.277v3.125h-4.277v7.09h-3.067V5h8.73v3.125h-5.663zm10.741 7.48c1.778.04 3.574.177 5.312.274v3.086c-2.792-.176-5.585-.351-8.437-.41V5h3.125zm7.949 3.575c.996.059 2.05.117 3.066.234V5h-3.066zM74 5l-3.965 9.512L74 25c-1.172-.156-2.344-.371-3.516-.566l-2.245-5.782-2.285 5.313c-1.133-.195-2.227-.254-3.36-.41l4.024-9.16L62.985 5h3.359l2.05 5.254L70.583 5z"/></svg>