<svg xmlns="http://www.w3.org/2000/svg" width="33" height="30" fill="none"><g clip-path="url(#a)"><path fill="#181e15" d="M12.845 21.768c-1.102-.059-1.923-.51-2.404-1.317-.323-.542-.42-1.256-.273-1.984.163-.808.719-1.535 1.57-2.058.49-.302.909-.489 1.761-.787q.21-.069.412-.153c.017-.013.02-.061.01-.217-.024-.44.05-1.128.176-1.624.211-.834.617-1.507 1.155-1.916a3.4 3.4 0 0 1 1.398-.609 3.3 3.3 0 0 1 1.008 0c1.123.226 1.755 1.087 1.506 2.056a2.5 2.5 0 0 1-.357.725c-.358.475-.898.897-1.66 1.299q-.345.175-.695.34c-.288.137-.531.258-.542.269-.017.016-.012.063.018.218.143.72.383 1.33.794 2.01.162.271.387.613.413.629.038.022.19-.222.288-.462.123-.299.193-.693.158-.889a.75.75 0 0 0-.2-.384.5.5 0 0 1-.083-.093c0-.007.382-.01.85-.008l.849.004-.004.107a4.3 4.3 0 0 1-.12.681c-.162.625-.469 1.16-.998 1.743a.7.7 0 0 0-.113.15c0 .014.088.11.194.213.67.644 1.855 1.388 2.82 1.768.094.037.17.075.17.084s-.558.018-1.628.02l-1.628.005-.093-.052c-.19-.106-.608-.442-1.01-.811a1 1 0 0 0-.179-.142c-.014 0-.108.054-.21.121a7.7 7.7 0 0 1-1.676.825c-.6.2-1.097.27-1.677.239m1.37-1.402q.421-.08.818-.24c.278-.11.62-.277.632-.309.006-.012-.058-.118-.14-.234-.38-.536-.783-1.29-1.056-1.967q-.182-.469-.322-.953c-.012-.048-.032-.092-.046-.098-.038-.014-.35.151-.618.328-.955.63-1.413 1.397-1.31 2.2.044.356.158.616.364.836.383.405.98.562 1.678.437m1.62-5.579c.355-.206.915-.705 1.229-1.093.4-.496.614-.96.615-1.336 0-.214-.03-.31-.131-.41-.1-.099-.212-.14-.384-.14-.509 0-1.06.6-1.299 1.417-.12.412-.15.633-.151 1.137 0 .384.006.47.035.47a.5.5 0 0 0 .087-.045m8.42 6.971c-.84-.084-1.392-.208-2.016-.453-.849-.335-1.378-.748-1.825-1.426a5.5 5.5 0 0 1-.436-.865c-.389-1.05-.474-2.371-.243-3.749.234-1.395.768-2.74 1.504-3.79.477-.682 1.187-1.4 1.92-1.942 1.211-.895 2.604-1.444 4.152-1.638q.641-.085 1.287-.073c.84 0 1.478.064 2.322.23.539.106 1.396.337 1.413.379.009.021-.535 1.751-.557 1.775-.008.007-.091-.049-.186-.123-.763-.605-1.554-.973-2.353-1.096a4.2 4.2 0 0 0-.986 0c-1.121.172-2.161.884-3.084 2.111q-.501.682-.887 1.435-.515 1.002-.829 2.084c-.771 2.557-.81 4.344-.116 5.31.285.399.703.653 1.233.75.304.056 1.043.022 1.117-.051.012-.012.372-1.133.801-2.492.705-2.233.781-2.484.789-2.61a.86.86 0 0 0-.098-.468 1.2 1.2 0 0 0-.407-.398.5.5 0 0 1-.12-.078c0-.007 1.183-.012 2.629-.012s2.628.006 2.628.012a.6.6 0 0 1-.143.077c-.408.186-.705.465-.881.83-.038.078-.37 1.1-.866 2.672l-.805 2.544-.232.111c-.947.452-2.105.777-3.259.915-.213.026-1.289.047-1.467.03M.058 21.573c-.005-.009.03-.038.078-.066a2.07 2.07 0 0 0 .742-.785C.92 20.641 4.525 9.23 4.604 8.936c.014-.052.026-.16.026-.243a.75.75 0 0 0-.26-.6.5.5 0 0 1-.091-.101c0-.023 6.296-.021 6.584.002.625.049 1.252.214 1.73.456.818.413 1.306 1.04 1.457 1.866.042.23.05.741.016.989-.14 1.01-.6 2.08-1.227 2.854-1.015 1.255-2.675 2.057-4.712 2.277-.646.07-1.46.088-2.037.044a3 3 0 0 0-.31-.015c-.02.02-1.32 4.165-1.335 4.257a.81.81 0 0 0 .357.775c.05.032.087.067.082.075-.013.02-4.812.02-4.824 0m7.148-6.156c.466-.08.908-.265 1.293-.54.196-.136.598-.535.764-.757.414-.555.72-1.21.966-2.073.157-.55.224-.97.224-1.401 0-.333-.03-.532-.115-.755a1.25 1.25 0 0 0-.703-.722c-.278-.112-.515-.141-1.085-.135l-.43.005-1 3.164c-.55 1.74-.998 3.172-.994 3.183s.073.028.154.038c.08.011.157.022.17.026.063.015.62-.01.755-.033"/></g><defs><clipPath id="a"><path fill="#fff" d="M0 0h33v30H0z"/></clipPath></defs></svg>