<svg xmlns="http://www.w3.org/2000/svg" width="90" height="30" fill="none"><path fill="#181e15" fill-rule="evenodd" d="M48.837 14.535s-.867-.536-1.402-.743c0 0-1.659-.769-1.988-1.134 0 0-.646-.61-.268-1.317 0 0 .159-.463.842-.463 0 0 .889.049.889.78v1.03h3.187l-.006-1.518s.245-2.486-3.754-2.596c0 0-3.145-.206-4.047 1.488 0 0-.354.378-.354 1.694v.95s-.036 1.098.524 1.805c0 0 .317.463 1.097.975 0 0 1.585.853 2.536 1.341 0 0 .96.548.834 1.42 0 0-.079.896-1.006.859 0 0-.847-.038-.847-.916v-1.03h-3.396v1.496s-.095 2.863 4.268 2.863c0 0 4.17.084 4.364-2.938v-1.218s.148-1.852-1.473-2.828M32.52 8.931l-1.067 6.687h-.25L30.186 8.99h-5.323l-.267 12.11h3.152l.038-9.125h.248l1.67 9.123h3.316l1.65-9.12h.22l.076 9.122h3.168l-.34-12.17zm-18.762.05-2.097 12.106h3.393l1.242-9.386h.28l1.24 9.386h3.393L19.114 8.98zm71.198 5.387v1.786h.87v1.917c0 .937-.8.954-.8.954-.975 0-.938-.89-.938-.89v-6.63c0-.684.864-.72.864-.72.83 0 .835.814.835.814v1.009h3.195c.104-1.968-.288-2.445-.288-2.445-.793-1.78-3.79-1.682-3.79-1.682-4.608 0-4.096 3.535-4.096 3.535v6.41c.099 3.316 4.639 2.98 4.715 2.977 2.019-.224 2.63-.866 2.63-.866.56-.417.705-.994.705-.994.16-.336.2-1.408.2-1.408v-3.767zm-10.59 1.97h-.139l-3.242-7.404h-3.879v12.168h3.157l-.189-7.404h.141l3.36 7.404h3.76V8.932h-3.197zM59.401 18.07s.046.999-.88.999c0 0-.974.052-.974-.974l-.01-9.154h-3.462v9.081s-.356 3.437 4.495 3.437c0 0 4.215.05 4.215-3.279V8.942h-3.384zM7.158 14.535s-.866-.536-1.402-.742c0 0-1.657-.768-1.986-1.135 0 0-.647-.61-.268-1.316 0 0 .158-.463.84-.463 0 0 .89.049.89.78v1.03H8.42l-.006-1.519s.244-2.486-3.754-2.595c0 0-.3-.02-.743.003 0 0-2.421.13-3.287 1.458q-.009.014-.017.026s-.354.378-.354 1.694v.951s-.037 1.097.524 1.804c0 0 .317.464 1.097.975 0 0 1.584.853 2.535 1.342 0 0 .961.547.834 1.42 0 0-.078.895-1.005.858 0 0-.847-.037-.847-.915V17.16H0v1.497S-.095 21.52 4.27 21.52c0 0 4.168.084 4.364-2.938v-1.217s.146-1.854-1.475-2.83" clip-rule="evenodd"/></svg>