<svg xmlns="http://www.w3.org/2000/svg" width="97" height="30" fill="none"><path fill="#181e15" d="M18.51 11.107a11.15 11.15 0 0 0 6.466 2.052v-4.6c-.456 0-.912-.048-1.358-.141v3.621c-2.411 0-4.643-.76-6.466-2.052v9.39c0 4.696-3.84 8.503-8.577 8.503-1.767 0-3.41-.53-4.774-1.438A8.59 8.59 0 0 0 9.933 29c4.737 0 8.577-3.807 8.577-8.504zm1.675-4.641a6.4 6.4 0 0 1-1.675-3.754V2.12h-1.287a6.44 6.44 0 0 0 2.962 4.346M6.797 22.838a3.85 3.85 0 0 1-.8-2.355c0-2.149 1.756-3.89 3.923-3.89.403 0 .805.06 1.19.182v-4.703a9 9 0 0 0-1.358-.078v3.66a4 4 0 0 0-1.19-.181c-2.167 0-3.924 1.741-3.924 3.89 0 1.519.878 2.834 2.159 3.474" opacity=".5"/><path fill="#181e15" d="M17.15 9.987a11.15 11.15 0 0 0 6.467 2.052V8.417a6.5 6.5 0 0 1-3.433-1.951 6.44 6.44 0 0 1-2.962-4.346h-3.38v18.376c-.008 2.142-1.761 3.877-3.924 3.877a3.93 3.93 0 0 1-3.123-1.536 3.89 3.89 0 0 1-2.158-3.474c0-2.148 1.757-3.89 3.923-3.89.416 0 .816.064 1.191.182v-3.661c-4.653.095-8.396 3.865-8.396 8.502 0 2.314.932 4.413 2.445 5.946a8.6 8.6 0 0 0 4.774 1.438c4.737 0 8.577-3.807 8.577-8.504z"/><path fill="#181e15" d="M23.62 8.417v-.979a6.5 6.5 0 0 1-3.434-.972 6.5 6.5 0 0 0 3.433 1.951M17.223 2.12a7 7 0 0 1-.07-.528V1h-4.668v18.376c-.008 2.142-1.76 3.877-3.923 3.877-.635 0-1.234-.15-1.765-.415a3.93 3.93 0 0 0 3.123 1.534c2.162 0 3.915-1.734 3.923-3.876V2.12zm-7.47 9.874v-1.042a9 9 0 0 0-1.177-.08C3.84 10.872 0 14.68 0 19.376c0 2.944 1.51 5.54 3.802 7.066a8.44 8.44 0 0 1-2.444-5.946c0-4.637 3.742-8.407 8.396-8.502M77.698 24.03c3.39 0 6.137-2.704 6.137-6.039s-2.748-6.039-6.137-6.039h-.925c3.39 0 6.137 2.704 6.137 6.04 0 3.334-2.747 6.038-6.137 6.038zM76.69 11.952h-.924c-3.389 0-6.137 2.704-6.137 6.04 0 3.334 2.748 6.038 6.137 6.038h.924c-3.389 0-6.137-2.704-6.137-6.039s2.748-6.039 6.138-6.039" opacity=".5"/><path fill="#181e15" d="M30.033 9.223v3.06h3.614v11.664h3.616v-11.58h2.942l1.009-3.144zm29.59 0v3.06h3.615v11.664h3.615v-11.58h2.942l1.009-3.144zM41.888 10.96c0-.96.789-1.737 1.764-1.737s1.765.778 1.765 1.737-.79 1.737-1.765 1.737-1.764-.778-1.764-1.737m0 2.978h3.53v10.01h-3.53zm5.043-4.715v14.724h3.53v-3.805l1.094-.993L55 24.029h3.782l-4.96-7.113 4.456-4.302H53.99l-3.53 3.474V9.223zm38.08 0v14.724h3.531v-3.805l1.093-.993 3.447 4.88h3.783l-4.96-7.113 4.455-4.302h-4.287l-3.53 3.474V9.223zM76.771 24.03c3.39 0 6.138-2.704 6.138-6.039s-2.749-6.039-6.138-6.039h-.083c-3.39 0-6.137 2.704-6.137 6.04 0 3.334 2.747 6.038 6.137 6.038zm-3.026-6.039c0-1.622 1.337-2.936 2.985-2.936s2.984 1.314 2.984 2.936-1.337 2.937-2.984 2.937-2.985-1.315-2.985-2.937"/></svg>